<?xml version="1.0" encoding="UTF-8" standalone="no"?>
<!DOCTYPE svg PUBLIC "-//W3C//DTD SVG 1.0//EN" "http://www.w3.org/TR/2001/REC-SVG-20010904/DTD/svg10.dtd">
<!-- Generated by Microsoft Visio 11.0, SVG Export, v1.0 asr.svg Page-1 -->
<svg xmlns="http://www.w3.org/2000/svg" xmlns:v="http://schemas.microsoft.com/visio/2003/SVGExtensions/" width="6.1919in"
		height="1.24906in" viewBox="0 0 445.817 89.9323" xml:space="preserve" color-interpolation-filters="sRGB" class="st12">
	<v:documentProperties v:langID="2057" v:metric="true" v:viewMarkup="false"/>

	<style type="text/css">
	<![CDATA[
		.st1 {fill:none;stroke:#ffffff;stroke-linecap:butt;stroke-width:0.5}
		.st2 {fill:#000000;font-family:Arial;font-size:0.874992em}
		.st3 {fill:none;stroke:#000000;stroke-linecap:butt;stroke-width:0.5}
		.st4 {fill:none;stroke:none;stroke-linecap:butt;stroke-width:0.75}
		.st5 {fill:#000000;font-family:Arial;font-size:1.53124em}
		.st6 {marker-end:url(#mrkr4-50);stroke:#000000;stroke-linecap:butt;stroke-width:0.5}
		.st7 {fill:#000000;fill-opacity:1;stroke:#000000;stroke-opacity:1;stroke-width:0.21739130434783}
		.st8 {marker-end:url(#mrkr4-50);stroke:#000000;stroke-dasharray:4,2;stroke-linecap:butt;stroke-width:0.5}
		.st9 {fill:none;stroke:none;stroke-linecap:butt;stroke-width:0.5}
		.st10 {fill:#000000;font-family:Arial;font-size:0.666664em}
		.st11 {font-size:1em}
		.st12 {fill:none;fill-rule:evenodd;font-size:12;overflow:visible;stroke-linecap:square;stroke-miterlimit:3}
	]]>
	</style>

	<defs id="Markers">
		<g id="lend4">
			<path d="M 2 1 L 0 0 L 2 -1 L 2 1 " style="stroke:none"/>
		</g>
		<marker id="mrkr4-50" class="st7" v:arrowType="4" v:arrowSize="1" v:setback="9.2" refX="-9.2" orient="auto"
				markerUnits="strokeWidth">
			<use xlink:href="#lend4" transform="scale(-4.6,-4.6) "/>
		</marker>
	</defs>
	<g v:mID="0" v:index="1" v:groupContext="foregroundPage">
		<title>Page-1</title>
		<v:pageProperties v:drawingScale="0.0393701" v:pageScale="0.0393701" v:drawingUnits="24" v:shadowOffsetX="9"
				v:shadowOffsetY="-9"/>
		<v:layer v:name="Connector" v:index="0"/>
		<g id="shape1-1" v:mID="1" v:groupContext="shape" transform="translate(5.89361,-45.3198)">
			<title>Sheet.1</title>
			<desc>31</desc>
			<v:textBlock v:margins="rect(0,0,0,0)" v:tabSpace="42.5197"/>
			<v:textRect cx="10.4474" cy="87.3073" width="20.9" height="5.25"/>
			<rect x="0" y="84.6823" width="20.8948" height="5.25" class="st1"/>
			<text x="0" y="90.46" class="st2" v:langID="1033"><v:paragraph/><v:tabList/>31</text>		</g>
		<g id="shape2-4" v:mID="2" v:groupContext="shape" transform="translate(393.53,-45.3198)">
			<title>Sheet.2</title>
			<desc>1</desc>
			<v:textBlock v:margins="rect(0,0,0,0)" v:tabSpace="42.5197"/>
			<v:textRect cx="5.22371" cy="87.3073" width="10.45" height="5.25"/>
			<rect x="0" y="84.6823" width="10.4474" height="5.25" class="st1"/>
			<text x="0" y="90.46" class="st2" v:langID="1033"><v:paragraph/><v:tabList/>1</text>		</g>
		<g id="shape3-7" v:mID="3" v:groupContext="shape" transform="translate(407.544,-45.3198)">
			<title>Sheet.3</title>
			<desc>0</desc>
			<v:textBlock v:margins="rect(0,0,0,0)" v:tabSpace="42.5197"/>
			<v:textRect cx="5.22371" cy="87.3073" width="10.45" height="5.25"/>
			<rect x="0" y="84.6823" width="10.4474" height="5.25" class="st1"/>
			<text x="0" y="90.46" class="st2" v:langID="1033"><v:paragraph/><v:tabList/>0</text>		</g>
		<g id="shape33-10" v:mID="33" v:groupContext="shape" transform="translate(378.181,-45.3198)">
			<title>Sheet.33</title>
			<desc>2</desc>
			<v:textBlock v:margins="rect(0,0,0,0)" v:tabSpace="42.5197"/>
			<v:textRect cx="5.22371" cy="87.3073" width="10.45" height="5.25"/>
			<rect x="0" y="84.6823" width="10.4474" height="5.25" class="st1"/>
			<text x="0" y="90.46" class="st2" v:langID="2057"><v:paragraph/><v:tabList/>2</text>		</g>
		<g id="shape36-13" v:mID="36" v:groupContext="shape" transform="translate(348.53,-45.3198)">
			<title>Sheet.36</title>
			<desc>4</desc>
			<v:textBlock v:margins="rect(0,0,0,0)" v:tabSpace="42.5197"/>
			<v:textRect cx="5.22371" cy="87.3073" width="10.45" height="5.25"/>
			<rect x="0" y="84.6823" width="10.4474" height="5.25" class="st1"/>
			<text x="0" y="90.46" class="st2" v:langID="2057"><v:paragraph/><v:tabList/>4</text>		</g>
		<g id="shape37-16" v:mID="37" v:groupContext="shape" transform="translate(335.03,-45.3198)">
			<title>Sheet.37</title>
			<desc>5</desc>
			<v:textBlock v:margins="rect(0,0,0,0)" v:tabSpace="42.5197"/>
			<v:textRect cx="5.22371" cy="87.3073" width="10.45" height="5.25"/>
			<rect x="0" y="84.6823" width="10.4474" height="5.25" class="st1"/>
			<text x="0" y="90.46" class="st2" v:langID="2057"><v:paragraph/><v:tabList/>5</text>		</g>
		<g id="shape34-19" v:mID="34" v:groupContext="shape" transform="translate(364.28,-45.3198)">
			<title>Sheet.34</title>
			<desc>3</desc>
			<v:textBlock v:margins="rect(0,0,0,0)" v:tabSpace="42.5197"/>
			<v:textRect cx="5.22371" cy="87.3073" width="10.45" height="5.25"/>
			<rect x="0" y="84.6823" width="10.4474" height="5.25" class="st1"/>
			<text x="0" y="90.46" class="st2" v:langID="2057"><v:paragraph/><v:tabList/>3</text>		</g>
		<g id="shape4-22" v:mID="4" v:groupContext="shape" transform="translate(359.548,-35.8534)">
			<title>Sheet.4</title>
			<rect x="0" y="65.7495" width="14.8079" height="24.1828" class="st3"/>
		</g>
		<g id="shape5-24" v:mID="5" v:groupContext="shape" transform="translate(374.227,-35.8534)">
			<title>Sheet.5</title>
			<rect x="0" y="65.7495" width="14.8066" height="24.1828" class="st3"/>
		</g>
		<g id="shape6-26" v:mID="6" v:groupContext="shape" transform="translate(389.033,-35.8534)">
			<title>Sheet.6</title>
			<rect x="0" y="65.7495" width="14.8079" height="24.1828" class="st3"/>
		</g>
		<g id="shape7-28" v:mID="7" v:groupContext="shape" transform="translate(403.841,-35.8534)">
			<title>Sheet.7</title>
			<rect x="0" y="65.7495" width="14.8066" height="24.1828" class="st3"/>
		</g>
		<g id="shape35-30" v:mID="35" v:groupContext="shape" transform="translate(330.348,-35.8534)">
			<title>Sheet.35</title>
			<rect x="0" y="65.7495" width="14.8066" height="24.1828" class="st3"/>
		</g>
		<g id="shape12-32" v:mID="12" v:groupContext="shape" transform="translate(77.2374,-35.8534)">
			<title>Sheet.12</title>
			<rect x="0" y="65.7495" width="14.8071" height="24.1828" class="st3"/>
		</g>
		<g id="shape31-34" v:mID="31" v:groupContext="shape" transform="translate(48.891,-35.8534)">
			<title>Sheet.31</title>
			<rect x="0" y="65.7495" width="14.8071" height="24.1828" class="st3"/>
		</g>
		<g id="shape32-36" v:mID="32" v:groupContext="shape" transform="translate(18.8103,-35.8534)">
			<title>Sheet.32</title>
			<rect x="0" y="65.7495" width="14.8071" height="24.1828" class="st3"/>
		</g>
		<g id="shape9-38" v:mID="9" v:groupContext="shape" transform="translate(426.962,-35.753)">
			<title>Sheet.9</title>
			<rect x="0" y="65.7495" width="14.8819" height="24.1828" class="st3"/>
		</g>
		<g id="shape25-40" v:mID="25" v:groupContext="shape" transform="translate(202.091,-13.095)">
			<title>Sheet.25</title>
			<desc>...</desc>
			<v:textBlock v:margins="rect(0,0,0,0)" v:tabSpace="42.5197"/>
			<v:textRect cx="27.4245" cy="85.3385" width="54.85" height="9.1875"/>
			<rect x="0" y="80.7448" width="54.8489" height="9.1875" class="st4"/>
			<text x="0" y="90.85" class="st5" v:langID="1033"><v:paragraph/><v:tabList/>...</text>		</g>
		<g id="shape8-43" v:mID="8" v:groupContext="shape" transform="translate(4.04281,-35.8534)">
			<title>Sheet.8</title>
			<rect x="0" y="65.7495" width="414.605" height="24.1828" class="st3"/>
		</g>
		<g id="shape14-45" v:mID="14" v:groupContext="shape" v:layerMember="0" transform="translate(26.2138,-28.7668)">
			<title>Dynamic connector</title>
			<path d="M0 82.85 L0 105.96 L45.35 105.96 L45.35 87.45" class="st6"/>
		</g>
		<g id="shape16-51" v:mID="16" v:groupContext="shape" v:layerMember="0" transform="translate(10.9428,-28.585)">
			<title>Dynamic connector.16</title>
			<path d="M0 82.85 L0 113.37 L45 113.37 L45 87.45" class="st6"/>
		</g>
		<g id="shape13-56" v:mID="13" v:groupContext="shape" v:layerMember="0" transform="translate(41.8044,-28.7668)">
			<title>Dynamic connector.13</title>
			<path d="M0 82.85 L0 97.78 L45.35 97.78 L45.35 87.45" class="st6"/>
		</g>
		<g id="shape39-61" v:mID="39" v:groupContext="shape" v:layerMember="0" transform="translate(5.14296,-52.9496)">
			<title>Dynamic connector.39</title>
			<path d="M0 82.85 L-0 58.19 L50.83 58.19 L50.83 78.25" class="st6"/>
		</g>
		<g id="shape26-66" v:mID="26" v:groupContext="shape" v:layerMember="0" transform="translate(34.3634,-84.7893)">
			<title>Dynamic connector.26</title>
			<path d="M7.09 89.93 L7.09 110.09" class="st6"/>
		</g>
		<g id="shape27-71" v:mID="27" v:groupContext="shape" v:layerMember="0" transform="translate(20.1666,-84.7893)">
			<title>Dynamic connector.27</title>
			<path d="M7.09 89.93 L7.09 110.09" class="st6"/>
		</g>
		<g id="shape28-76" v:mID="28" v:groupContext="shape" v:layerMember="0" transform="translate(4.95398,-84.7893)">
			<title>Dynamic connector.28</title>
			<path d="M7.09 89.93 L7.09 110.09" class="st6"/>
		</g>
		<g id="shape29-81" v:mID="29" v:groupContext="shape" v:layerMember="0" transform="translate(385.174,-42.8899)">
			<title>Dynamic connector.29</title>
			<path d="M0 96.97 L0 127.5 L49.23 127.5 L49.23 101.67" class="st8"/>
		</g>
		<g id="shape23-86" v:mID="23" v:groupContext="shape" v:layerMember="0" transform="translate(352.198,-28.7668)">
			<title>Dynamic connector.23</title>
			<path d="M0 82.85 L0 105.96 L43.94 105.96 L43.94 87.45" class="st6"/>
		</g>
		<g id="shape17-91" v:mID="17" v:groupContext="shape" v:layerMember="0" transform="translate(366.371,-28.7668)">
			<title>Dynamic connector.17</title>
			<path d="M0 82.85 L0 97.78 L44.5 97.78 L44.5 87.45" class="st6"/>
		</g>
		<g id="shape18-96" v:mID="18" v:groupContext="shape" v:layerMember="0" transform="translate(336.702,-28.7668)">
			<title>Dynamic connector.18</title>
			<path d="M0 82.85 L0 113.37 L41.01 113.37 L41.01 87.45" class="st6"/>
		</g>
		<g id="shape10-101" v:mID="10" v:groupContext="shape" transform="translate(423.489,-60.6567)">
			<title>Sheet.10</title>
			<desc>Carry Flag</desc>
			<v:textBlock v:margins="rect(1,1,1,1)" v:tabSpace="42.5197"/>
			<v:textRect cx="10.9138" cy="79.3305" width="21.83" height="21.2035"/>
			<rect x="0" y="68.7288" width="21.8276" height="21.2035" class="st9"/>
			<text x="1.15" y="76.93" class="st10" v:langID="2057"><v:paragraph v:horizAlign="1"/><v:tabList/>Carry<v:newlineChar/><tspan
						x="3.14" dy="1.2em" class="st11">Flag</tspan></text>		</g>
	</g>
</svg>
