<?xml version="1.0" encoding="UTF-8" standalone="no"?>
<!DOCTYPE svg PUBLIC "-//W3C//DTD SVG 1.0//EN" "http://www.w3.org/TR/2001/REC-SVG-20010904/DTD/svg10.dtd">
<!-- Generated by Microsoft Visio 11.0, SVG Export, v1.0 cpuid_register_bit_assignments.svg Page-1 -->
<svg xmlns="http://www.w3.org/2000/svg" xmlns:v="http://schemas.microsoft.com/visio/2003/SVGExtensions/" width="5.06159in"
		height="0.573403in" viewBox="0 0 364.435 41.285" xml:space="preserve" color-interpolation-filters="sRGB" class="st6">
	<v:documentProperties v:langID="2057" v:metric="true" v:viewMarkup="false"/>

	<style type="text/css">
	<![CDATA[
		.st1 {fill:none;stroke:#000000;stroke-linecap:butt;stroke-width:0.8}
		.st2 {stroke:#000000;stroke-linecap:butt;stroke-width:0.8}
		.st3 {fill:none;stroke:none;stroke-linecap:butt;stroke-width:0.8}
		.st4 {fill:#000000;font-family:Arial;font-size:0.666664em}
		.st5 {stroke:#000000;stroke-dasharray:0.25,1;stroke-linecap:butt;stroke-width:0.25}
		.st6 {fill:none;fill-rule:evenodd;font-size:12;overflow:visible;stroke-linecap:square;stroke-miterlimit:3}
	]]>
	</style>

	<g v:mID="0" v:index="1" v:groupContext="foregroundPage">
		<title>Page-1</title>
		<v:pageProperties v:drawingScale="0.0393701" v:pageScale="0.0393701" v:drawingUnits="24" v:shadowOffsetX="8.50394"
				v:shadowOffsetY="-8.50394"/>
		<g id="shape1-1" v:mID="1" v:groupContext="shape" transform="translate(0.8,-0.8)">
			<title>Sheet.1</title>
			<rect x="0" y="12.9386" width="362.835" height="28.3465" class="st1"/>
		</g>
		<g id="shape2-3" v:mID="2" v:groupContext="shape" transform="translate(132.794,12.1386) rotate(90)">
			<title>Sheet.2</title>
			<path d="M0 41.29 L28.35 41.29" class="st2"/>
		</g>
		<g id="shape3-6" v:mID="3" v:groupContext="shape" transform="translate(0.8,-29.1465)">
			<title>Sheet.3</title>
			<desc>31</desc>
			<v:textBlock v:margins="rect(0,0,0,0)" v:tabSpace="42.5197"/>
			<v:textRect cx="5.66929" cy="35.6157" width="11.34" height="11.3386"/>
			<rect x="0" y="29.9465" width="11.3386" height="11.3386" class="st3"/>
			<text x="1.23" y="38.02" class="st4" v:langID="1033"><v:paragraph v:horizAlign="1"/><v:tabList/>31</text>		</g>
		<g id="shape4-9" v:mID="4" v:groupContext="shape" transform="translate(170.879,-29.1465)">
			<title>Sheet.4</title>
			<desc>16</desc>
			<v:textBlock v:margins="rect(0,0,0,0)" v:tabSpace="42.5197"/>
			<v:textRect cx="5.66929" cy="35.6157" width="11.34" height="11.3386"/>
			<rect x="0" y="29.9465" width="11.3386" height="11.3386" class="st3"/>
			<text x="1.23" y="38.02" class="st4" v:langID="1033"><v:paragraph v:horizAlign="1"/><v:tabList/>16</text>		</g>
		<g id="shape5-12" v:mID="5" v:groupContext="shape" transform="translate(182.217,-29.1465)">
			<title>Sheet.5</title>
			<desc>15</desc>
			<v:textBlock v:margins="rect(0,0,0,0)" v:tabSpace="42.5197"/>
			<v:textRect cx="5.66929" cy="35.6157" width="11.34" height="11.3386"/>
			<rect x="0" y="29.9465" width="11.3386" height="11.3386" class="st3"/>
			<text x="1.23" y="38.02" class="st4" v:langID="1033"><v:paragraph v:horizAlign="1"/><v:tabList/>15</text>		</g>
		<g id="shape6-15" v:mID="6" v:groupContext="shape" transform="translate(306.942,-29.1465)">
			<title>Sheet.6</title>
			<desc>4</desc>
			<v:textBlock v:margins="rect(0,0,0,0)" v:tabSpace="42.5197"/>
			<v:textRect cx="5.66929" cy="35.6157" width="11.34" height="11.3386"/>
			<rect x="0" y="29.9465" width="11.3386" height="11.3386" class="st3"/>
			<text x="3.45" y="38.02" class="st4" v:langID="1033"><v:paragraph v:horizAlign="1"/><v:tabList/>4</text>		</g>
		<g id="shape7-18" v:mID="7" v:groupContext="shape" transform="translate(318.28,-29.1465)">
			<title>Sheet.7</title>
			<desc>3</desc>
			<v:textBlock v:margins="rect(0,0,0,0)" v:tabSpace="42.5197"/>
			<v:textRect cx="5.66929" cy="35.6157" width="11.34" height="11.3386"/>
			<rect x="0" y="29.9465" width="11.3386" height="11.3386" class="st3"/>
			<text x="3.45" y="38.02" class="st4" v:langID="1033"><v:paragraph v:horizAlign="1"/><v:tabList/>3</text>		</g>
		<g id="shape8-21" v:mID="8" v:groupContext="shape" transform="translate(352.296,-29.1465)">
			<title>Sheet.8</title>
			<desc>0</desc>
			<v:textBlock v:margins="rect(0,0,0,0)" v:tabSpace="42.5197"/>
			<v:textRect cx="5.66929" cy="35.6157" width="11.34" height="11.3386"/>
			<rect x="0" y="29.9465" width="11.3386" height="11.3386" class="st3"/>
			<text x="3.45" y="38.02" class="st4" v:langID="1033"><v:paragraph v:horizAlign="1"/><v:tabList/>0</text>		</g>
		<g id="shape9-24" v:mID="9" v:groupContext="shape" transform="translate(0.8,-9.30394)">
			<title>Sheet.9</title>
			<desc>Implementer</desc>
			<v:textBlock v:margins="rect(0,0,0,0)" v:tabSpace="42.5197"/>
			<v:textRect cx="45.3543" cy="35.6157" width="90.71" height="11.3386"/>
			<rect x="0" y="29.9465" width="90.7087" height="11.3386" class="st3"/>
			<text x="23.12" y="38.02" class="st4" v:langID="2057"><v:paragraph v:horizAlign="1"/><v:tabList/>Implementer</text>		</g>
		<g id="shape10-27" v:mID="10" v:groupContext="shape" transform="translate(359.565,12.1386) rotate(90)">
			<title>Sheet.10</title>
			<path d="M0 41.29 L28.35 41.29" class="st2"/>
		</g>
		<g id="shape11-30" v:mID="11" v:groupContext="shape" transform="translate(318.28,-9.30394)">
			<title>Sheet.11</title>
			<desc>Revision</desc>
			<v:textBlock v:margins="rect(0,0,0,0)" v:tabSpace="42.5197"/>
			<v:textRect cx="22.6772" cy="35.6157" width="45.36" height="11.3386"/>
			<rect x="0" y="29.9465" width="45.3543" height="11.3386" class="st3"/>
			<text x="7.34" y="38.02" class="st4" v:langID="2057"><v:paragraph v:horizAlign="1"/><v:tabList/>Revision</text>		</g>
		<g id="shape12-33" v:mID="12" v:groupContext="shape" transform="translate(182.217,-9.30394)">
			<title>Sheet.12</title>
			<desc>Partno</desc>
			<v:textBlock v:margins="rect(0,0,0,0)" v:tabSpace="42.5197"/>
			<v:textRect cx="68.0315" cy="35.6157" width="136.07" height="11.3386"/>
			<rect x="0" y="29.9465" width="136.063" height="11.3386" class="st3"/>
			<text x="56.24" y="38.02" class="st4" v:langID="2057"><v:paragraph v:horizAlign="1"/><v:tabList/>Partno</text>		</g>
		<g id="shape13-36" v:mID="13" v:groupContext="shape" transform="translate(359.565,0.8) rotate(90)">
			<title>Time division.55</title>
			<path d="M0 41.29 L11.34 41.29" class="st5"/>
		</g>
		<g id="shape14-39" v:mID="14" v:groupContext="shape" transform="translate(314.211,0.8) rotate(90)">
			<title>Time division.56</title>
			<path d="M0 41.29 L11.34 41.29" class="st5"/>
		</g>
		<g id="shape15-42" v:mID="15" v:groupContext="shape" transform="translate(268.857,0.8) rotate(90)">
			<title>Time division.57</title>
			<path d="M0 41.29 L11.34 41.29" class="st5"/>
		</g>
		<g id="shape16-45" v:mID="16" v:groupContext="shape" transform="translate(223.502,0.8) rotate(90)">
			<title>Time division.58</title>
			<path d="M0 41.29 L11.34 41.29" class="st5"/>
		</g>
		<g id="shape17-48" v:mID="17" v:groupContext="shape" transform="translate(178.148,0.8) rotate(90)">
			<title>Time division.59</title>
			<path d="M0 41.29 L11.34 41.29" class="st5"/>
		</g>
		<g id="shape18-51" v:mID="18" v:groupContext="shape" transform="translate(132.794,0.8) rotate(90)">
			<title>Time division.60</title>
			<path d="M0 41.29 L11.34 41.29" class="st5"/>
		</g>
		<g id="shape19-54" v:mID="19" v:groupContext="shape" transform="translate(87.4394,0.8) rotate(90)">
			<title>Time division.61</title>
			<path d="M0 41.29 L11.34 41.29" class="st5"/>
		</g>
		<g id="shape20-57" v:mID="20" v:groupContext="shape" transform="translate(404.92,0.8) rotate(90)">
			<title>Time division.62</title>
			<path d="M0 41.29 L11.34 41.29" class="st5"/>
		</g>
		<g id="shape21-60" v:mID="21" v:groupContext="shape" transform="translate(42.085,0.8) rotate(90)">
			<title>Time division.63</title>
			<path d="M0 41.29 L11.34 41.29" class="st5"/>
		</g>
		<g id="shape22-63" v:mID="22" v:groupContext="shape" transform="translate(80.1701,-29.1465)">
			<title>Sheet.22</title>
			<desc>24</desc>
			<v:textBlock v:margins="rect(0,0,0,0)" v:tabSpace="42.5197"/>
			<v:textRect cx="5.66929" cy="35.6157" width="11.34" height="11.3386"/>
			<rect x="0" y="29.9465" width="11.3386" height="11.3386" class="st3"/>
			<text x="1.23" y="38.02" class="st4" v:langID="1033"><v:paragraph v:horizAlign="1"/><v:tabList/>24</text>		</g>
		<g id="shape23-66" v:mID="23" v:groupContext="shape" transform="translate(91.5087,-29.1465)">
			<title>Sheet.23</title>
			<desc>23</desc>
			<v:textBlock v:margins="rect(0,0,0,0)" v:tabSpace="42.5197"/>
			<v:textRect cx="5.66929" cy="35.6157" width="11.34" height="11.3386"/>
			<rect x="0" y="29.9465" width="11.3386" height="11.3386" class="st3"/>
			<text x="1.23" y="38.02" class="st4" v:langID="1033"><v:paragraph v:horizAlign="1"/><v:tabList/>23</text>		</g>
		<g id="shape24-69" v:mID="24" v:groupContext="shape" transform="translate(125.524,-29.1465)">
			<title>Sheet.24</title>
			<desc>20</desc>
			<v:textBlock v:margins="rect(0,0,0,0)" v:tabSpace="42.5197"/>
			<v:textRect cx="5.66929" cy="35.6157" width="11.34" height="11.3386"/>
			<rect x="0" y="29.9465" width="11.3386" height="11.3386" class="st3"/>
			<text x="1.23" y="38.02" class="st4" v:langID="1033"><v:paragraph v:horizAlign="1"/><v:tabList/>20</text>		</g>
		<g id="shape25-72" v:mID="25" v:groupContext="shape" transform="translate(136.863,-29.1465)">
			<title>Sheet.25</title>
			<desc>19</desc>
			<v:textBlock v:margins="rect(0,0,0,0)" v:tabSpace="42.5197"/>
			<v:textRect cx="5.66929" cy="35.6157" width="11.34" height="11.3386"/>
			<rect x="0" y="29.9465" width="11.3386" height="11.3386" class="st3"/>
			<text x="1.23" y="38.02" class="st4" v:langID="1033"><v:paragraph v:horizAlign="1"/><v:tabList/>19</text>		</g>
		<g id="shape26-75" v:mID="26" v:groupContext="shape" transform="translate(178.148,12.1386) rotate(90)">
			<title>Sheet.26</title>
			<path d="M0 41.29 L28.35 41.29" class="st2"/>
		</g>
		<g id="shape27-78" v:mID="27" v:groupContext="shape" transform="translate(91.5087,-9.30394)">
			<title>Sheet.27</title>
			<desc>Variant</desc>
			<v:textBlock v:margins="rect(0,0,0,0)" v:tabSpace="42.5197"/>
			<v:textRect cx="22.6772" cy="35.6157" width="45.36" height="11.3386"/>
			<rect x="0" y="29.9465" width="45.3543" height="11.3386" class="st3"/>
			<text x="10" y="38.02" class="st4" v:langID="2057"><v:paragraph v:horizAlign="1"/><v:tabList/>Variant</text>		</g>
		<g id="shape28-81" v:mID="28" v:groupContext="shape" transform="translate(223.502,12.1386) rotate(90)">
			<title>Sheet.28</title>
			<path d="M0 41.29 L28.35 41.29" class="st2"/>
		</g>
		<g id="shape29-84" v:mID="29" v:groupContext="shape" transform="translate(136.863,-9.30394)">
			<title>Sheet.29</title>
			<desc>Constant</desc>
			<v:textBlock v:margins="rect(0,0,0,0)" v:tabSpace="42.5197"/>
			<v:textRect cx="22.6772" cy="35.6157" width="45.36" height="11.3386"/>
			<rect x="0" y="29.9465" width="45.3543" height="11.3386" class="st3"/>
			<text x="6.67" y="38.02" class="st4" v:langID="2057"><v:paragraph v:horizAlign="1"/><v:tabList/>Constant</text>		</g>
	</g>
</svg>
