<?xml version="1.0" encoding="UTF-8" standalone="no"?>
<!DOCTYPE svg PUBLIC "-//W3C//DTD SVG 1.0//EN" "http://www.w3.org/TR/2001/REC-SVG-20010904/DTD/svg10.dtd">
<!-- Generated by Microsoft Visio 11.0, SVG Export, v1.0 lsl.svg Page-1 -->
<svg xmlns="http://www.w3.org/2000/svg" xmlns:v="http://schemas.microsoft.com/visio/2003/SVGExtensions/" width="6.37189in"
		height="1.29761in" viewBox="0 0 458.776 93.4279" xml:space="preserve" color-interpolation-filters="sRGB" class="st13">
	<v:documentProperties v:langID="2057" v:metric="true" v:viewMarkup="false"/>

	<style type="text/css">
	<![CDATA[
		.st1 {fill:none;stroke:#ffffff;stroke-linecap:butt;stroke-width:0.5}
		.st2 {fill:#000000;font-family:Arial;font-size:0.833336em}
		.st3 {fill:none;stroke:#000000;stroke-linecap:butt;stroke-width:0.5}
		.st4 {fill:none;stroke:none;stroke-linecap:butt;stroke-width:0.75}
		.st5 {fill:#000000;font-family:Arial;font-size:1.53124em}
		.st6 {marker-end:url(#mrkr4-50);stroke:#000000;stroke-linecap:butt;stroke-width:0.5}
		.st7 {fill:#000000;fill-opacity:1;stroke:#000000;stroke-opacity:1;stroke-width:0.21739130434783}
		.st8 {fill:#ffffff;stroke:none;stroke-linecap:butt;stroke-width:7.2}
		.st9 {marker-end:url(#mrkr4-50);stroke:#000000;stroke-dasharray:4,2;stroke-linecap:butt;stroke-width:0.5}
		.st10 {fill:none;stroke:none;stroke-linecap:butt;stroke-width:0.5}
		.st11 {fill:#000000;font-family:Arial;font-size:0.666664em}
		.st12 {font-size:1em}
		.st13 {fill:none;fill-rule:evenodd;font-size:12;overflow:visible;stroke-linecap:square;stroke-miterlimit:3}
	]]>
	</style>

	<defs id="Markers">
		<g id="lend4">
			<path d="M 2 1 L 0 0 L 2 -1 L 2 1 " style="stroke:none"/>
		</g>
		<marker id="mrkr4-50" class="st7" v:arrowType="4" v:arrowSize="1" v:setback="9.2" refX="-9.2" orient="auto"
				markerUnits="strokeWidth">
			<use xlink:href="#lend4" transform="scale(-4.6,-4.6) "/>
		</marker>
	</defs>
	<g v:mID="0" v:index="1" v:groupContext="foregroundPage">
		<title>Page-1</title>
		<v:pageProperties v:drawingScale="0.0393701" v:pageScale="0.0393701" v:drawingUnits="24" v:shadowOffsetX="9"
				v:shadowOffsetY="-9"/>
		<v:layer v:name="Connector" v:index="0"/>
		<g id="group67-1" transform="translate(441.774,-48.8155) scale(-1,1)" v:mID="67" v:groupContext="group">
			<title>Sheet.67</title>
			<g id="shape38-2" v:mID="38" v:groupContext="shape" transform="translate(24.4616,-1.42109E-014) scale(-1,1)">
				<title>Sheet.38</title>
				<desc>1</desc>
				<v:textBlock v:margins="rect(0,0,0,0)" v:tabSpace="42.5197"/>
				<v:textRect cx="5.22371" cy="90.8029" width="10.45" height="5.25"/>
				<rect x="0" y="88.1779" width="10.4474" height="5.25" class="st1"/>
				<text x="-0" y="93.8" class="st2" v:langID="1033"><v:paragraph/><v:tabList/>1</text>			</g>
			<g id="shape39-5" v:mID="39" v:groupContext="shape" transform="translate(10.4474,-1.42109E-014) scale(-1,1)">
				<title>Sheet.39</title>
				<desc>0</desc>
				<v:textBlock v:margins="rect(0,0,0,0)" v:tabSpace="42.5197"/>
				<v:textRect cx="5.22371" cy="90.8029" width="10.45" height="5.25"/>
				<rect x="0" y="88.1779" width="10.4474" height="5.25" class="st1"/>
				<text x="-0" y="93.8" class="st2" v:langID="1033"><v:paragraph/><v:tabList/>0</text>			</g>
			<g id="shape40-8" v:mID="40" v:groupContext="shape" transform="translate(39.8103,-1.42109E-014) scale(-1,1)">
				<title>Sheet.40</title>
				<desc>2</desc>
				<v:textBlock v:margins="rect(0,0,0,0)" v:tabSpace="42.5197"/>
				<v:textRect cx="5.22371" cy="90.8029" width="10.45" height="5.25"/>
				<rect x="0" y="88.1779" width="10.4474" height="5.25" class="st1"/>
				<text x="-0" y="93.8" class="st2" v:langID="2057"><v:paragraph/><v:tabList/>2</text>			</g>
			<g id="shape41-11" v:mID="41" v:groupContext="shape" transform="translate(69.4616,-1.42109E-014) scale(-1,1)">
				<title>Sheet.41</title>
				<desc>4</desc>
				<v:textBlock v:margins="rect(0,0,0,0)" v:tabSpace="42.5197"/>
				<v:textRect cx="5.22371" cy="90.8029" width="10.45" height="5.25"/>
				<rect x="0" y="88.1779" width="10.4474" height="5.25" class="st1"/>
				<text x="-0" y="93.8" class="st2" v:langID="2057"><v:paragraph/><v:tabList/>4</text>			</g>
			<g id="shape42-14" v:mID="42" v:groupContext="shape" transform="translate(82.9616,-4.26326E-014) scale(-1,1)">
				<title>Sheet.42</title>
				<desc>5</desc>
				<v:textBlock v:margins="rect(0,0,0,0)" v:tabSpace="42.5197"/>
				<v:textRect cx="5.22371" cy="90.8029" width="10.45" height="5.25"/>
				<rect x="0" y="88.1779" width="10.4474" height="5.25" class="st1"/>
				<text x="0" y="93.8" class="st2" v:langID="2057"><v:paragraph/><v:tabList/>5</text>			</g>
			<g id="shape43-17" v:mID="43" v:groupContext="shape" transform="translate(53.7116,-1.42109E-014) scale(-1,1)">
				<title>Sheet.43</title>
				<desc>3</desc>
				<v:textBlock v:margins="rect(0,0,0,0)" v:tabSpace="42.5197"/>
				<v:textRect cx="5.22371" cy="90.8029" width="10.45" height="5.25"/>
				<rect x="0" y="88.1779" width="10.4474" height="5.25" class="st1"/>
				<text x="-0" y="93.8" class="st2" v:langID="2057"><v:paragraph/><v:tabList/>3</text>			</g>
		</g>
		<g id="group66-20" transform="translate(441.774,-16.5906) scale(-1,1)" v:mID="66" v:groupContext="group">
			<title>Sheet.66</title>
			<g id="shape37-21" v:mID="37" v:groupContext="shape" transform="translate(391.424,-32.2249)">
				<title>Sheet.37</title>
				<desc>31</desc>
				<v:textBlock v:margins="rect(0,0,0,0)" v:tabSpace="42.5197"/>
				<v:textRect cx="10.4474" cy="90.8029" width="20.9" height="5.25"/>
				<rect x="0" y="88.1779" width="20.8948" height="5.25" class="st1"/>
				<text x="-20.89" y="93.8" transform="scale(-1,1)" class="st2" v:langID="1033"><v:paragraph/><v:tabList/>31</text>			</g>
			<g id="shape44-24" v:mID="44" v:groupContext="shape" transform="translate(355.505,-22.7585)">
				<title>Sheet.44</title>
				<rect x="0" y="69.2451" width="14.8079" height="24.1828" class="st3"/>
			</g>
			<g id="shape45-26" v:mID="45" v:groupContext="shape" transform="translate(370.184,-22.7585)">
				<title>Sheet.45</title>
				<rect x="0" y="69.2451" width="14.8066" height="24.1828" class="st3"/>
			</g>
			<g id="shape46-28" v:mID="46" v:groupContext="shape" transform="translate(384.991,-22.7585)">
				<title>Sheet.46</title>
				<rect x="0" y="69.2451" width="14.8079" height="24.1828" class="st3"/>
			</g>
			<g id="shape47-30" v:mID="47" v:groupContext="shape" transform="translate(399.799,-22.7585)">
				<title>Sheet.47</title>
				<rect x="0" y="69.2451" width="14.8066" height="24.1828" class="st3"/>
			</g>
			<g id="shape48-32" v:mID="48" v:groupContext="shape" transform="translate(326.305,-22.7585)">
				<title>Sheet.48</title>
				<rect x="0" y="69.2451" width="14.8066" height="24.1828" class="st3"/>
			</g>
			<g id="shape49-34" v:mID="49" v:groupContext="shape" transform="translate(73.1946,-22.7585)">
				<title>Sheet.49</title>
				<rect x="0" y="69.2451" width="14.8071" height="24.1828" class="st3"/>
			</g>
			<g id="shape50-36" v:mID="50" v:groupContext="shape" transform="translate(44.8482,-22.7585)">
				<title>Sheet.50</title>
				<rect x="0" y="69.2451" width="14.8071" height="24.1828" class="st3"/>
			</g>
			<g id="shape51-38" v:mID="51" v:groupContext="shape" transform="translate(14.7675,-22.7585)">
				<title>Sheet.51</title>
				<rect x="0" y="69.2451" width="14.8071" height="24.1828" class="st3"/>
			</g>
			<g id="shape53-40" v:mID="53" v:groupContext="shape">
				<title>Sheet.53</title>
				<desc>...</desc>
				<v:textBlock v:margins="rect(0,0,0,0)" v:tabSpace="42.5197"/>
				<v:textRect cx="199.843" cy="88.8342" width="399.69" height="9.1875"/>
				<rect x="0" y="84.2404" width="399.685" height="9.1875" class="st4"/>
				<text x="-207.49" y="94.35" transform="scale(-1,1)" class="st5" v:langID="1033"><v:paragraph v:horizAlign="1"/><v:tabList/>...</text>			</g>
			<g id="shape54-43" v:mID="54" v:groupContext="shape" transform="translate(0,-22.7585)">
				<title>Sheet.54</title>
				<rect x="0" y="69.2451" width="414.605" height="24.1828" class="st3"/>
			</g>
			<g id="shape55-45" v:mID="55" v:groupContext="shape" v:layerMember="0" transform="translate(22.171,-15.6719)">
				<title>Dynamic connector</title>
				<path d="M0 86.34 L0 109.46 L45.35 109.46 L45.35 90.94" class="st6"/>
			</g>
			<g id="shape56-51" v:mID="56" v:groupContext="shape" v:layerMember="0" transform="translate(6.89997,-15.49)">
				<title>Dynamic connector.16</title>
				<path d="M0 86.34 L0 116.87 L45 116.87 L45 90.94" class="st6"/>
			</g>
			<g id="shape57-56" v:mID="57" v:groupContext="shape" v:layerMember="0" transform="translate(37.7616,-15.6719)">
				<title>Dynamic connector.13</title>
				<path d="M0 86.34 L0 101.28 L45.35 101.28 L45.35 90.94" class="st6"/>
			</g>
			<g id="shape58-61" v:mID="58" v:groupContext="shape" v:layerMember="0" transform="translate(30.3206,-71.6944)">
				<title>Dynamic connector.26</title>
				<desc>0</desc>
				<v:textBlock v:margins="rect(2,2,2,2)" v:tabSpace="42.5197"/>
				<v:textRect cx="7.08661" cy="105.804" width="50" height="16.0036"/>
				<path d="M7.09 93.43 L7.09 113.58" class="st6"/>
				<rect v:rectContext="textBkgnd" x="4.60569" y="99.8046" width="5.56155" height="12.0001" class="st8"/>
				<text x="-9.87" y="108.8" transform="scale(-1,1)" class="st2" v:langID="2057"><v:paragraph v:horizAlign="1"/><v:tabList/>0</text>			</g>
			<g id="shape59-68" v:mID="59" v:groupContext="shape" v:layerMember="0" transform="translate(30.297,-71.6944)">
				<title>Dynamic connector.27</title>
				<desc>0</desc>
				<v:textBlock v:margins="rect(2,2,2,2)" v:tabSpace="42.5197"/>
				<v:textRect cx="-7.08661" cy="105.804" width="50" height="16.0036"/>
				<path d="M-7.09 93.43 L-7.09 113.58" class="st6"/>
				<rect v:rectContext="textBkgnd" x="-9.56754" y="99.8046" width="5.56155" height="12.0001" class="st8"/>
				<text x="4.31" y="108.8" transform="scale(-1,1)" class="st2" v:langID="2057"><v:paragraph v:horizAlign="1"/><v:tabList/>0</text>			</g>
			<g id="shape60-75" v:mID="60" v:groupContext="shape" v:layerMember="0" transform="translate(15.0844,-71.6944)">
				<title>Dynamic connector.28</title>
				<desc>0</desc>
				<v:textBlock v:margins="rect(2,2,2,2)" v:tabSpace="42.5197"/>
				<v:textRect cx="-7.08661" cy="105.804" width="50" height="16.0036"/>
				<path d="M-7.09 93.43 L-7.09 113.58" class="st6"/>
				<rect v:rectContext="textBkgnd" x="-9.56754" y="99.8046" width="5.56155" height="12.0001" class="st8"/>
				<text x="4.31" y="108.8" transform="scale(-1,1)" class="st2" v:langID="2057"><v:paragraph v:horizAlign="1"/><v:tabList/>0</text>			</g>
			<g id="shape62-82" v:mID="62" v:groupContext="shape" v:layerMember="0" transform="translate(348.155,-15.6719)">
				<title>Dynamic connector.23</title>
				<path d="M0 86.34 L0 109.46 L43.94 109.46 L43.94 90.94" class="st6"/>
			</g>
			<g id="shape63-87" v:mID="63" v:groupContext="shape" v:layerMember="0" transform="translate(362.328,-15.6719)">
				<title>Dynamic connector.17</title>
				<path d="M0 86.34 L0 118.89 L44.5 118.89 L44.5 90.94" class="st6"/>
			</g>
			<g id="shape64-92" v:mID="64" v:groupContext="shape" v:layerMember="0" transform="translate(332.659,-15.6719)">
				<title>Dynamic connector.18</title>
				<path d="M0 86.34 L0 101.26 L41.01 101.26 L41.01 90.94" class="st6"/>
			</g>
		</g>
		<g id="shape52-97" v:mID="52" v:groupContext="shape" transform="translate(18.8547,-39.2487) scale(-1,1)">
			<title>Sheet.52</title>
			<rect x="0" y="69.2451" width="14.8819" height="24.1828" class="st3"/>
		</g>
		<g id="shape61-99" v:mID="61" v:groupContext="shape" v:layerMember="0" transform="translate(64.4824,-70.5683)">
			<title>Dynamic connector.29</title>
			<path d="M0 100.46 L0 79.37 L-53.01 79.37 L-53.01 95.96" class="st9"/>
		</g>
		<g id="shape65-104" v:mID="65" v:groupContext="shape" transform="translate(22.3276,-18.0642) scale(-1,1)">
			<title>Sheet.65</title>
			<desc>Carry Flag</desc>
			<v:textBlock v:margins="rect(1,1,1,1)" v:tabSpace="42.5197"/>
			<v:textRect cx="10.9138" cy="82.8262" width="21.83" height="21.2035"/>
			<rect x="0" y="72.2244" width="21.8276" height="21.2035" class="st10"/>
			<text x="-20.68" y="80.43" transform="scale(-1,1)" class="st11" v:langID="2057"><v:paragraph v:horizAlign="1"/><v:tabList/>Carry<v:newlineChar/><tspan
						x="-18.68" dy="1.2em" class="st12">Flag</tspan></text>		</g>
	</g>
</svg>
