<?xml version="1.0" encoding="UTF-8" standalone="no"?>
<!DOCTYPE svg PUBLIC "-//W3C//DTD SVG 1.0//EN" "http://www.w3.org/TR/2001/REC-SVG-20010904/DTD/svg10.dtd">
<!-- Generated by Microsoft Visio 11.0, SVG Export, v1.0 system_control_register_bit_assignments.svg Page-1 -->
<svg xmlns="http://www.w3.org/2000/svg" xmlns:v="http://schemas.microsoft.com/visio/2003/SVGExtensions/" width="5.06159in"
		height="1.47892in" viewBox="0 0 364.435 106.482" xml:space="preserve" color-interpolation-filters="sRGB" class="st8">
	<v:documentProperties v:langID="1033" v:metric="true" v:viewMarkup="false"/>

	<style type="text/css">
	<![CDATA[
		.st1 {fill:none;stroke:#000000;stroke-linecap:butt;stroke-width:0.8}
		.st2 {fill:none;stroke:none;stroke-linecap:butt;stroke-width:0.8}
		.st3 {fill:#ffffff;stroke:none;stroke-linecap:butt;stroke-width:7.2}
		.st4 {fill:#000000;font-family:Arial;font-size:0.666664em}
		.st5 {stroke:#000000;stroke-linecap:butt;stroke-width:0.8}
		.st6 {stroke:#000000;stroke-dasharray:0.25,1;stroke-linecap:butt;stroke-width:0.25}
		.st7 {stroke:#000000;stroke-linecap:butt;stroke-width:0.5}
		.st8 {fill:none;fill-rule:evenodd;font-size:12;overflow:visible;stroke-linecap:square;stroke-miterlimit:3}
	]]>
	</style>

	<g v:mID="0" v:index="1" v:groupContext="foregroundPage">
		<title>Page-1</title>
		<v:pageProperties v:drawingScale="0.0393701" v:pageScale="0.0393701" v:drawingUnits="24" v:shadowOffsetX="8.50394"
				v:shadowOffsetY="-8.50394"/>
		<g id="shape1-1" v:mID="1" v:groupContext="shape" transform="translate(0.8,-65.9969)">
			<title>Sheet.1</title>
			<rect x="0" y="78.1354" width="362.835" height="28.3465" class="st1"/>
		</g>
		<g id="shape2-3" v:mID="2" v:groupContext="shape" transform="translate(0.8,-94.3433)">
			<title>Sheet.2</title>
			<desc>31</desc>
			<v:textBlock v:margins="rect(1,0,1,0)" v:tabSpace="42.5197"/>
			<v:textRect cx="5.66929" cy="100.813" width="11.34" height="11.3386"/>
			<rect x="0" y="95.1433" width="11.3386" height="11.3386" class="st2"/>
			<rect v:rectContext="textBkgnd" x="0.850891" y="96.0126" width="8.89838" height="9.59985" class="st3"/>
			<text x="1.23" y="103.21" class="st4" v:langID="1033"><v:paragraph v:horizAlign="1"/><v:tabList/>31</text>		</g>
		<g id="shape3-7" v:mID="3" v:groupContext="shape" transform="translate(306.942,-94.3433)">
			<title>Sheet.3</title>
			<desc>4</desc>
			<v:textBlock v:margins="rect(1,0,1,0)" v:tabSpace="42.5197"/>
			<v:textRect cx="5.66929" cy="100.813" width="11.34" height="11.3386"/>
			<rect x="0" y="95.1433" width="11.3386" height="11.3386" class="st2"/>
			<rect v:rectContext="textBkgnd" x="3.07535" y="96.0126" width="4.44919" height="9.59985" class="st3"/>
			<text x="3.45" y="103.21" class="st4" v:langID="1033"><v:paragraph v:horizAlign="1"/><v:tabList/>4</text>		</g>
		<g id="shape4-11" v:mID="4" v:groupContext="shape" transform="translate(318.28,-94.3433)">
			<title>Sheet.4</title>
			<desc>3</desc>
			<v:textBlock v:margins="rect(1,0,1,0)" v:tabSpace="42.5197"/>
			<v:textRect cx="5.66929" cy="100.813" width="11.34" height="11.3386"/>
			<rect x="0" y="95.1433" width="11.3386" height="11.3386" class="st2"/>
			<rect v:rectContext="textBkgnd" x="3.07535" y="96.0126" width="4.44919" height="9.59985" class="st3"/>
			<text x="3.45" y="103.21" class="st4" v:langID="1033"><v:paragraph v:horizAlign="1"/><v:tabList/>3</text>		</g>
		<g id="shape5-15" v:mID="5" v:groupContext="shape" transform="translate(329.619,-94.3433)">
			<title>Sheet.5</title>
			<desc>2</desc>
			<v:textBlock v:margins="rect(1,0,1,0)" v:tabSpace="42.5197"/>
			<v:textRect cx="5.66929" cy="100.813" width="11.34" height="11.3386"/>
			<rect x="0" y="95.1433" width="11.3386" height="11.3386" class="st2"/>
			<rect v:rectContext="textBkgnd" x="3.07535" y="96.0126" width="4.44919" height="9.59985" class="st3"/>
			<text x="3.45" y="103.21" class="st4" v:langID="1033"><v:paragraph v:horizAlign="1"/><v:tabList/>2</text>		</g>
		<g id="shape6-19" v:mID="6" v:groupContext="shape" transform="translate(340.957,-94.3433)">
			<title>Sheet.6</title>
			<desc>1</desc>
			<v:textBlock v:margins="rect(1,0,1,0)" v:tabSpace="42.5197"/>
			<v:textRect cx="5.66929" cy="100.813" width="11.34" height="11.3386"/>
			<rect x="0" y="95.1433" width="11.3386" height="11.3386" class="st2"/>
			<rect v:rectContext="textBkgnd" x="3.07535" y="96.0126" width="4.44919" height="9.59985" class="st3"/>
			<text x="3.45" y="103.21" class="st4" v:langID="1033"><v:paragraph v:horizAlign="1"/><v:tabList/>1</text>		</g>
		<g id="shape7-23" v:mID="7" v:groupContext="shape" transform="translate(352.296,-94.3433)">
			<title>Sheet.7</title>
			<desc>0</desc>
			<v:textBlock v:margins="rect(1,0,1,0)" v:tabSpace="42.5197"/>
			<v:textRect cx="5.66929" cy="100.813" width="11.34" height="11.3386"/>
			<rect x="0" y="95.1433" width="11.3386" height="11.3386" class="st2"/>
			<rect v:rectContext="textBkgnd" x="3.07535" y="96.0126" width="4.44919" height="9.59985" class="st3"/>
			<text x="3.45" y="103.21" class="st4" v:langID="1033"><v:paragraph v:horizAlign="1"/><v:tabList/>0</text>		</g>
		<g id="shape8-27" v:mID="8" v:groupContext="shape" transform="translate(0.8,-74.5008)">
			<title>Sheet.8</title>
			<desc>Reserved</desc>
			<v:textBlock v:margins="rect(1,0,1,0)" v:tabSpace="42.5197"/>
			<v:textRect cx="158.74" cy="100.813" width="317.49" height="11.3386"/>
			<rect x="0" y="95.1433" width="317.48" height="11.3386" class="st2"/>
			<rect v:rectContext="textBkgnd" x="141.256" y="96.0126" width="34.2386" height="9.59985" class="st3"/>
			<text x="141.63" y="103.21" class="st4" v:langID="1033"><v:paragraph v:horizAlign="1"/><v:tabList/>Reserved</text>		</g>
		<g id="shape9-31" v:mID="9" v:groupContext="shape" transform="translate(424.762,12.1386) rotate(90)">
			<title>Sheet.9</title>
			<path d="M0 106.48 L28.35 106.48" class="st5"/>
		</g>
		<g id="shape10-34" v:mID="10" v:groupContext="shape" transform="translate(436.101,12.1386) rotate(90)">
			<title>Sheet.10</title>
			<path d="M0 106.48 L28.35 106.48" class="st5"/>
		</g>
		<g id="shape11-37" v:mID="11" v:groupContext="shape" transform="translate(458.778,12.1386) rotate(90)">
			<title>Sheet.11</title>
			<path d="M0 106.48 L28.35 106.48" class="st5"/>
		</g>
		<g id="shape12-40" v:mID="12" v:groupContext="shape" transform="translate(447.439,12.1386) rotate(90)">
			<title>Sheet.12</title>
			<path d="M0 106.48 L28.35 106.48" class="st5"/>
		</g>
		<g id="group13-43" transform="translate(0.8,-94.3433)" v:mID="13" v:groupContext="group">
			<title>Sheet.13</title>
			<g id="shape14-44" v:mID="14" v:groupContext="shape" transform="translate(423.962,95.1433) rotate(90)">
				<title>Time division.36</title>
				<path d="M0 106.48 L11.34 106.48" class="st6"/>
			</g>
			<g id="shape15-47" v:mID="15" v:groupContext="shape" transform="translate(378.608,95.1433) rotate(90)">
				<title>Time division.103</title>
				<path d="M0 106.48 L11.34 106.48" class="st6"/>
			</g>
			<g id="shape16-50" v:mID="16" v:groupContext="shape" transform="translate(333.254,95.1433) rotate(90)">
				<title>Time division.104</title>
				<path d="M0 106.48 L11.34 106.48" class="st6"/>
			</g>
			<g id="shape17-53" v:mID="17" v:groupContext="shape" transform="translate(287.899,95.1433) rotate(90)">
				<title>Time division.105</title>
				<path d="M0 106.48 L11.34 106.48" class="st6"/>
			</g>
			<g id="shape18-56" v:mID="18" v:groupContext="shape" transform="translate(242.545,95.1433) rotate(90)">
				<title>Time division.106</title>
				<path d="M0 106.48 L11.34 106.48" class="st6"/>
			</g>
			<g id="shape19-59" v:mID="19" v:groupContext="shape" transform="translate(197.191,95.1433) rotate(90)">
				<title>Time division.107</title>
				<path d="M0 106.48 L11.34 106.48" class="st6"/>
			</g>
			<g id="shape20-62" v:mID="20" v:groupContext="shape" transform="translate(151.836,95.1433) rotate(90)">
				<title>Time division.108</title>
				<path d="M0 106.48 L11.34 106.48" class="st6"/>
			</g>
			<g id="shape21-65" v:mID="21" v:groupContext="shape" transform="translate(469.317,95.1433) rotate(90)">
				<title>Time division.5</title>
				<path d="M0 106.48 L11.34 106.48" class="st6"/>
			</g>
			<g id="shape22-68" v:mID="22" v:groupContext="shape" transform="translate(106.482,95.1433) rotate(90)">
				<title>Time division.109</title>
				<path d="M0 106.48 L11.34 106.48" class="st6"/>
			</g>
		</g>
		<g id="shape23-71" v:mID="23" v:groupContext="shape" transform="translate(255.918,-34.8157)">
			<title>Sheet.23</title>
			<desc>Reserved</desc>
			<v:textBlock v:margins="rect(1,2,1,2)" v:tabSpace="42.5197"/>
			<v:textRect cx="22.6772" cy="100.813" width="45.36" height="11.3386"/>
			<rect x="0" y="95.1433" width="45.3543" height="11.3386" class="st2"/>
			<rect v:rectContext="textBkgnd" x="8.7366" y="96.0126" width="34.2386" height="9.59985" class="st3"/>
			<text x="9.11" y="103.21" class="st4" v:langID="2057"><v:paragraph v:horizAlign="2"/><v:tabList/>Reserved</text>		</g>
		<g id="shape24-75" v:mID="24" v:groupContext="shape" transform="translate(227.572,-23.4772)">
			<title>Sheet.24</title>
			<desc>SLEEPDEEP</desc>
			<v:textBlock v:margins="rect(1,2,1,2)" v:tabSpace="42.5197"/>
			<v:textRect cx="36.8504" cy="100.813" width="73.71" height="11.3386"/>
			<rect x="0" y="95.1433" width="73.7008" height="11.3386" class="st2"/>
			<rect v:rectContext="textBkgnd" x="23.748" y="96.0126" width="47.5771" height="9.59985" class="st3"/>
			<text x="24.12" y="103.21" class="st4" v:langID="2057"><v:paragraph v:horizAlign="2"/><v:tabList/>SLEEPDEEP</text>		</g>
		<g id="shape25-79" v:mID="25" v:groupContext="shape" transform="translate(227.572,-12.1386)">
			<title>Sheet.25</title>
			<desc>SLEEPONEXIT</desc>
			<v:textBlock v:margins="rect(1,2,1,2)" v:tabSpace="42.5197"/>
			<v:textRect cx="36.8504" cy="100.813" width="73.71" height="11.3386"/>
			<rect x="0" y="95.1433" width="73.7008" height="11.3386" class="st2"/>
			<rect v:rectContext="textBkgnd" x="15.7519" y="96.0126" width="55.5732" height="9.59985" class="st3"/>
			<text x="16.13" y="103.21" class="st4" v:langID="2057"><v:paragraph v:horizAlign="2"/><v:tabList/>SLEEPONEXIT</text>		</g>
		<g id="shape26-83" v:mID="26" v:groupContext="shape" transform="translate(227.572,-0.8)">
			<title>Sheet.26</title>
			<desc>Reserved</desc>
			<v:textBlock v:margins="rect(1,2,1,2)" v:tabSpace="42.5197"/>
			<v:textRect cx="36.8504" cy="100.813" width="73.71" height="11.3386"/>
			<rect x="0" y="95.1433" width="73.7008" height="11.3386" class="st2"/>
			<rect v:rectContext="textBkgnd" x="37.0865" y="96.0126" width="34.2386" height="9.59985" class="st3"/>
			<text x="37.46" y="103.21" class="st4" v:langID="2057"><v:paragraph v:horizAlign="2"/><v:tabList/>Reserved</text>		</g>
		<g id="shape27-87" v:mID="27" v:groupContext="shape" transform="translate(301.272,-40.485)">
			<title>Sheet.27</title>
			<path d="M22.68 83.8 L22.68 106.48 L0 106.48" class="st7"/>
		</g>
		<g id="shape28-90" v:mID="28" v:groupContext="shape" transform="translate(301.272,-29.1465)">
			<title>Sheet.28</title>
			<path d="M34.02 72.47 L34.02 106.48 L0 106.48" class="st7"/>
		</g>
		<g id="shape29-93" v:mID="29" v:groupContext="shape" transform="translate(301.272,-17.8079)">
			<title>Sheet.29</title>
			<path d="M45.35 61.13 L45.35 106.48 L0 106.48" class="st7"/>
		</g>
		<g id="shape30-96" v:mID="30" v:groupContext="shape" transform="translate(301.272,-6.46929)">
			<title>Sheet.30</title>
			<path d="M56.69 49.79 L56.69 106.48 L0 106.48" class="st7"/>
		</g>
		<g id="shape31-99" v:mID="31" v:groupContext="shape" transform="translate(413.424,12.4929) rotate(90)">
			<title>Sheet.31</title>
			<path d="M0 106.48 L28.35 106.48" class="st5"/>
		</g>
		<g id="shape32-102" v:mID="32" v:groupContext="shape" transform="translate(298.438,-94.3433)">
			<title>Sheet.32</title>
			<desc>5</desc>
			<v:textBlock v:margins="rect(1,0,1,0)" v:tabSpace="42.5197"/>
			<v:textRect cx="5.66929" cy="100.813" width="11.34" height="11.3386"/>
			<rect x="0" y="95.1433" width="11.3386" height="11.3386" class="st2"/>
			<rect v:rectContext="textBkgnd" x="3.07535" y="96.0126" width="4.44919" height="9.59985" class="st3"/>
			<text x="3.45" y="103.21" class="st4" v:langID="2057"><v:paragraph v:horizAlign="1"/><v:tabList/>5</text>		</g>
		<g id="shape33-106" v:mID="33" v:groupContext="shape" transform="translate(301.272,-51.8236)">
			<title>Sheet.33</title>
			<path d="M11.34 95.14 L11.34 106.48 L0 106.48" class="st7"/>
		</g>
		<g id="shape34-109" v:mID="34" v:groupContext="shape" transform="translate(227.572,-46.1543)">
			<title>Sheet.34</title>
			<desc>SEVONPEND</desc>
			<v:textBlock v:margins="rect(1,2,1,2)" v:tabSpace="42.5197"/>
			<v:textRect cx="36.8504" cy="100.813" width="73.71" height="11.3386"/>
			<rect x="0" y="95.1433" width="73.7008" height="11.3386" class="st2"/>
			<rect v:rectContext="textBkgnd" x="21.0913" y="96.0126" width="50.2339" height="9.59985" class="st3"/>
			<text x="21.47" y="103.21" class="st4" v:langID="2057"><v:paragraph v:horizAlign="2"/><v:tabList/>SEVONPEND</text>		</g>
	</g>
</svg>
