<?xml version="1.0" encoding="UTF-8" standalone="no"?>
<!DOCTYPE svg PUBLIC "-//W3C//DTD SVG 1.0//EN" "http://www.w3.org/TR/2001/REC-SVG-20010904/DTD/svg10.dtd">
<!-- Generated by Microsoft Visio 11.0, SVG Export, v1.0 systick_control_and_status_register.svg Page-1 -->
<svg xmlns="http://www.w3.org/2000/svg" xmlns:v="http://schemas.microsoft.com/visio/2003/SVGExtensions/" width="5.06159in"
		height="1.11278in" viewBox="0 0 364.435 80.1201" xml:space="preserve" color-interpolation-filters="sRGB" class="st11">
	<v:documentProperties v:langID="1033" v:viewMarkup="false"/>

	<style type="text/css">
	<![CDATA[
		.st1 {fill:none;stroke:none;stroke-linecap:round;stroke-linejoin:round;stroke-width:0.0169691}
		.st2 {fill:#000000;font-family:Arial;font-size:0.666664em}
		.st3 {fill:#ffffff;visibility:hidden}
		.st4 {stroke:#000000;stroke-linecap:butt;stroke-width:0.8}
		.st5 {stroke:#000000;stroke-dasharray:0.25,0.5;stroke-linecap:butt;stroke-width:0.25}
		.st6 {fill:none;stroke:none;stroke-linecap:butt;stroke-width:0.5}
		.st7 {fill:#ffffff;stroke:none;stroke-linecap:butt;stroke-width:7.2}
		.st8 {fill:none;stroke:none;stroke-width:1}
		.st9 {fill:none}
		.st10 {stroke:#000000;stroke-linecap:butt;stroke-width:0.5}
		.st11 {fill:none;fill-rule:evenodd;font-size:12;overflow:visible;stroke-linecap:square;stroke-miterlimit:3}
	]]>
	</style>

	<g v:mID="0" v:index="1" v:groupContext="foregroundPage">
		<title>Page-1</title>
		<v:pageProperties v:drawingScale="0.0393701" v:pageScale="0.0393701" v:drawingUnits="24" v:shadowOffsetX="8.50394"
				v:shadowOffsetY="-8.50394"/>
		<g id="group71-1" transform="translate(0.8,-40.185)" v:mID="71" v:groupContext="group">
			<title>32-bit Register</title>
			<g id="shape72-2" v:mID="72" v:groupContext="shape" transform="translate(351.496,-1.42109E-014)">
				<title>Sheet.72</title>
				<desc>0</desc>
				<v:textBlock v:margins="rect(1,1,1,1)" v:tabSpace="42.5197"/>
				<v:textRect cx="5.66929" cy="65.9469" width="11.34" height="28.3465"/>
				<rect x="0" y="51.7736" width="11.3386" height="28.3465" class="st1"/>
				<text x="3.45" y="68.35" class="st2" v:langID="2057"><v:paragraph v:horizAlign="1"/><v:tabList/>0</text>			</g>
			<g id="shape73-5" v:mID="73" v:groupContext="shape">
				<title>Sheet.73</title>
				<desc>Reserved</desc>
				<v:textBlock v:margins="rect(1,1,1,1)" v:tabSpace="42.5197"/>
				<v:textRect cx="85.0394" cy="65.9469" width="170.08" height="28.3465"/>
				<rect x="0" y="51.7736" width="170.079" height="28.3465" class="st1"/>
				<text x="67.93" y="68.35" class="st2" v:langID="1033"><v:paragraph v:horizAlign="1"/><v:tabList/>Reserved</text>			</g>
			<g id="shape74-8" v:mID="74" v:groupContext="shape" transform="translate(8.49321E-014,-28.3465)">
				<title>Sheet.74</title>
				<desc>31</desc>
				<v:textBlock v:margins="rect(0,0,0,0)" v:tabSpace="42.5197"/>
				<v:textRect cx="5.66929" cy="74.4508" width="11.34" height="11.3386"/>
				<text x="1.23" y="76.85" class="st2" v:langID="2057"><v:paragraph v:horizAlign="1"/><v:tabList/>31</text>			</g>
			<g id="shape88-10" v:mID="88" v:groupContext="shape" transform="translate(158.74,-28.3465)">
				<title>Sheet.88</title>
				<desc>17</desc>
				<v:textBlock v:margins="rect(0,0,0,0)" v:tabSpace="42.5197"/>
				<v:textRect cx="5.66929" cy="74.4508" width="11.34" height="11.3386"/>
				<text x="1.23" y="76.85" class="st2" v:langID="2057"><v:paragraph v:horizAlign="1"/><v:tabList/>17</text>			</g>
			<g id="shape89-12" v:mID="89" v:groupContext="shape" transform="translate(170.079,-28.3465)">
				<title>Sheet.89</title>
				<desc>16</desc>
				<v:textBlock v:margins="rect(0,0,0,0)" v:tabSpace="42.5197"/>
				<v:textRect cx="5.66929" cy="74.4508" width="11.34" height="11.3386"/>
				<text x="1.23" y="76.85" class="st2" v:langID="2057"><v:paragraph v:horizAlign="1"/><v:tabList/>16</text>			</g>
			<g id="shape90-14" v:mID="90" v:groupContext="shape" transform="translate(181.417,-28.3465)">
				<title>Sheet.90</title>
				<desc>15</desc>
				<v:textBlock v:margins="rect(0,0,0,0)" v:tabSpace="42.5197"/>
				<v:textRect cx="5.66929" cy="74.4508" width="11.34" height="11.3386"/>
				<text x="1.23" y="76.85" class="st2" v:langID="2057"><v:paragraph v:horizAlign="1"/><v:tabList/>15</text>			</g>
			<g id="shape102-16" v:mID="102" v:groupContext="shape" transform="translate(317.48,-28.3465)">
				<title>Sheet.102</title>
				<desc>3</desc>
				<v:textBlock v:margins="rect(0,0,0,0)" v:tabSpace="42.5197"/>
				<v:textRect cx="5.66929" cy="74.4508" width="11.34" height="11.3386"/>
				<text x="3.45" y="76.85" class="st2" v:langID="2057"><v:paragraph v:horizAlign="1"/><v:tabList/>3</text>			</g>
			<g id="shape103-18" v:mID="103" v:groupContext="shape" transform="translate(328.819,-28.3465)">
				<title>Sheet.103</title>
				<desc>2</desc>
				<v:textBlock v:margins="rect(0,0,0,0)" v:tabSpace="42.5197"/>
				<v:textRect cx="5.66929" cy="74.4508" width="11.34" height="11.3386"/>
				<text x="3.45" y="76.85" class="st2" v:langID="2057"><v:paragraph v:horizAlign="1"/><v:tabList/>2</text>			</g>
			<g id="shape104-20" v:mID="104" v:groupContext="shape" transform="translate(340.157,-28.3465)">
				<title>Sheet.104</title>
				<desc>1</desc>
				<v:textBlock v:margins="rect(0,0,0,0)" v:tabSpace="42.5197"/>
				<v:textRect cx="5.66929" cy="74.4508" width="11.34" height="11.3386"/>
				<text x="3.45" y="76.85" class="st2" v:langID="2057"><v:paragraph v:horizAlign="1"/><v:tabList/>1</text>			</g>
			<g id="shape105-22" v:mID="105" v:groupContext="shape" transform="translate(351.496,-28.3465)">
				<title>Sheet.105</title>
				<desc>0</desc>
				<v:textBlock v:margins="rect(0,0,0,0)" v:tabSpace="42.5197"/>
				<v:textRect cx="5.66929" cy="74.4508" width="11.34" height="11.3386"/>
				<text x="3.45" y="76.85" class="st2" v:langID="2057"><v:paragraph v:horizAlign="1"/><v:tabList/>0</text>			</g>
			<g id="shape133-24" v:mID="133" v:groupContext="shape" transform="translate(181.417,-1.42109E-014)">
				<title>Sheet.133</title>
				<desc>Reserved</desc>
				<v:textBlock v:margins="rect(1,1,1,1)" v:tabSpace="42.5197"/>
				<v:textRect cx="73.7008" cy="65.9469" width="147.41" height="28.3465"/>
				<rect x="0" y="51.7736" width="147.402" height="28.3465" class="st1"/>
				<text x="56.58" y="68.35" class="st2" v:langID="1033"><v:paragraph v:horizAlign="1"/><v:tabList/>Reserved</text>			</g>
			<g id="shape134-27" v:mID="134" v:groupContext="shape" transform="translate(328.819,-1.42109E-014)">
				<title>Sheet.134</title>
				<desc>0</desc>
				<v:textBlock v:margins="rect(1,1,1,1)" v:tabSpace="42.5197"/>
				<v:textRect cx="5.66929" cy="65.9469" width="11.34" height="28.3465"/>
				<rect x="0" y="51.7736" width="11.3386" height="28.3465" class="st1"/>
				<text x="3.45" y="68.35" class="st2" v:langID="2057"><v:paragraph v:horizAlign="1"/><v:tabList/>0</text>			</g>
			<g id="shape135-30" v:mID="135" v:groupContext="shape" transform="translate(340.157,-1.42109E-014)">
				<title>Sheet.135</title>
				<desc>0</desc>
				<v:textBlock v:margins="rect(1,1,1,1)" v:tabSpace="42.5197"/>
				<v:textRect cx="5.66929" cy="65.9469" width="11.34" height="28.3465"/>
				<rect x="0" y="51.7736" width="11.3386" height="28.3465" class="st1"/>
				<text x="3.45" y="68.35" class="st2" v:langID="2057"><v:paragraph v:horizAlign="1"/><v:tabList/>0</text>			</g>
			<g id="shape136-33" v:mID="136" v:groupContext="shape">
				<title>Sheet.136</title>
				<rect x="0" y="51.7736" width="362.835" height="28.3465" class="st3"/>
				<rect x="0" y="51.7736" width="362.835" height="28.3465" class="st4"/>
			</g>
			<g id="shape151-36" v:mID="151" v:groupContext="shape" transform="translate(170.079,-1.42109E-014)">
				<title>Sheet.151</title>
				<v:textBlock v:margins="rect(1,1,1,1)" v:tabSpace="42.5197"/>
				<path d="M0 51.77 L0 80.12" class="st4"/>
			</g>
			<g id="shape152-39" v:mID="152" v:groupContext="shape" transform="translate(181.417,-1.42109E-014)">
				<title>Sheet.152</title>
				<v:textBlock v:margins="rect(1,1,1,1)" v:tabSpace="42.5197"/>
				<path d="M0 51.77 L0 80.12" class="st4"/>
			</g>
			<g id="shape165-42" v:mID="165" v:groupContext="shape" transform="translate(328.819,-1.42109E-014)">
				<title>Sheet.165</title>
				<v:textBlock v:margins="rect(1,1,1,1)" v:tabSpace="42.5197"/>
				<path d="M0 51.77 L0 80.12" class="st4"/>
			</g>
			<g id="shape166-45" v:mID="166" v:groupContext="shape" transform="translate(340.157,-1.42109E-014)">
				<title>Sheet.166</title>
				<v:textBlock v:margins="rect(1,1,1,1)" v:tabSpace="42.5197"/>
				<path d="M0 51.77 L0 80.12" class="st4"/>
			</g>
			<g id="shape167-48" v:mID="167" v:groupContext="shape" transform="translate(351.496,-1.42109E-014)">
				<title>Sheet.167</title>
				<v:textBlock v:margins="rect(1,1,1,1)" v:tabSpace="42.5197"/>
				<path d="M0 51.77 L0 80.12" class="st4"/>
			</g>
			<g id="shape168-51" v:mID="168" v:groupContext="shape" transform="translate(397.6,40.435) rotate(90)">
				<title>Line 0.5 (0)</title>
				<path d="M0 80.12 L11.34 80.12" class="st5"/>
			</g>
			<g id="shape169-54" v:mID="169" v:groupContext="shape" transform="translate(352.246,40.435) rotate(90)">
				<title>Line 0.5 (0).102</title>
				<path d="M0 80.12 L11.34 80.12" class="st5"/>
			</g>
			<g id="shape170-57" v:mID="170" v:groupContext="shape" transform="translate(306.892,40.435) rotate(90)">
				<title>Line 0.5 (0).103</title>
				<path d="M0 80.12 L11.34 80.12" class="st5"/>
			</g>
			<g id="shape171-60" v:mID="171" v:groupContext="shape" transform="translate(261.537,40.435) rotate(90)">
				<title>Line 0.5 (0).104</title>
				<path d="M0 80.12 L11.34 80.12" class="st5"/>
			</g>
			<g id="shape172-63" v:mID="172" v:groupContext="shape" transform="translate(216.183,40.435) rotate(90)">
				<title>Line 0.5 (0).105</title>
				<path d="M0 80.12 L11.34 80.12" class="st5"/>
			</g>
			<g id="shape173-66" v:mID="173" v:groupContext="shape" transform="translate(170.829,40.435) rotate(90)">
				<title>Line 0.5 (0).106</title>
				<path d="M0 80.12 L11.34 80.12" class="st5"/>
			</g>
			<g id="shape174-69" v:mID="174" v:groupContext="shape" transform="translate(125.474,40.435) rotate(90)">
				<title>Line 0.5 (0).107</title>
				<path d="M0 80.12 L11.34 80.12" class="st5"/>
			</g>
			<g id="shape175-72" v:mID="175" v:groupContext="shape" transform="translate(80.1201,40.435) rotate(90)">
				<title>Line 0.5 (0).108</title>
				<path d="M0 80.12 L11.34 80.12" class="st5"/>
			</g>
			<g id="shape176-75" v:mID="176" v:groupContext="shape" transform="translate(442.955,40.435) rotate(90)">
				<title>Line 0.5 (0).109</title>
				<path d="M0 80.12 L11.34 80.12" class="st5"/>
			</g>
		</g>
		<g id="shape75-78" v:mID="75" v:groupContext="shape" transform="translate(102.847,-20.3425)">
			<title>Sheet.75</title>
			<desc>COUNTFLAG</desc>
			<v:userDefs/>
			<v:textBlock v:margins="rect(1,2,1,2)" v:tabSpace="42.5197"/>
			<v:textRect cx="31.1811" cy="74.4504" width="62.38" height="11.3386"/>
			<rect x="0" y="68.7815" width="62.3622" height="11.3386" class="st6"/>
			<rect v:rectContext="textBkgnd" x="10.6352" y="69.6504" width="49.336" height="9.59985" class="st7"/>
			<text x="11.01" y="76.85" class="st2" v:langID="1033"><v:paragraph v:horizAlign="2"/><v:tabList/>COUNTFLAG</text>		</g>
		<g id="group76-82" transform="translate(165.209,-26.0111)" v:mID="76" v:groupContext="group">
			<title>Sheet.76</title>
			<g id="shape77-83" v:mID="77" v:groupContext="shape">
				<title>Sheet.77</title>
				<path d="M11.34 68.78 L11.34 80.12 L0 80.12 L11.34 68.78 Z" class="st8"/>
			</g>
			<g id="shape78-85" v:mID="78" v:groupContext="shape">
				<title>Sheet.78</title>
				<path d="M11.34 68.78 L11.34 80.12 L0 80.12 L11.34 68.78 Z" class="st9"/>
				<path d="M11.34 68.78 L11.34 80.12 L0 80.12" class="st10"/>
			</g>
		</g>
		<g id="group79-88" transform="translate(323.95,-28.8465)" v:mID="79" v:groupContext="group">
			<title>Sheet.79</title>
			<g id="shape80-89" v:mID="80" v:groupContext="shape">
				<title>Sheet.80</title>
				<path d="M11.34 71.62 L11.34 80.12 L0 80.12 L11.34 71.62 Z" class="st8"/>
			</g>
			<g id="shape81-91" v:mID="81" v:groupContext="shape">
				<title>Sheet.81</title>
				<path d="M11.34 71.62 L11.34 80.12 L0 80.12 L11.34 71.62 Z" class="st9"/>
				<path d="M11.34 71.62 L11.34 80.12 L0 80.12" class="st10"/>
			</g>
		</g>
		<g id="shape82-94" v:mID="82" v:groupContext="shape" transform="translate(261.587,-23.1772)">
			<title>Sheet.82</title>
			<desc>CLKSOURCE</desc>
			<v:userDefs/>
			<v:textBlock v:margins="rect(1,2,1,2)" v:tabSpace="42.5197"/>
			<v:textRect cx="31.1811" cy="74.4504" width="62.38" height="11.3386"/>
			<rect x="0" y="68.7815" width="62.3622" height="11.3386" class="st6"/>
			<rect v:rectContext="textBkgnd" x="10.1823" y="69.6504" width="49.7889" height="9.59985" class="st7"/>
			<text x="10.56" y="76.85" class="st2" v:langID="1033"><v:paragraph v:horizAlign="2"/><v:tabList/>CLKSOURCE</text>		</g>
		<g id="group83-98" transform="translate(323.95,-17.5079)" v:mID="83" v:groupContext="group">
			<title>Sheet.83</title>
			<g id="shape84-99" v:mID="84" v:groupContext="shape">
				<title>Sheet.84</title>
				<path d="M22.27 60.28 L22.27 80.12 L0 80.12 L22.27 60.28 Z" class="st8"/>
			</g>
			<g id="shape85-101" v:mID="85" v:groupContext="shape">
				<title>Sheet.85</title>
				<path d="M22.27 60.28 L22.27 80.12 L0 80.12 L22.27 60.28 Z" class="st9"/>
				<path d="M22.27 60.28 L22.27 80.12 L0 80.12" class="st10"/>
			</g>
		</g>
		<g id="shape86-104" v:mID="86" v:groupContext="shape" transform="translate(261.587,-11.8386)">
			<title>Sheet.86</title>
			<desc>TICKINT</desc>
			<v:userDefs/>
			<v:textBlock v:margins="rect(1,2,1,2)" v:tabSpace="42.5197"/>
			<v:textRect cx="31.1811" cy="74.4504" width="62.38" height="11.3386"/>
			<rect x="0" y="68.7815" width="62.3622" height="11.3386" class="st6"/>
			<rect v:rectContext="textBkgnd" x="28.8621" y="69.6504" width="31.1092" height="9.59985" class="st7"/>
			<text x="29.24" y="76.85" class="st2" v:langID="1033"><v:paragraph v:horizAlign="2"/><v:tabList/>TICKINT</text>		</g>
		<g id="group87-108" transform="translate(323.945,-6.16931)" v:mID="87" v:groupContext="group">
			<title>Sheet.87</title>
			<g id="shape106-109" v:mID="106" v:groupContext="shape">
				<title>Sheet.106</title>
				<path d="M34.02 48.94 L34.02 80.12 L0 80.12 L34.02 48.94 Z" class="st8"/>
			</g>
			<g id="shape107-111" v:mID="107" v:groupContext="shape">
				<title>Sheet.107</title>
				<path d="M34.02 48.94 L34.02 80.12 L0 80.12 L34.02 48.94 Z" class="st9"/>
				<path d="M34.02 48.94 L34.02 80.12 L0 80.12" class="st10"/>
			</g>
		</g>
		<g id="shape108-114" v:mID="108" v:groupContext="shape" transform="translate(261.587,-0.5)">
			<title>Sheet.108</title>
			<desc>TICKINT</desc>
			<v:userDefs/>
			<v:textBlock v:margins="rect(1,2,1,2)" v:tabSpace="42.5197"/>
			<v:textRect cx="31.1811" cy="74.4504" width="62.38" height="11.3386"/>
			<rect x="0" y="68.7815" width="62.3622" height="11.3386" class="st6"/>
			<rect v:rectContext="textBkgnd" x="28.4015" y="69.6504" width="31.5698" height="9.59985" class="st7"/>
			<text x="28.78" y="76.85" class="st2" v:langID="2057"><v:paragraph v:horizAlign="2"/><v:tabList/>ENABLE</text>		</g>
	</g>
</svg>
