<?xml version="1.0" encoding="UTF-8" standalone="no"?>
<!DOCTYPE svg PUBLIC "-//W3C//DTD SVG 1.0//EN" "http://www.w3.org/TR/2001/REC-SVG-20010904/DTD/svg10.dtd">
<!-- Generated by Microsoft Visio 11.0, SVG Export, v1.0 load_register_bit_assignments.svg Page-1 -->
<svg xmlns="http://www.w3.org/2000/svg" xmlns:v="http://schemas.microsoft.com/visio/2003/SVGExtensions/" width="5.06714in"
		height="0.586125in" viewBox="0 0 364.834 42.201" xml:space="preserve" color-interpolation-filters="sRGB" class="st9">
	<v:documentProperties v:langID="1033" v:metric="true" v:viewMarkup="false"/>

	<style type="text/css">
	<![CDATA[
		.st1 {fill:none;stroke:#000000;stroke-linecap:butt;stroke-width:0.8}
		.st2 {fill:none;stroke:none;stroke-linecap:butt;stroke-width:0.5}
		.st3 {fill:#ffffff;stroke:none;stroke-linecap:butt;stroke-width:7.2}
		.st4 {fill:#000000;font-family:Arial;font-size:0.666664em}
		.st5 {fill:none;stroke:none;stroke-width:1}
		.st6 {fill:none}
		.st7 {stroke:#000000;stroke-linecap:butt;stroke-width:0.8}
		.st8 {stroke:#000000;stroke-dasharray:0.25,1;stroke-linecap:butt;stroke-width:0.25}
		.st9 {fill:none;fill-rule:evenodd;font-size:12;overflow:visible;stroke-linecap:square;stroke-miterlimit:3}
	]]>
	</style>

	<g v:mID="0" v:index="1" v:groupContext="foregroundPage">
		<title>Page-1</title>
		<v:pageProperties v:drawingScale="0.0393701" v:pageScale="0.0393701" v:drawingUnits="24" v:shadowOffsetX="8.50394"
				v:shadowOffsetY="-8.50394"/>
		<g id="shape1-1" v:mID="1" v:groupContext="shape" transform="translate(0.9917,-1.0035)">
			<title>Sheet.1</title>
			<rect x="0" y="13.8545" width="362.835" height="28.3465" class="st1"/>
		</g>
		<g id="shape2-3" v:mID="2" v:groupContext="shape" transform="translate(0.9917,-29.3504)">
			<title>Sheet.2</title>
			<desc>31</desc>
			<v:userDefs/>
			<v:textBlock v:margins="rect(1,0,1,0)" v:tabSpace="42.5197"/>
			<v:textRect cx="5.66928" cy="36.5313" width="11.35" height="11.3386"/>
			<rect x="0" y="30.8624" width="11.3386" height="11.3386" class="st2"/>
			<rect v:rectContext="textBkgnd" x="0.92515" y="31.7313" width="8.89838" height="9.59985" class="st3"/>
			<text x="1.23" y="38.93" class="st4" v:langID="1033"><v:paragraph v:horizAlign="1"/><v:tabList/>31</text>		</g>
		<g id="shape6-7" v:mID="6" v:groupContext="shape" transform="translate(352.488,-30.3624)">
			<title>Sheet.6</title>
			<desc>0</desc>
			<v:userDefs/>
			<v:textBlock v:margins="rect(1,0,1,0)" v:tabSpace="42.5197"/>
			<v:textRect cx="5.66928" cy="36.5313" width="11.35" height="11.3386"/>
			<rect x="0" y="30.8624" width="11.3386" height="11.3386" class="st2"/>
			<rect v:rectContext="textBkgnd" x="3.14961" y="31.7313" width="4.44919" height="9.59985" class="st3"/>
			<text x="3.45" y="38.93" class="st4" v:langID="1033"><v:paragraph v:horizAlign="1"/><v:tabList/>0</text>		</g>
		<g id="shape7-11" v:mID="7" v:groupContext="shape" transform="translate(91.7004,-0.5987)">
			<title>Sheet.7</title>
			<desc>Reserved</desc>
			<v:userDefs/>
			<v:textBlock v:margins="rect(1,0,1,0)" v:tabSpace="42.5197"/>
			<v:textRect cx="136.063" cy="28.0268" width="272.13" height="28.3465"/>
			<rect x="0" y="13.8546" width="272.126" height="28.3465" class="st2"/>
			<rect v:rectContext="textBkgnd" x="119.325" y="23.2268" width="32.8983" height="9.59985" class="st3"/>
			<text x="119.62" y="30.43" class="st4" v:langID="2057"><v:paragraph v:horizAlign="1"/><v:tabList/>RELOAD</text>		</g>
		<g id="shape8-15" v:mID="8" v:groupContext="shape" transform="translate(0.9917,-0.5987)">
			<title>Sheet.8</title>
			<desc>Reserved</desc>
			<v:userDefs/>
			<v:textBlock v:margins="rect(1,0,1,0)" v:tabSpace="42.5197"/>
			<v:textRect cx="45.3545" cy="28.0268" width="90.72" height="28.3465"/>
			<rect x="0" y="13.8546" width="90.7087" height="28.3465" class="st2"/>
			<rect v:rectContext="textBkgnd" x="27.9288" y="23.2268" width="34.2386" height="9.59985" class="st3"/>
			<text x="28.23" y="30.43" class="st4" v:langID="2057"><v:paragraph v:horizAlign="1"/><v:tabList/>Reserved</text>		</g>
		<g id="shape9-19" v:mID="9" v:groupContext="shape" transform="translate(93.1256,-29.3504)">
			<title>Sheet.9</title>
			<desc>16</desc>
			<v:userDefs/>
			<v:textBlock v:margins="rect(1,0,1,0)" v:tabSpace="42.5197"/>
			<v:textRect cx="5.66928" cy="36.5313" width="11.35" height="11.3386"/>
			<rect x="0" y="30.8624" width="11.3386" height="11.3386" class="st2"/>
			<rect v:rectContext="textBkgnd" x="0.92515" y="31.7313" width="8.89838" height="9.59985" class="st3"/>
			<text x="1.23" y="38.93" class="st4" v:langID="2057"><v:paragraph v:horizAlign="1"/><v:tabList/>23</text>		</g>
		<g id="shape11-23" v:mID="11" v:groupContext="shape" transform="translate(78.9524,-29.3504)">
			<title>Sheet.11</title>
			<desc>17</desc>
			<v:userDefs/>
			<v:textBlock v:margins="rect(1,0,1,0)" v:tabSpace="42.5197"/>
			<v:textRect cx="5.66928" cy="36.5313" width="11.35" height="11.3386"/>
			<rect x="0" y="30.8624" width="11.3386" height="11.3386" class="st2"/>
			<rect v:rectContext="textBkgnd" x="0.92515" y="31.7313" width="8.89838" height="9.59985" class="st3"/>
			<text x="1.23" y="38.93" class="st4" v:langID="2057"><v:paragraph v:horizAlign="1"/><v:tabList/>24</text>		</g>
		<g id="group12-27" transform="translate(133.901,12.851) rotate(90)" v:mID="12" v:groupContext="group">
			<title>Sheet.12</title>
			<g id="shape13-28" v:mID="13" v:groupContext="shape">
				<title>Sheet.13</title>
				<path d="M0 42.2 L28.35 42.2 L0 42.2 Z" class="st5"/>
			</g>
			<g id="shape14-30" v:mID="14" v:groupContext="shape">
				<title>Sheet.14</title>
				<path d="M0 42.2 L28.35 42.2 L0 42.2 Z" class="st6"/>
				<path d="M0 42.2 L28.35 42.2" class="st7"/>
			</g>
		</g>
		<g id="group15-33" transform="translate(360.681,1.512) rotate(90)" v:mID="15" v:groupContext="group">
			<title>Time division.36</title>
			<g id="shape16-34" v:mID="16" v:groupContext="shape">
				<title>Sheet.16</title>
				<path d="M0 42.2 L11.34 42.2 L0 42.2 Z" class="st5"/>
			</g>
			<g id="shape17-36" v:mID="17" v:groupContext="shape">
				<title>Sheet.17</title>
				<path d="M0 42.2 L11.34 42.2 L0 42.2 Z" class="st6"/>
				<path d="M0 42.2 L11.34 42.2" class="st8"/>
			</g>
		</g>
		<g id="group18-39" transform="translate(315.327,1.512) rotate(90)" v:mID="18" v:groupContext="group">
			<title>Time division.103</title>
			<g id="shape19-40" v:mID="19" v:groupContext="shape">
				<title>Sheet.19</title>
				<path d="M0 42.2 L11.34 42.2 L0 42.2 Z" class="st5"/>
			</g>
			<g id="shape20-42" v:mID="20" v:groupContext="shape">
				<title>Sheet.20</title>
				<path d="M0 42.2 L11.34 42.2 L0 42.2 Z" class="st6"/>
				<path d="M0 42.2 L11.34 42.2" class="st8"/>
			</g>
		</g>
		<g id="group21-45" transform="translate(269.972,1.512) rotate(90)" v:mID="21" v:groupContext="group">
			<title>Time division.104</title>
			<g id="shape22-46" v:mID="22" v:groupContext="shape">
				<title>Sheet.22</title>
				<path d="M0 42.2 L11.34 42.2 L0 42.2 Z" class="st5"/>
			</g>
			<g id="shape23-48" v:mID="23" v:groupContext="shape">
				<title>Sheet.23</title>
				<path d="M0 42.2 L11.34 42.2 L0 42.2 Z" class="st6"/>
				<path d="M0 42.2 L11.34 42.2" class="st8"/>
			</g>
		</g>
		<g id="group24-51" transform="translate(224.618,1.512) rotate(90)" v:mID="24" v:groupContext="group">
			<title>Time division.105</title>
			<g id="shape25-52" v:mID="25" v:groupContext="shape">
				<title>Sheet.25</title>
				<path d="M0 42.2 L11.34 42.2 L0 42.2 Z" class="st5"/>
			</g>
			<g id="shape26-54" v:mID="26" v:groupContext="shape">
				<title>Sheet.26</title>
				<path d="M0 42.2 L11.34 42.2 L0 42.2 Z" class="st6"/>
				<path d="M0 42.2 L11.34 42.2" class="st8"/>
			</g>
		</g>
		<g id="group27-57" transform="translate(179.264,1.512) rotate(90)" v:mID="27" v:groupContext="group">
			<title>Time division.106</title>
			<g id="shape28-58" v:mID="28" v:groupContext="shape">
				<title>Sheet.28</title>
				<path d="M0 42.2 L11.34 42.2 L0 42.2 Z" class="st5"/>
			</g>
			<g id="shape29-60" v:mID="29" v:groupContext="shape">
				<title>Sheet.29</title>
				<path d="M0 42.2 L11.34 42.2 L0 42.2 Z" class="st6"/>
				<path d="M0 42.2 L11.34 42.2" class="st8"/>
			</g>
		</g>
		<g id="group30-63" transform="translate(133.909,1.512) rotate(90)" v:mID="30" v:groupContext="group">
			<title>Time division.107</title>
			<g id="shape31-64" v:mID="31" v:groupContext="shape">
				<title>Sheet.31</title>
				<path d="M0 42.2 L11.34 42.2 L0 42.2 Z" class="st5"/>
			</g>
			<g id="shape32-66" v:mID="32" v:groupContext="shape">
				<title>Sheet.32</title>
				<path d="M0 42.2 L11.34 42.2 L0 42.2 Z" class="st6"/>
				<path d="M0 42.2 L11.34 42.2" class="st8"/>
			</g>
		</g>
		<g id="group33-69" transform="translate(88.5547,1.512) rotate(90)" v:mID="33" v:groupContext="group">
			<title>Time division.108</title>
			<g id="shape34-70" v:mID="34" v:groupContext="shape">
				<title>Sheet.34</title>
				<path d="M0 42.2 L11.34 42.2 L0 42.2 Z" class="st5"/>
			</g>
			<g id="shape35-72" v:mID="35" v:groupContext="shape">
				<title>Sheet.35</title>
				<path d="M0 42.2 L11.34 42.2 L0 42.2 Z" class="st6"/>
				<path d="M0 42.2 L11.34 42.2" class="st8"/>
			</g>
		</g>
		<g id="group36-75" transform="translate(406.035,1.512) rotate(90)" v:mID="36" v:groupContext="group">
			<title>Time division.5</title>
			<g id="shape37-76" v:mID="37" v:groupContext="shape">
				<title>Sheet.37</title>
				<path d="M0 42.2 L11.34 42.2 L0 42.2 Z" class="st5"/>
			</g>
			<g id="shape38-78" v:mID="38" v:groupContext="shape">
				<title>Sheet.38</title>
				<path d="M0 42.2 L11.34 42.2 L0 42.2 Z" class="st6"/>
				<path d="M0 42.2 L11.34 42.2" class="st8"/>
			</g>
		</g>
		<g id="group39-81" transform="translate(43.201,1.512) rotate(90)" v:mID="39" v:groupContext="group">
			<title>Time division.109</title>
			<g id="shape40-82" v:mID="40" v:groupContext="shape">
				<title>Sheet.40</title>
				<path d="M0 42.2 L11.34 42.2 L0 42.2 Z" class="st5"/>
			</g>
			<g id="shape41-84" v:mID="41" v:groupContext="shape">
				<title>Sheet.41</title>
				<path d="M0 42.2 L11.34 42.2 L0 42.2 Z" class="st6"/>
				<path d="M0 42.2 L11.34 42.2" class="st8"/>
			</g>
		</g>
	</g>
</svg>
