<?xml version="1.0" encoding="UTF-8" standalone="no"?>
<!DOCTYPE svg PUBLIC "-//W3C//DTD SVG 1.0//EN" "http://www.w3.org/TR/2001/REC-SVG-20010904/DTD/svg10.dtd">
<!-- Generated by Microsoft Visio 11.0, SVG Export, v1.0 calib_register_bit_assignments.svg Page-1 -->
<svg xmlns="http://www.w3.org/2000/svg" xmlns:v="http://schemas.microsoft.com/visio/2003/SVGExtensions/" width="5.23261in"
		height="1.00225in" viewBox="0 0 376.748 72.1622" xml:space="preserve" color-interpolation-filters="sRGB" class="st10">
	<v:documentProperties v:langID="1033" v:metric="true" v:viewMarkup="false"/>

	<style type="text/css">
	<![CDATA[
		.st1 {fill:none;stroke:#000000;stroke-linecap:butt;stroke-width:0.8}
		.st2 {fill:none;stroke:none;stroke-linecap:butt;stroke-width:0.5}
		.st3 {fill:#ffffff;stroke:none;stroke-linecap:butt;stroke-width:7.2}
		.st4 {fill:#000000;font-family:Arial;font-size:0.666664em}
		.st5 {fill:none;stroke:none;stroke-width:1}
		.st6 {fill:none}
		.st7 {stroke:#000000;stroke-linecap:butt;stroke-width:0.8}
		.st8 {stroke:#000000;stroke-dasharray:0.25,1;stroke-linecap:butt;stroke-width:0.25}
		.st9 {stroke:#000000;stroke-linecap:butt;stroke-width:0.24}
		.st10 {fill:none;fill-rule:evenodd;font-size:12;overflow:visible;stroke-linecap:square;stroke-miterlimit:3}
	]]>
	</style>

	<g v:mID="0" v:index="1" v:groupContext="foregroundPage">
		<title>Page-1</title>
		<v:pageProperties v:drawingScale="0.0393701" v:pageScale="0.0393701" v:drawingUnits="24" v:shadowOffsetX="8.50394"
				v:shadowOffsetY="-8.50394"/>
		<v:layer v:name="Connector" v:index="0"/>
		<g id="shape1-1" v:mID="1" v:groupContext="shape" transform="translate(12.9059,-31.2227)">
			<title>Sheet.1</title>
			<rect x="0" y="43.8157" width="362.835" height="28.3465" class="st1"/>
		</g>
		<g id="shape2-3" v:mID="2" v:groupContext="shape" transform="translate(12.9059,-59.8236)">
			<title>Sheet.2</title>
			<desc>31</desc>
			<v:userDefs/>
			<v:textBlock v:margins="rect(1,0,1,0)" v:tabSpace="42.5197"/>
			<v:textRect cx="5.66928" cy="66.4925" width="11.35" height="11.3386"/>
			<rect x="0" y="60.8236" width="11.3386" height="11.3386" class="st2"/>
			<rect v:rectContext="textBkgnd" x="0.92515" y="61.6925" width="8.89838" height="9.59985" class="st3"/>
			<text x="1.23" y="68.89" class="st4" v:langID="1033"><v:paragraph v:horizAlign="1"/><v:tabList/>31</text>		</g>
		<g id="shape3-7" v:mID="3" v:groupContext="shape" transform="translate(364.402,-59.8236)">
			<title>Sheet.3</title>
			<desc>0</desc>
			<v:userDefs/>
			<v:textBlock v:margins="rect(1,0,1,0)" v:tabSpace="42.5197"/>
			<v:textRect cx="5.66928" cy="66.4925" width="11.35" height="11.3386"/>
			<rect x="0" y="60.8236" width="11.3386" height="11.3386" class="st2"/>
			<rect v:rectContext="textBkgnd" x="3.14961" y="61.6925" width="4.44919" height="9.59985" class="st3"/>
			<text x="3.45" y="68.89" class="st4" v:langID="1033"><v:paragraph v:horizAlign="1"/><v:tabList/>0</text>		</g>
		<g id="shape4-11" v:mID="4" v:groupContext="shape" transform="translate(103.164,-31.4772)">
			<title>Sheet.4</title>
			<desc>Reserved</desc>
			<v:userDefs/>
			<v:textBlock v:margins="rect(1,0,1,0)" v:tabSpace="42.5197"/>
			<v:textRect cx="136.063" cy="57.988" width="272.13" height="28.3465"/>
			<rect x="0" y="43.8157" width="272.126" height="28.3465" class="st2"/>
			<rect v:rectContext="textBkgnd" x="121.774" y="53.188" width="27.9998" height="9.59985" class="st3"/>
			<text x="122.07" y="60.39" class="st4" v:langID="2057"><v:paragraph v:horizAlign="1"/><v:tabList/>TENMS</text>		</g>
		<g id="shape5-15" v:mID="5" v:groupContext="shape" transform="translate(35.1323,-31.4772)">
			<title>Sheet.5</title>
			<desc>Reserved</desc>
			<v:userDefs/>
			<v:textBlock v:margins="rect(1,0,1,0)" v:tabSpace="42.5197"/>
			<v:textRect cx="34.0159" cy="57.988" width="68.04" height="28.3465"/>
			<rect x="0" y="43.8157" width="68.0315" height="28.3465" class="st2"/>
			<rect v:rectContext="textBkgnd" x="16.604" y="53.188" width="34.2386" height="9.59985" class="st3"/>
			<text x="16.9" y="60.39" class="st4" v:langID="2057"><v:paragraph v:horizAlign="1"/><v:tabList/>Reserved</text>		</g>
		<g id="shape6-19" v:mID="6" v:groupContext="shape" transform="translate(103.622,-59.8236)">
			<title>Sheet.6</title>
			<desc>16</desc>
			<v:userDefs/>
			<v:textBlock v:margins="rect(1,0,1,0)" v:tabSpace="42.5197"/>
			<v:textRect cx="5.66928" cy="66.4925" width="11.35" height="11.3386"/>
			<rect x="0" y="60.8236" width="11.3386" height="11.3386" class="st2"/>
			<rect v:rectContext="textBkgnd" x="0.92515" y="61.6925" width="8.89838" height="9.59985" class="st3"/>
			<text x="1.23" y="68.89" class="st4" v:langID="2057"><v:paragraph v:horizAlign="1"/><v:tabList/>23</text>		</g>
		<g id="shape7-23" v:mID="7" v:groupContext="shape" transform="translate(92.2834,-59.8236)">
			<title>Sheet.7</title>
			<desc>17</desc>
			<v:userDefs/>
			<v:textBlock v:margins="rect(1,0,1,0)" v:tabSpace="42.5197"/>
			<v:textRect cx="5.66928" cy="66.4925" width="11.35" height="11.3386"/>
			<rect x="0" y="60.8236" width="11.3386" height="11.3386" class="st2"/>
			<rect v:rectContext="textBkgnd" x="0.92515" y="61.6925" width="8.89838" height="9.59985" class="st3"/>
			<text x="1.23" y="68.89" class="st4" v:langID="2057"><v:paragraph v:horizAlign="1"/><v:tabList/>24</text>		</g>
		<g id="group8-27" transform="translate(175.784,12.593) rotate(90)" v:mID="8" v:groupContext="group">
			<title>Sheet.8</title>
			<g id="shape9-28" v:mID="9" v:groupContext="shape">
				<title>Sheet.9</title>
				<path d="M0 72.16 L28.35 72.16 L0 72.16 Z" class="st5"/>
			</g>
			<g id="shape10-30" v:mID="10" v:groupContext="shape">
				<title>Sheet.10</title>
				<path d="M0 72.16 L28.35 72.16 L0 72.16 Z" class="st6"/>
				<path d="M0 72.16 L28.35 72.16" class="st7"/>
			</g>
		</g>
		<g id="group11-33" transform="translate(402.556,1) rotate(90)" v:mID="11" v:groupContext="group">
			<title>Time division.36</title>
			<g id="shape12-34" v:mID="12" v:groupContext="shape">
				<title>Sheet.12</title>
				<path d="M0 72.16 L11.34 72.16 L0 72.16 Z" class="st5"/>
			</g>
			<g id="shape13-36" v:mID="13" v:groupContext="shape">
				<title>Sheet.13</title>
				<path d="M0 72.16 L11.34 72.16 L0 72.16 Z" class="st6"/>
				<path d="M0 72.16 L11.34 72.16" class="st8"/>
			</g>
		</g>
		<g id="group14-39" transform="translate(357.202,1) rotate(90)" v:mID="14" v:groupContext="group">
			<title>Time division.103</title>
			<g id="shape15-40" v:mID="15" v:groupContext="shape">
				<title>Sheet.15</title>
				<path d="M0 72.16 L11.34 72.16 L0 72.16 Z" class="st5"/>
			</g>
			<g id="shape16-42" v:mID="16" v:groupContext="shape">
				<title>Sheet.16</title>
				<path d="M0 72.16 L11.34 72.16 L0 72.16 Z" class="st6"/>
				<path d="M0 72.16 L11.34 72.16" class="st8"/>
			</g>
		</g>
		<g id="group17-45" transform="translate(311.847,1) rotate(90)" v:mID="17" v:groupContext="group">
			<title>Time division.104</title>
			<g id="shape18-46" v:mID="18" v:groupContext="shape">
				<title>Sheet.18</title>
				<path d="M0 72.16 L11.34 72.16 L0 72.16 Z" class="st5"/>
			</g>
			<g id="shape19-48" v:mID="19" v:groupContext="shape">
				<title>Sheet.19</title>
				<path d="M0 72.16 L11.34 72.16 L0 72.16 Z" class="st6"/>
				<path d="M0 72.16 L11.34 72.16" class="st8"/>
			</g>
		</g>
		<g id="group20-51" transform="translate(266.493,1) rotate(90)" v:mID="20" v:groupContext="group">
			<title>Time division.105</title>
			<g id="shape21-52" v:mID="21" v:groupContext="shape">
				<title>Sheet.21</title>
				<path d="M0 72.16 L11.34 72.16 L0 72.16 Z" class="st5"/>
			</g>
			<g id="shape22-54" v:mID="22" v:groupContext="shape">
				<title>Sheet.22</title>
				<path d="M0 72.16 L11.34 72.16 L0 72.16 Z" class="st6"/>
				<path d="M0 72.16 L11.34 72.16" class="st8"/>
			</g>
		</g>
		<g id="group23-57" transform="translate(221.139,1) rotate(90)" v:mID="23" v:groupContext="group">
			<title>Time division.106</title>
			<g id="shape24-58" v:mID="24" v:groupContext="shape">
				<title>Sheet.24</title>
				<path d="M0 72.16 L11.34 72.16 L0 72.16 Z" class="st5"/>
			</g>
			<g id="shape25-60" v:mID="25" v:groupContext="shape">
				<title>Sheet.25</title>
				<path d="M0 72.16 L11.34 72.16 L0 72.16 Z" class="st6"/>
				<path d="M0 72.16 L11.34 72.16" class="st8"/>
			</g>
		</g>
		<g id="group26-63" transform="translate(175.784,1) rotate(90)" v:mID="26" v:groupContext="group">
			<title>Time division.107</title>
			<g id="shape27-64" v:mID="27" v:groupContext="shape">
				<title>Sheet.27</title>
				<path d="M0 72.16 L11.34 72.16 L0 72.16 Z" class="st5"/>
			</g>
			<g id="shape28-66" v:mID="28" v:groupContext="shape">
				<title>Sheet.28</title>
				<path d="M0 72.16 L11.34 72.16 L0 72.16 Z" class="st6"/>
				<path d="M0 72.16 L11.34 72.16" class="st8"/>
			</g>
		</g>
		<g id="group29-69" transform="translate(130.43,1) rotate(90)" v:mID="29" v:groupContext="group">
			<title>Time division.108</title>
			<g id="shape30-70" v:mID="30" v:groupContext="shape">
				<title>Sheet.30</title>
				<path d="M0 72.16 L11.34 72.16 L0 72.16 Z" class="st5"/>
			</g>
			<g id="shape31-72" v:mID="31" v:groupContext="shape">
				<title>Sheet.31</title>
				<path d="M0 72.16 L11.34 72.16 L0 72.16 Z" class="st6"/>
				<path d="M0 72.16 L11.34 72.16" class="st8"/>
			</g>
		</g>
		<g id="group32-75" transform="translate(447.91,1.25401) rotate(90)" v:mID="32" v:groupContext="group">
			<title>Time division.5</title>
			<g id="shape33-76" v:mID="33" v:groupContext="shape">
				<title>Sheet.33</title>
				<path d="M0 72.16 L11.34 72.16 L0 72.16 Z" class="st5"/>
			</g>
			<g id="shape34-78" v:mID="34" v:groupContext="shape">
				<title>Sheet.34</title>
				<path d="M0 72.16 L11.34 72.16 L0 72.16 Z" class="st6"/>
				<path d="M0 72.16 L11.34 72.16" class="st8"/>
			</g>
		</g>
		<g id="group35-81" transform="translate(85.0764,1) rotate(90)" v:mID="35" v:groupContext="group">
			<title>Time division.109</title>
			<g id="shape36-82" v:mID="36" v:groupContext="shape">
				<title>Sheet.36</title>
				<path d="M0 72.16 L11.34 72.16 L0 72.16 Z" class="st5"/>
			</g>
			<g id="shape37-84" v:mID="37" v:groupContext="shape">
				<title>Sheet.37</title>
				<path d="M0 72.16 L11.34 72.16 L0 72.16 Z" class="st6"/>
				<path d="M0 72.16 L11.34 72.16" class="st8"/>
			</g>
		</g>
		<g id="group38-87" transform="translate(96.4142,12.3368) rotate(90)" v:mID="38" v:groupContext="group">
			<title>Sheet.38</title>
			<g id="shape39-88" v:mID="39" v:groupContext="shape">
				<title>Sheet.39</title>
				<path d="M0 72.16 L28.35 72.16 L0 72.16 Z" class="st5"/>
			</g>
			<g id="shape40-90" v:mID="40" v:groupContext="shape">
				<title>Sheet.40</title>
				<path d="M0 72.16 L28.35 72.16 L0 72.16 Z" class="st6"/>
				<path d="M0 72.16 L28.35 72.16" class="st7"/>
			</g>
		</g>
		<g id="group41-93" transform="translate(121.999,6.66929) rotate(90)" v:mID="41" v:groupContext="group">
			<title>Sheet.41</title>
			<g id="shape42-94" v:mID="42" v:groupContext="shape">
				<title>Sheet.42</title>
				<path d="M0 72.16 L28.35 72.16 L0 72.16 Z" class="st5"/>
			</g>
			<g id="shape43-96" v:mID="43" v:groupContext="shape" transform="translate(5.66573,14.2464)">
				<title>Sheet.43</title>
				<path d="M0 72.16 L28.35 72.16 L0 72.16 Z" class="st6"/>
				<path d="M0 72.16 L28.35 72.16" class="st7"/>
			</g>
		</g>
		<g id="shape44-99" v:mID="44" v:groupContext="shape" transform="translate(24.2519,-59.8236)">
			<title>Sheet.44</title>
			<desc>31</desc>
			<v:userDefs/>
			<v:textBlock v:margins="rect(1,0,1,0)" v:tabSpace="42.5197"/>
			<v:textRect cx="5.66928" cy="66.4925" width="11.35" height="11.3386"/>
			<rect x="0" y="60.8236" width="11.3386" height="11.3386" class="st2"/>
			<rect v:rectContext="textBkgnd" x="0.92515" y="61.6925" width="8.89838" height="9.59985" class="st3"/>
			<text x="1.23" y="68.89" class="st4" v:langID="2057"><v:paragraph v:horizAlign="1"/><v:tabList/>30</text>		</g>
		<g id="shape50-103" v:mID="50" v:groupContext="shape" transform="translate(44.0945,-20.1386)">
			<title>Sheet.50</title>
			<desc>Reserved</desc>
			<v:userDefs/>
			<v:textBlock v:margins="rect(1,0,1,0)" v:tabSpace="42.5197"/>
			<v:textRect cx="38.693" cy="72.1622" width="77.39" height="2.27738E-005"/>
			<rect x="0" y="72.1622" width="77.3858" height="2.27738E-005" class="st2"/>
			<rect v:rectContext="textBkgnd" x="-0.301672" y="67.3623" width="23.558" height="9.59985" class="st3"/>
			<text x="-0" y="74.56" class="st4" v:langID="2057"><v:paragraph/><v:tabList/>SKEW</text>		</g>
		<g id="shape51-107" v:mID="51" v:groupContext="shape" transform="translate(44.0945,-8.8)">
			<title>Sheet.51</title>
			<desc>Reserved</desc>
			<v:userDefs/>
			<v:textBlock v:margins="rect(1,0,1,0)" v:tabSpace="42.5197"/>
			<v:textRect cx="18.7794" cy="72.1622" width="37.57" height="0"/>
			<path d="M0 72.16 L37.56 72.16 L0 72.16 Z" class="st2"/>
			<rect v:rectContext="textBkgnd" x="-0.300774" y="67.3623" width="28" height="9.59985" class="st3"/>
			<text x="-0" y="74.56" class="st4" v:langID="2057"><v:paragraph/><v:tabList/>NOREF</text>		</g>
		<g id="shape52-111" v:mID="52" v:groupContext="shape" transform="translate(35.5905,-59.8236)">
			<title>Sheet.52</title>
			<desc>31</desc>
			<v:userDefs/>
			<v:textBlock v:margins="rect(1,0,1,0)" v:tabSpace="42.5197"/>
			<v:textRect cx="5.66928" cy="66.4925" width="11.35" height="11.3386"/>
			<rect x="0" y="60.8236" width="11.3386" height="11.3386" class="st2"/>
			<rect v:rectContext="textBkgnd" x="0.92515" y="61.6925" width="8.89838" height="9.59985" class="st3"/>
			<text x="1.23" y="68.89" class="st4" v:langID="2057"><v:paragraph v:horizAlign="1"/><v:tabList/>29</text>		</g>
		<g id="shape53-115" v:mID="53" v:groupContext="shape" v:layerMember="0" transform="translate(18.5827,-28.6425)">
			<title>Dynamic connector</title>
			<path d="M0 72.16 L0 92 L22.68 92" class="st9"/>
		</g>
		<g id="shape45-118" v:mID="45" v:groupContext="shape" v:layerMember="0" transform="translate(28.5039,-31.4772)">
			<title>Dynamic connector.45</title>
			<path d="M1.42 75 L1.42 83.5 L12.76 83.5" class="st9"/>
		</g>
	</g>
</svg>
