<?xml version="1.0" encoding="UTF-8" standalone="no"?>
<!DOCTYPE svg PUBLIC "-//W3C//DTD SVG 1.0//EN" "http://www.w3.org/TR/2001/REC-SVG-20010904/DTD/svg10.dtd">
<!-- Generated by Microsoft Visio 11.0, SVG Export, v1.0 apsr_ipsr_epsr_register_bit_assignments.svg Page-1 -->
<svg xmlns="http://www.w3.org/2000/svg" xmlns:v="http://schemas.microsoft.com/visio/2003/SVGExtensions/" width="5.4905in"
		height="1.3608in" viewBox="0 0 395.316 97.978" xml:space="preserve" color-interpolation-filters="sRGB" class="st7">
	<v:documentProperties v:langID="1033" v:metric="true" v:viewMarkup="false"/>

	<style type="text/css">
	<![CDATA[
		.st1 {stroke:#000000;stroke-dasharray:0.25,1;stroke-linecap:butt;stroke-width:0.25}
		.st2 {fill:none;stroke:none;stroke-linecap:butt;stroke-width:0.8}
		.st3 {fill:#000000;font-family:Arial;font-size:0.666664em}
		.st4 {fill:#ffffff;stroke:#000000;stroke-linecap:butt;stroke-width:0.8}
		.st5 {stroke:#000000;stroke-linecap:butt;stroke-width:0.8}
		.st6 {fill:none;stroke:none;stroke-linecap:butt;stroke-width:0.5}
		.st7 {fill:none;fill-rule:evenodd;font-size:12;overflow:visible;stroke-linecap:square;stroke-miterlimit:3}
	]]>
	</style>

	<g v:mID="0" v:index="1" v:groupContext="foregroundPage">
		<title>Page-1</title>
		<v:pageProperties v:drawingScale="0.0393701" v:pageScale="0.0393701" v:drawingUnits="24" v:shadowOffsetX="8.50394"
				v:shadowOffsetY="-8.50394"/>
		<g id="group2-1" transform="translate(31.6811,-0.8)" v:mID="2" v:groupContext="group">
			<title>Sheet.2</title>
			<g id="shape54-2" v:mID="54" v:groupContext="shape" transform="translate(415.458,1.6) rotate(90)">
				<title>Time division.54</title>
				<path d="M0 97.98 L96.38 97.98" class="st1"/>
			</g>
			<g id="shape55-5" v:mID="55" v:groupContext="shape" transform="translate(370.104,1.6) rotate(90)">
				<title>Time division.55</title>
				<path d="M0 97.98 L96.38 97.98" class="st1"/>
			</g>
			<g id="shape56-8" v:mID="56" v:groupContext="shape" transform="translate(324.75,1.6) rotate(90)">
				<title>Time division.56</title>
				<path d="M0 97.98 L96.38 97.98" class="st1"/>
			</g>
			<g id="shape57-11" v:mID="57" v:groupContext="shape" transform="translate(279.395,1.6) rotate(90)">
				<title>Time division.57</title>
				<path d="M0 97.98 L96.38 97.98" class="st1"/>
			</g>
			<g id="shape58-14" v:mID="58" v:groupContext="shape" transform="translate(234.041,97.978) rotate(90) scale(-1,1)">
				<title>Time division.58</title>
				<path d="M0 97.98 L96.38 97.98" class="st1"/>
			</g>
			<g id="shape59-17" v:mID="59" v:groupContext="shape" transform="translate(188.687,1.6) rotate(90)">
				<title>Time division.59</title>
				<path d="M0 97.98 L96.38 97.98" class="st1"/>
			</g>
			<g id="shape60-20" v:mID="60" v:groupContext="shape" transform="translate(143.332,1.6) rotate(90)">
				<title>Time division.60</title>
				<path d="M0 97.98 L96.38 97.98" class="st1"/>
			</g>
			<g id="shape61-23" v:mID="61" v:groupContext="shape" transform="translate(460.813,1.6) rotate(90)">
				<title>Time division.61</title>
				<path d="M0 97.98 L96.38 97.98" class="st1"/>
			</g>
			<g id="shape62-26" v:mID="62" v:groupContext="shape" transform="translate(97.978,1.6) rotate(90)">
				<title>Time division.62</title>
				<path d="M0 97.98 L96.38 97.98" class="st1"/>
			</g>
		</g>
		<g id="shape5-29" v:mID="5" v:groupContext="shape" transform="translate(99.7126,-85.8394)">
			<title>Sheet.5</title>
			<desc>25</desc>
			<v:textBlock v:margins="rect(1,0,1,0)" v:tabSpace="42.5197"/>
			<v:textRect cx="5.66929" cy="92.3087" width="11.34" height="11.3386"/>
			<rect x="0" y="86.6394" width="11.3386" height="11.3386" class="st2"/>
			<text x="1.23" y="94.71" class="st3" v:langID="1033"><v:paragraph v:horizAlign="1"/><v:tabList/>25</text>		</g>
		<g id="shape6-32" v:mID="6" v:groupContext="shape" transform="translate(111.051,-85.8394)">
			<title>Sheet.6</title>
			<desc>24</desc>
			<v:textBlock v:margins="rect(1,0,1,0)" v:tabSpace="42.5197"/>
			<v:textRect cx="5.66929" cy="92.3087" width="11.34" height="11.3386"/>
			<rect x="0" y="86.6394" width="11.3386" height="11.3386" class="st2"/>
			<text x="1.23" y="94.71" class="st3" v:langID="1033"><v:paragraph v:horizAlign="1"/><v:tabList/>24</text>		</g>
		<g id="shape19-35" v:mID="19" v:groupContext="shape" transform="translate(122.39,-85.8394)">
			<title>Sheet.19</title>
			<desc>23</desc>
			<v:textBlock v:margins="rect(1,0,1,0)" v:tabSpace="42.5197"/>
			<v:textRect cx="5.66929" cy="92.3087" width="11.34" height="11.3386"/>
			<rect x="0" y="86.6394" width="11.3386" height="11.3386" class="st2"/>
			<text x="1.23" y="94.71" class="st3" v:langID="2057"><v:paragraph v:horizAlign="1"/><v:tabList/>23</text>		</g>
		<g id="shape21-38" v:mID="21" v:groupContext="shape" transform="translate(31.6811,-28.8888)">
			<title>Sheet.21</title>
			<rect x="0" y="69.6315" width="362.835" height="28.3465" class="st4"/>
		</g>
		<g id="shape24-40" v:mID="24" v:groupContext="shape" transform="translate(31.6811,-37.3927)">
			<title>Sheet.24</title>
			<desc>Reserved</desc>
			<v:textBlock v:margins="rect(1,0,1,0)" v:tabSpace="42.5197"/>
			<v:textRect cx="147.402" cy="92.3087" width="294.81" height="11.3386"/>
			<rect x="0" y="86.6394" width="294.803" height="11.3386" class="st2"/>
			<text x="130.28" y="94.71" class="st3" v:langID="2057"><v:paragraph v:horizAlign="1"/><v:tabList/>Reserved</text>		</g>
		<g id="shape25-43" v:mID="25" v:groupContext="shape" transform="translate(326.484,-37.3927)">
			<title>Sheet.25</title>
			<desc>Exception number</desc>
			<v:textBlock v:margins="rect(1,0,1,0)" v:tabSpace="42.5197"/>
			<v:textRect cx="34.0157" cy="92.3087" width="68.04" height="11.3386"/>
			<rect x="0" y="86.6394" width="68.0315" height="11.3386" class="st2"/>
			<text x="1.78" y="94.71" class="st3" v:langID="2057"><v:paragraph v:horizAlign="1"/><v:tabList/>Exception number</text>		</g>
		<g id="shape38-46" v:mID="38" v:groupContext="shape" transform="translate(31.6811,-57.4929)">
			<title>Sheet.38</title>
			<rect x="0" y="69.6315" width="362.835" height="28.3465" class="st4"/>
		</g>
		<g id="shape39-48" v:mID="39" v:groupContext="shape" transform="translate(31.6811,-85.8394)">
			<title>Sheet.39</title>
			<desc>31</desc>
			<v:textBlock v:margins="rect(1,0,1,0)" v:tabSpace="42.5197"/>
			<v:textRect cx="5.66929" cy="92.3087" width="11.34" height="11.3386"/>
			<rect x="0" y="86.6394" width="11.3386" height="11.3386" class="st2"/>
			<text x="1.23" y="94.71" class="st3" v:langID="1033"><v:paragraph v:horizAlign="1"/><v:tabList/>31</text>		</g>
		<g id="shape40-51" v:mID="40" v:groupContext="shape" transform="translate(43.0197,-85.8394)">
			<title>Sheet.40</title>
			<desc>30</desc>
			<v:textBlock v:margins="rect(1,0,1,0)" v:tabSpace="42.5197"/>
			<v:textRect cx="5.66929" cy="92.3087" width="11.34" height="11.3386"/>
			<rect x="0" y="86.6394" width="11.3386" height="11.3386" class="st2"/>
			<text x="1.23" y="94.71" class="st3" v:langID="1033"><v:paragraph v:horizAlign="1"/><v:tabList/>30</text>		</g>
		<g id="shape41-54" v:mID="41" v:groupContext="shape" transform="translate(54.3583,-85.8394)">
			<title>Sheet.41</title>
			<desc>29</desc>
			<v:textBlock v:margins="rect(1,0,1,0)" v:tabSpace="42.5197"/>
			<v:textRect cx="5.66929" cy="92.3087" width="11.34" height="11.3386"/>
			<rect x="0" y="86.6394" width="11.3386" height="11.3386" class="st2"/>
			<text x="1.23" y="94.71" class="st3" v:langID="1033"><v:paragraph v:horizAlign="1"/><v:tabList/>29</text>		</g>
		<g id="shape42-57" v:mID="42" v:groupContext="shape" transform="translate(65.6969,-85.8394)">
			<title>Sheet.42</title>
			<desc>28</desc>
			<v:textBlock v:margins="rect(1,0,1,0)" v:tabSpace="42.5197"/>
			<v:textRect cx="5.66929" cy="92.3087" width="11.34" height="11.3386"/>
			<rect x="0" y="86.6394" width="11.3386" height="11.3386" class="st2"/>
			<text x="1.23" y="94.71" class="st3" v:langID="1033"><v:paragraph v:horizAlign="1"/><v:tabList/>28</text>		</g>
		<g id="shape43-60" v:mID="43" v:groupContext="shape" transform="translate(77.0354,-85.8394)">
			<title>Sheet.43</title>
			<desc>27</desc>
			<v:textBlock v:margins="rect(1,0,1,0)" v:tabSpace="42.5197"/>
			<v:textRect cx="5.66929" cy="92.3087" width="11.34" height="11.3386"/>
			<rect x="0" y="86.6394" width="11.3386" height="11.3386" class="st2"/>
			<text x="1.23" y="94.71" class="st3" v:langID="1033"><v:paragraph v:horizAlign="1"/><v:tabList/>27</text>		</g>
		<g id="shape44-63" v:mID="44" v:groupContext="shape" transform="translate(140.998,12.1386) rotate(90)">
			<title>Sheet.44</title>
			<path d="M0 97.98 L28.35 97.98" class="st5"/>
		</g>
		<g id="shape45-66" v:mID="45" v:groupContext="shape" transform="translate(152.336,12.1386) rotate(90)">
			<title>Sheet.45</title>
			<path d="M0 97.98 L28.35 97.98" class="st5"/>
		</g>
		<g id="shape46-69" v:mID="46" v:groupContext="shape" transform="translate(163.675,12.1386) rotate(90)">
			<title>Sheet.46</title>
			<path d="M0 97.98 L28.35 97.98" class="st5"/>
		</g>
		<g id="shape47-72" v:mID="47" v:groupContext="shape" transform="translate(175.013,12.1386) rotate(90)">
			<title>Sheet.47</title>
			<path d="M0 97.98 L28.35 97.98" class="st5"/>
		</g>
		<g id="shape48-75" v:mID="48" v:groupContext="shape" transform="translate(31.6811,-65.9969)">
			<title>Sheet.48</title>
			<desc>N</desc>
			<v:textBlock v:margins="rect(1,0,1,0)" v:tabSpace="42.5197"/>
			<v:textRect cx="5.66929" cy="92.3087" width="11.34" height="11.3386"/>
			<rect x="0" y="86.6394" width="11.3386" height="11.3386" class="st2"/>
			<text x="2.79" y="94.71" class="st3" v:langID="1033"><v:paragraph v:horizAlign="1"/><v:tabList/>N</text>		</g>
		<g id="shape49-78" v:mID="49" v:groupContext="shape" transform="translate(43.0197,-65.9969)">
			<title>Sheet.49</title>
			<desc>Z</desc>
			<v:textBlock v:margins="rect(1,0,1,0)" v:tabSpace="42.5197"/>
			<v:textRect cx="5.66929" cy="92.3087" width="11.34" height="11.3386"/>
			<rect x="0" y="86.6394" width="11.3386" height="11.3386" class="st2"/>
			<text x="3.23" y="94.71" class="st3" v:langID="1033"><v:paragraph v:horizAlign="1"/><v:tabList/>Z</text>		</g>
		<g id="shape50-81" v:mID="50" v:groupContext="shape" transform="translate(54.3583,-65.9969)">
			<title>Sheet.50</title>
			<desc>C</desc>
			<v:textBlock v:margins="rect(1,0,1,0)" v:tabSpace="42.5197"/>
			<v:textRect cx="5.66929" cy="92.3087" width="11.34" height="11.3386"/>
			<rect x="0" y="86.6394" width="11.3386" height="11.3386" class="st2"/>
			<text x="2.79" y="94.71" class="st3" v:langID="1033"><v:paragraph v:horizAlign="1"/><v:tabList/>C</text>		</g>
		<g id="shape51-84" v:mID="51" v:groupContext="shape" transform="translate(65.6969,-65.9969)">
			<title>Sheet.51</title>
			<desc>V</desc>
			<v:textBlock v:margins="rect(1,0,1,0)" v:tabSpace="42.5197"/>
			<v:textRect cx="5.66929" cy="92.3087" width="11.34" height="11.3386"/>
			<rect x="0" y="86.6394" width="11.3386" height="11.3386" class="st2"/>
			<text x="3.01" y="94.71" class="st3" v:langID="1033"><v:paragraph v:horizAlign="1"/><v:tabList/>V</text>		</g>
		<g id="shape52-87" v:mID="52" v:groupContext="shape" transform="translate(383.177,-85.8394)">
			<title>Sheet.52</title>
			<desc>0</desc>
			<v:textBlock v:margins="rect(1,0,1,0)" v:tabSpace="42.5197"/>
			<v:textRect cx="5.66929" cy="92.3087" width="11.34" height="11.3386"/>
			<rect x="0" y="86.6394" width="11.3386" height="11.3386" class="st2"/>
			<text x="3.45" y="94.71" class="st3" v:langID="1033"><v:paragraph v:horizAlign="1"/><v:tabList/>0</text>		</g>
		<g id="shape53-90" v:mID="53" v:groupContext="shape" transform="translate(77.0354,-65.9969)">
			<title>Sheet.53</title>
			<desc>Reserved</desc>
			<v:textBlock v:margins="rect(1,0,1,0)" v:tabSpace="42.5197"/>
			<v:textRect cx="158.74" cy="92.3087" width="317.49" height="11.3386"/>
			<rect x="0" y="86.6394" width="317.48" height="11.3386" class="st2"/>
			<text x="141.63" y="94.71" class="st3" v:langID="2057"><v:paragraph v:horizAlign="1"/><v:tabList/>Reserved</text>		</g>
		<g id="shape63-93" v:mID="63" v:groupContext="shape" transform="translate(0.5,-57.4929)">
			<title>Sheet.63</title>
			<desc>APSR</desc>
			<v:textBlock v:margins="rect(4,4,4,4)" v:tabSpace="42.5197"/>
			<v:textRect cx="15.5906" cy="83.8047" width="31.19" height="28.3465"/>
			<rect x="0" y="69.6315" width="31.1811" height="28.3465" class="st6"/>
			<text x="5.42" y="86.2" class="st3" v:langID="2057"><v:paragraph v:horizAlign="2"/><v:tabList/>APSR</text>		</g>
		<g id="shape64-96" v:mID="64" v:groupContext="shape" transform="translate(3.33465,-29.1465)">
			<title>Sheet.64</title>
			<desc>IPSR</desc>
			<v:textBlock v:margins="rect(4,4,4,4)" v:tabSpace="42.5197"/>
			<v:textRect cx="14.1732" cy="83.8047" width="28.35" height="28.3465"/>
			<rect x="0" y="69.6315" width="28.3465" height="28.3465" class="st6"/>
			<text x="5.68" y="86.2" class="st3" v:langID="2057"><v:paragraph v:horizAlign="2"/><v:tabList/>IPSR</text>		</g>
		<g id="shape65-99" v:mID="65" v:groupContext="shape" transform="translate(1.63386,-0.8)">
			<title>Sheet.65</title>
			<desc>EPSR</desc>
			<v:textBlock v:margins="rect(4,4,4,4)" v:tabSpace="42.5197"/>
			<v:textRect cx="15.0236" cy="83.8047" width="30.05" height="28.3465"/>
			<rect x="0" y="69.6315" width="30.0472" height="28.3465" class="st6"/>
			<text x="4.27" y="86.2" class="st3" v:langID="2057"><v:paragraph v:horizAlign="2"/><v:tabList/>EPSR</text>		</g>
		<g id="shape67-102" v:mID="67" v:groupContext="shape" transform="translate(31.6811,-0.8)">
			<title>Sheet.67</title>
			<rect x="0" y="69.6315" width="362.835" height="28.3465" class="st4"/>
		</g>
		<g id="shape70-104" v:mID="70" v:groupContext="shape" transform="translate(31.6811,-9.30394)">
			<title>Sheet.70</title>
			<desc>Reserved</desc>
			<v:textBlock v:margins="rect(1,0,1,0)" v:tabSpace="42.5197"/>
			<v:textRect cx="39.685" cy="92.3087" width="79.38" height="11.3386"/>
			<rect x="0" y="86.6394" width="79.3701" height="11.3386" class="st2"/>
			<text x="22.56" y="94.71" class="st3" v:langID="1033"><v:paragraph v:horizAlign="1"/><v:tabList/>Reserved</text>		</g>
		<g id="shape81-107" v:mID="81" v:groupContext="shape" transform="translate(122.39,-9.30394)">
			<title>Sheet.81</title>
			<desc>Reserved</desc>
			<v:textBlock v:margins="rect(1,0,1,0)" v:tabSpace="42.5197"/>
			<v:textRect cx="136.063" cy="92.3087" width="272.13" height="11.3386"/>
			<rect x="0" y="86.6394" width="272.126" height="11.3386" class="st2"/>
			<text x="118.96" y="94.71" class="st3" v:langID="1033"><v:paragraph v:horizAlign="1"/><v:tabList/>Reserved</text>		</g>
		<g id="shape82-110" v:mID="82" v:groupContext="shape" transform="translate(209.029,68.8315) rotate(90)">
			<title>Sheet.82</title>
			<path d="M0 97.98 L28.35 97.98" class="st5"/>
		</g>
		<g id="shape96-113" v:mID="96" v:groupContext="shape" transform="translate(220.368,68.8315) rotate(90)">
			<title>Sheet.96</title>
			<path d="M0 97.98 L28.35 97.98" class="st5"/>
		</g>
		<g id="shape98-116" v:mID="98" v:groupContext="shape" transform="translate(111.051,-9.30394)">
			<title>Sheet.98</title>
			<desc>T</desc>
			<v:textBlock v:margins="rect(1,0,1,0)" v:tabSpace="42.5197"/>
			<v:textRect cx="5.66929" cy="92.3087" width="11.34" height="11.3386"/>
			<rect x="0" y="86.6394" width="11.3386" height="11.3386" class="st2"/>
			<text x="3.23" y="94.71" class="st3" v:langID="2057"><v:paragraph v:horizAlign="1"/><v:tabList/>T</text>		</g>
		<g id="shape26-119" v:mID="26" v:groupContext="shape" transform="translate(424.462,40.485) rotate(90)">
			<title>Sheet.26</title>
			<path d="M0 97.98 L28.35 97.98" class="st5"/>
		</g>
		<g id="shape106-122" v:mID="106" v:groupContext="shape" transform="translate(326.484,-85.8394)">
			<title>Sheet.106</title>
			<desc>5</desc>
			<v:textBlock v:margins="rect(1,0,1,0)" v:tabSpace="42.5197"/>
			<v:textRect cx="5.66929" cy="92.3087" width="11.34" height="11.3386"/>
			<rect x="0" y="86.6394" width="11.3386" height="11.3386" class="st2"/>
			<text x="3.45" y="94.71" class="st3" v:langID="2057"><v:paragraph v:horizAlign="1"/><v:tabList/>5</text>		</g>
		<g id="shape107-125" v:mID="107" v:groupContext="shape" transform="translate(315.146,-85.8394)">
			<title>Sheet.107</title>
			<desc>6</desc>
			<v:textBlock v:margins="rect(1,0,1,0)" v:tabSpace="42.5197"/>
			<v:textRect cx="5.66929" cy="92.3087" width="11.34" height="11.3386"/>
			<rect x="0" y="86.6394" width="11.3386" height="11.3386" class="st2"/>
			<text x="3.45" y="94.71" class="st3" v:langID="2057"><v:paragraph v:horizAlign="1"/><v:tabList/>6</text>		</g>
	</g>
</svg>
