<?xml version="1.0" encoding="UTF-8" standalone="no"?>
<!DOCTYPE svg PUBLIC "-//W3C//DTD SVG 1.0//EN" "http://www.w3.org/TR/2001/REC-SVG-20010904/DTD/svg10.dtd">
<!-- Generated by Microsoft Visio 11.0, SVG Export, v1.0 byte_invariant_big_endian_format.svg Page-1 -->
<svg xmlns="http://www.w3.org/2000/svg" xmlns:v="http://schemas.microsoft.com/visio/2003/SVGExtensions/" width="3.79758in"
		height="1.78971in" viewBox="0 0 273.426 128.859" xml:space="preserve" color-interpolation-filters="sRGB" class="st7">
	<v:documentProperties v:langID="2057" v:metric="true" v:viewMarkup="false"/>

	<style type="text/css">
	<![CDATA[
		.st1 {fill:none;stroke:none;stroke-linecap:butt;stroke-width:0.5}
		.st2 {fill:#000000;font-family:Arial;font-size:0.666664em}
		.st3 {stroke:#000000;stroke-dasharray:0.25,0.5;stroke-linecap:butt;stroke-width:0.25}
		.st4 {fill:#ffffff;stroke:none;stroke-linecap:round;stroke-linejoin:round;stroke-width:0.0169691}
		.st5 {stroke:#000000;stroke-linecap:butt;stroke-width:0.8}
		.st6 {fill:#ffffff;visibility:hidden}
		.st7 {fill:none;fill-rule:evenodd;font-size:12;overflow:visible;stroke-linecap:square;stroke-miterlimit:3}
	]]>
	</style>

	<g v:mID="0" v:index="1" v:groupContext="foregroundPage">
		<title>Page-1</title>
		<v:pageProperties v:drawingScale="0.0393701" v:pageScale="0.0393701" v:drawingUnits="24" v:shadowOffsetX="8.50394"
				v:shadowOffsetY="-8.50394"/>
		<g id="shape1-1" v:mID="1" v:groupContext="shape" transform="translate(60.0276,-117.02)">
			<title>Sheet.1</title>
			<desc>Memory</desc>
			<v:textBlock v:margins="rect(1,0,1,0)" v:tabSpace="42.5197"/>
			<v:textRect cx="17.0079" cy="123.19" width="34.02" height="11.3386"/>
			<rect x="0" y="117.52" width="34.0157" height="11.3386" class="st1"/>
			<text x="2.56" y="125.59" class="st2" v:langID="1033"><v:paragraph v:horizAlign="1"/><v:tabList/>Memory</text>		</g>
		<g id="shape2-4" v:mID="2" v:groupContext="shape" transform="translate(181.917,-117.02)">
			<title>Sheet.2</title>
			<desc>Register</desc>
			<v:textBlock v:margins="rect(1,1,1,1)" v:tabSpace="42.5197"/>
			<v:textRect cx="22.6772" cy="123.19" width="45.36" height="11.3386"/>
			<rect x="0" y="117.52" width="45.3543" height="11.3386" class="st1"/>
			<text x="7.78" y="125.59" class="st2" v:langID="1033"><v:paragraph v:horizAlign="1"/><v:tabList/>Register</text>		</g>
		<g id="shape3-7" v:mID="3" v:groupContext="shape" transform="translate(43.0197,-71.6661)">
			<title>Sheet.3</title>
			<desc>A</desc>
			<v:textBlock v:margins="rect(1,1,1,1)" v:tabSpace="42.5197"/>
			<v:textRect cx="7.79528" cy="123.19" width="15.6" height="11.3386"/>
			<rect x="0" y="117.52" width="15.5906" height="11.3386" class="st1"/>
			<text x="9.25" y="125.59" class="st2" v:langID="1033"><v:paragraph v:horizAlign="2"/><v:tabList/>A</text>		</g>
		<g id="shape4-10" v:mID="4" v:groupContext="shape" transform="translate(35.9331,-54.6583)">
			<title>Sheet.4</title>
			<desc>A+1</desc>
			<v:textBlock v:margins="rect(1,1,1,1)" v:tabSpace="42.5197"/>
			<v:textRect cx="11.3386" cy="123.19" width="22.68" height="11.3386"/>
			<rect x="0" y="117.52" width="22.6772" height="11.3386" class="st1"/>
			<text x="7.22" y="125.59" class="st2" v:langID="1033"><v:paragraph v:horizAlign="2"/><v:tabList/>A+1</text>		</g>
		<g id="shape5-13" v:mID="5" v:groupContext="shape" transform="translate(95.4606,-71.6661)">
			<title>Sheet.5</title>
			<desc>msbyte</desc>
			<v:textBlock v:margins="rect(1,1,1,1)" v:tabSpace="42.5197"/>
			<v:textRect cx="15.5906" cy="123.19" width="31.19" height="11.3386"/>
			<rect x="0" y="117.52" width="31.1811" height="11.3386" class="st1"/>
			<text x="1" y="125.59" class="st2" v:langID="1033"><v:paragraph/><v:tabList/>msbyte</text>		</g>
		<g id="shape6-16" v:mID="6" v:groupContext="shape" transform="translate(95.4606,-20.6425)">
			<title>Sheet.6</title>
			<desc>lsbyte</desc>
			<v:textBlock v:margins="rect(1,1,1,1)" v:tabSpace="42.5197"/>
			<v:textRect cx="15.5906" cy="123.19" width="31.19" height="11.3386"/>
			<rect x="0" y="117.52" width="31.1811" height="11.3386" class="st1"/>
			<text x="1" y="125.59" class="st2" v:langID="1033"><v:paragraph/><v:tabList/>lsbyte</text>		</g>
		<g id="shape7-19" v:mID="7" v:groupContext="shape" transform="translate(38.7677,-37.6504)">
			<title>Sheet.7</title>
			<desc>A+2</desc>
			<v:textBlock v:margins="rect(1,1,1,1)" v:tabSpace="42.5197"/>
			<v:textRect cx="9.92126" cy="123.19" width="19.85" height="11.3386"/>
			<rect x="0" y="117.52" width="19.8425" height="11.3386" class="st1"/>
			<text x="4.39" y="125.59" class="st2" v:langID="1033"><v:paragraph v:horizAlign="2"/><v:tabList/>A+2</text>		</g>
		<g id="shape8-22" v:mID="8" v:groupContext="shape" transform="translate(40.185,-20.6425)">
			<title>Sheet.8</title>
			<desc>A+3</desc>
			<v:textBlock v:margins="rect(1,1,1,1)" v:tabSpace="42.5197"/>
			<v:textRect cx="9.2126" cy="123.19" width="18.43" height="11.3386"/>
			<rect x="0" y="117.52" width="18.4252" height="11.3386" class="st1"/>
			<text x="2.97" y="125.59" class="st2" v:langID="1033"><v:paragraph v:horizAlign="2"/><v:tabList/>A+3</text>		</g>
		<g id="shape9-25" v:mID="9" v:groupContext="shape" transform="translate(188.887,16.0906) rotate(90)">
			<title>Signal 0.54</title>
			<path d="M0 128.86 L8.5 128.86" class="st3"/>
		</g>
		<g id="shape10-28" v:mID="10" v:groupContext="shape" transform="translate(222.902,16.0906) rotate(90)">
			<title>Signal 0.6</title>
			<path d="M0 128.86 L8.5 128.86" class="st3"/>
		</g>
		<g id="shape11-31" v:mID="11" v:groupContext="shape" transform="translate(88.374,-102.847)">
			<title>Sheet.11</title>
			<desc>0</desc>
			<v:textBlock v:margins="rect(0,0,0,0)" v:tabSpace="42.5197"/>
			<v:textRect cx="2.83465" cy="124.607" width="5.67" height="8.50394"/>
			<text x="0.61" y="127.01" class="st2" v:langID="2057"><v:paragraph v:horizAlign="1"/><v:tabList/>0</text>		</g>
		<g id="shape12-33" v:mID="12" v:groupContext="shape" transform="translate(60.0276,-102.847)">
			<title>Sheet.12</title>
			<desc>7</desc>
			<v:textBlock v:margins="rect(0,0,0,0)" v:tabSpace="42.5197"/>
			<v:textRect cx="2.83465" cy="124.607" width="5.67" height="8.50394"/>
			<text x="0.61" y="127.01" class="st2" v:langID="2057"><v:paragraph v:horizAlign="1"/><v:tabList/>7</text>		</g>
		<g id="shape13-35" v:mID="13" v:groupContext="shape" transform="translate(238.61,-68.8315)">
			<title>Sheet.13</title>
			<desc>B3</desc>
			<v:textBlock v:margins="rect(0,0,0,0)" v:tabSpace="42.5197"/>
			<v:textRect cx="17.0079" cy="120.355" width="34.02" height="17.0079"/>
			<rect x="0" y="111.851" width="34.0157" height="17.0079" class="st4"/>
			<text x="12.12" y="122.76" class="st2" v:langID="2057"><v:paragraph v:horizAlign="1"/><v:tabList/>B3</text>		</g>
		<g id="shape14-38" v:mID="14" v:groupContext="shape" transform="translate(204.594,-68.8315)">
			<title>Sheet.14</title>
			<desc>B2</desc>
			<v:textBlock v:margins="rect(0,0,0,0)" v:tabSpace="42.5197"/>
			<v:textRect cx="17.0079" cy="120.355" width="34.02" height="17.0079"/>
			<rect x="0" y="111.851" width="34.0157" height="17.0079" class="st4"/>
			<text x="12.12" y="122.76" class="st2" v:langID="2057"><v:paragraph v:horizAlign="1"/><v:tabList/>B2</text>		</g>
		<g id="shape15-41" v:mID="15" v:groupContext="shape" transform="translate(136.563,-68.8315)">
			<title>Sheet.15</title>
			<desc>B0</desc>
			<v:textBlock v:margins="rect(0,0,0,0)" v:tabSpace="42.5197"/>
			<v:textRect cx="17.0079" cy="120.355" width="34.02" height="17.0079"/>
			<rect x="0" y="111.851" width="34.0157" height="17.0079" class="st4"/>
			<text x="12.12" y="122.76" class="st2" v:langID="2057"><v:paragraph v:horizAlign="1"/><v:tabList/>B0</text>		</g>
		<g id="shape16-44" v:mID="16" v:groupContext="shape" transform="translate(170.579,-68.8315)">
			<title>Sheet.16</title>
			<desc>B1</desc>
			<v:textBlock v:margins="rect(0,0,0,0)" v:tabSpace="42.5197"/>
			<v:textRect cx="17.0079" cy="120.355" width="34.02" height="17.0079"/>
			<rect x="0" y="111.851" width="34.0157" height="17.0079" class="st4"/>
			<text x="12.12" y="122.76" class="st2" v:langID="2057"><v:paragraph v:horizAlign="1"/><v:tabList/>B1</text>		</g>
		<g id="shape17-47" v:mID="17" v:groupContext="shape" transform="translate(136.563,-85.8394)">
			<title>Sheet.17</title>
			<desc>31</desc>
			<v:textBlock v:margins="rect(0,0,0,0)" v:tabSpace="42.5197"/>
			<v:textRect cx="4.96063" cy="124.607" width="9.93" height="8.50394"/>
			<text x="0.51" y="127.01" class="st2" v:langID="2057"><v:paragraph v:horizAlign="1"/><v:tabList/>31</text>		</g>
		<g id="shape18-49" v:mID="18" v:groupContext="shape" transform="translate(160.657,-85.8394)">
			<title>Sheet.18</title>
			<desc>24</desc>
			<v:textBlock v:margins="rect(0,0,0,0)" v:tabSpace="42.5197"/>
			<v:textRect cx="4.96063" cy="124.607" width="9.93" height="8.50394"/>
			<text x="0.51" y="127.01" class="st2" v:langID="2057"><v:paragraph v:horizAlign="1"/><v:tabList/>24</text>		</g>
		<g id="shape19-51" v:mID="19" v:groupContext="shape" transform="translate(170.579,-85.8394)">
			<title>Sheet.19</title>
			<desc>23</desc>
			<v:textBlock v:margins="rect(0,0,0,0)" v:tabSpace="42.5197"/>
			<v:textRect cx="4.96063" cy="124.607" width="9.93" height="8.50394"/>
			<text x="0.51" y="127.01" class="st2" v:langID="2057"><v:paragraph v:horizAlign="1"/><v:tabList/>23</text>		</g>
		<g id="shape20-53" v:mID="20" v:groupContext="shape" transform="translate(194.673,-85.8394)">
			<title>Sheet.20</title>
			<desc>16</desc>
			<v:textBlock v:margins="rect(0,0,0,0)" v:tabSpace="42.5197"/>
			<v:textRect cx="4.96063" cy="124.607" width="9.93" height="8.50394"/>
			<text x="0.51" y="127.01" class="st2" v:langID="2057"><v:paragraph v:horizAlign="1"/><v:tabList/>16</text>		</g>
		<g id="shape21-55" v:mID="21" v:groupContext="shape" transform="translate(204.594,-85.8394)">
			<title>Sheet.21</title>
			<desc>15</desc>
			<v:textBlock v:margins="rect(0,0,0,0)" v:tabSpace="42.5197"/>
			<v:textRect cx="4.96063" cy="124.607" width="9.93" height="8.50394"/>
			<text x="0.51" y="127.01" class="st2" v:langID="2057"><v:paragraph v:horizAlign="1"/><v:tabList/>15</text>		</g>
		<g id="shape22-57" v:mID="22" v:groupContext="shape" transform="translate(230.106,-85.8394)">
			<title>Sheet.22</title>
			<desc>8</desc>
			<v:textBlock v:margins="rect(0,0,0,0)" v:tabSpace="42.5197"/>
			<v:textRect cx="4.25197" cy="124.607" width="8.51" height="8.50394"/>
			<text x="2.03" y="127.01" class="st2" v:langID="2057"><v:paragraph v:horizAlign="1"/><v:tabList/>8</text>		</g>
		<g id="shape23-59" v:mID="23" v:groupContext="shape" transform="translate(238.61,-85.8394)">
			<title>Sheet.23</title>
			<desc>7</desc>
			<v:textBlock v:margins="rect(0,0,0,0)" v:tabSpace="42.5197"/>
			<v:textRect cx="4.25197" cy="124.607" width="8.51" height="8.50394"/>
			<text x="2.03" y="127.01" class="st2" v:langID="2057"><v:paragraph v:horizAlign="1"/><v:tabList/>7</text>		</g>
		<g id="shape24-61" v:mID="24" v:groupContext="shape" transform="translate(264.122,-85.8394)">
			<title>Sheet.24</title>
			<desc>0</desc>
			<v:textBlock v:margins="rect(0,0,0,0)" v:tabSpace="42.5197"/>
			<v:textRect cx="4.25197" cy="124.607" width="8.51" height="8.50394"/>
			<text x="2.03" y="127.01" class="st2" v:langID="2057"><v:paragraph v:horizAlign="1"/><v:tabList/>0</text>		</g>
		<g id="shape25-63" v:mID="25" v:groupContext="shape" transform="translate(204.594,-68.8315)">
			<title>Sheet.25</title>
			<path d="M0 111.85 L0 128.86" class="st5"/>
		</g>
		<g id="shape26-66" v:mID="26" v:groupContext="shape" transform="translate(238.61,-68.8315)">
			<title>Sheet.26</title>
			<path d="M0 111.85 L0 128.86" class="st5"/>
		</g>
		<g id="shape27-69" v:mID="27" v:groupContext="shape" transform="translate(136.563,-68.8315)">
			<title>Sheet.27</title>
			<rect x="0" y="111.851" width="136.063" height="17.0079" class="st6"/>
			<rect x="0" y="111.851" width="136.063" height="17.0079" class="st5"/>
		</g>
		<g id="shape28-72" v:mID="28" v:groupContext="shape" transform="translate(401.485,34.5157) rotate(90)">
			<title>Signal 0.104</title>
			<path d="M0 128.86 L8.5 128.86" class="st3"/>
		</g>
		<g id="shape29-75" v:mID="29" v:groupContext="shape" transform="translate(384.477,34.5157) rotate(90)">
			<title>Signal 0.102</title>
			<path d="M0 128.86 L8.5 128.86" class="st3"/>
		</g>
		<g id="shape30-78" v:mID="30" v:groupContext="shape" transform="translate(367.469,34.5157) rotate(90)">
			<title>Signal 0.103</title>
			<path d="M0 128.86 L8.5 128.86" class="st3"/>
		</g>
		<g id="shape31-81" v:mID="31" v:groupContext="shape" transform="translate(350.461,34.5157) rotate(90)">
			<title>Sheet.31</title>
			<path d="M0 128.86 L8.5 128.86" class="st3"/>
		</g>
		<g id="shape32-84" v:mID="32" v:groupContext="shape" transform="translate(333.454,34.5157) rotate(90)">
			<title>Signal 0.105</title>
			<path d="M0 128.86 L8.5 128.86" class="st3"/>
		</g>
		<g id="shape33-87" v:mID="33" v:groupContext="shape" transform="translate(316.446,34.5157) rotate(90)">
			<title>Signal 0.106</title>
			<path d="M0 128.86 L8.5 128.86" class="st3"/>
		</g>
		<g id="shape34-90" v:mID="34" v:groupContext="shape" transform="translate(299.438,34.5157) rotate(90)">
			<title>Sheet.34</title>
			<path d="M0 128.86 L8.5 128.86" class="st3"/>
		</g>
		<g id="shape35-93" v:mID="35" v:groupContext="shape" transform="translate(282.43,34.5157) rotate(90)">
			<title>Signal 0.108</title>
			<path d="M0 128.86 L8.5 128.86" class="st3"/>
		</g>
		<g id="shape36-96" v:mID="36" v:groupContext="shape" transform="translate(265.422,34.5157) rotate(90)">
			<title>Signal 0.109</title>
			<path d="M0 128.86 L8.5 128.86" class="st3"/>
		</g>
		<g id="shape37-99" v:mID="37" v:groupContext="shape" transform="translate(170.579,-68.8315)">
			<title>Sheet.37</title>
			<path d="M0 111.85 L0 128.86" class="st5"/>
		</g>
		<g id="shape38-102" v:mID="38" v:groupContext="shape" transform="translate(60.0276,-68.8315)">
			<title>Sheet.38</title>
			<desc>B0</desc>
			<v:textBlock v:margins="rect(1,1,1,1)" v:tabSpace="42.5197"/>
			<v:textRect cx="17.0079" cy="120.355" width="34.02" height="17.0079"/>
			<rect x="0" y="111.851" width="34.0157" height="17.0079" class="st6"/>
			<rect x="0" y="111.851" width="34.0157" height="17.0079" class="st5"/>
			<text x="12.12" y="122.76" class="st2" v:langID="2057"><v:paragraph v:horizAlign="1"/><v:tabList/>B0</text>		</g>
		<g id="shape39-106" v:mID="39" v:groupContext="shape" transform="translate(60.0276,-51.8236)">
			<title>Sheet.39</title>
			<desc>B1</desc>
			<v:textBlock v:margins="rect(1,1,1,1)" v:tabSpace="42.5197"/>
			<v:textRect cx="17.0079" cy="120.355" width="34.02" height="17.0079"/>
			<rect x="0" y="111.851" width="34.0157" height="17.0079" class="st6"/>
			<rect x="0" y="111.851" width="34.0157" height="17.0079" class="st5"/>
			<text x="12.12" y="122.76" class="st2" v:langID="2057"><v:paragraph v:horizAlign="1"/><v:tabList/>B1</text>		</g>
		<g id="shape40-110" v:mID="40" v:groupContext="shape" transform="translate(60.0276,-34.8157)">
			<title>Sheet.40</title>
			<desc>B2</desc>
			<v:textBlock v:margins="rect(1,1,1,1)" v:tabSpace="42.5197"/>
			<v:textRect cx="17.0079" cy="120.355" width="34.02" height="17.0079"/>
			<rect x="0" y="111.851" width="34.0157" height="17.0079" class="st6"/>
			<rect x="0" y="111.851" width="34.0157" height="17.0079" class="st5"/>
			<text x="12.12" y="122.76" class="st2" v:langID="2057"><v:paragraph v:horizAlign="1"/><v:tabList/>B2</text>		</g>
		<g id="shape41-114" v:mID="41" v:groupContext="shape" transform="translate(60.0276,-17.8079)">
			<title>Sheet.41</title>
			<desc>B3</desc>
			<v:textBlock v:margins="rect(1,1,1,1)" v:tabSpace="42.5197"/>
			<v:textRect cx="17.0079" cy="120.355" width="34.02" height="17.0079"/>
			<rect x="0" y="111.851" width="34.0157" height="17.0079" class="st6"/>
			<rect x="0" y="111.851" width="34.0157" height="17.0079" class="st5"/>
			<text x="12.12" y="122.76" class="st2" v:langID="2057"><v:paragraph v:horizAlign="1"/><v:tabList/>B3</text>		</g>
		<g id="shape42-118" v:mID="42" v:groupContext="shape" transform="translate(60.0276,-0.8)">
			<title>Sheet.42</title>
			<rect x="0" y="111.851" width="34.0157" height="17.0079" class="st6"/>
			<rect x="0" y="111.851" width="34.0157" height="17.0079" class="st5"/>
		</g>
		<g id="shape43-121" v:mID="43" v:groupContext="shape" transform="translate(60.0276,-85.8394)">
			<title>Sheet.43</title>
			<rect x="0" y="111.851" width="34.0157" height="17.0079" class="st6"/>
			<rect x="0" y="111.851" width="34.0157" height="17.0079" class="st5"/>
		</g>
		<g id="shape44-124" v:mID="44" v:groupContext="shape" transform="translate(222.902,17.5079) rotate(90)">
			<title>Signal 0.12</title>
			<path d="M0 128.86 L8.5 128.86" class="st3"/>
		</g>
		<g id="shape45-127" v:mID="45" v:groupContext="shape" transform="translate(188.887,17.5079) rotate(90)">
			<title>Signal 0.17</title>
			<path d="M0 128.86 L8.5 128.86" class="st3"/>
		</g>
		<g id="shape46-130" v:mID="46" v:groupContext="shape" transform="translate(0.5,-71.6661)">
			<title>Sheet.46</title>
			<desc>Address</desc>
			<v:textBlock v:margins="rect(1,1,1,1)" v:tabSpace="42.5197"/>
			<v:textRect cx="19.8425" cy="123.19" width="39.69" height="11.3386"/>
			<rect x="0" y="117.52" width="39.685" height="11.3386" class="st1"/>
			<text x="9.34" y="125.59" class="st2" v:langID="1033"><v:paragraph v:horizAlign="2"/><v:tabList/>Address</text>		</g>
	</g>
</svg>
