<?xml version="1.0" encoding="UTF-8" standalone="no"?>
<!DOCTYPE svg PUBLIC "-//W3C//DTD SVG 1.0//EN" "http://www.w3.org/TR/2001/REC-SVG-20010904/DTD/svg10.dtd">
<!-- Generated by Microsoft Visio 11.0, SVG Export, v1.0 exception_entry_stack_contents.svg Page-1 -->
<svg xmlns="http://www.w3.org/2000/svg" xmlns:v="http://schemas.microsoft.com/visio/2003/SVGExtensions/" width="4.46271in"
		height="1.52081in" viewBox="0 0 321.315 109.499" xml:space="preserve" color-interpolation-filters="sRGB" class="st10">
	<v:documentProperties v:langID="1033" v:metric="true" v:viewMarkup="false"/>

	<style type="text/css">
	<![CDATA[
		.st1 {fill:none;stroke:none;stroke-linecap:butt;stroke-width:0.5}
		.st2 {fill:#000000;font-family:Arial;font-size:0.666664em}
		.st3 {marker-end:url(#mrkr4-9);stroke:#000000;stroke-linecap:butt;stroke-width:0.5}
		.st4 {fill:#000000;fill-opacity:1;stroke:#000000;stroke-opacity:1;stroke-width:0.21739130434783}
		.st5 {fill:none;stroke:#000000;stroke-linecap:butt;stroke-width:0.5}
		.st6 {fill:#000000;font-family:Arial;font-size:0.666664em;font-style:italic}
		.st7 {font-size:1em;font-style:normal}
		.st8 {font-size:1em}
		.st9 {fill:#000000;font-family:Lucida Sans Typewriter;font-size:0.666664em}
		.st10 {fill:none;fill-rule:evenodd;font-size:12;overflow:visible;stroke-linecap:square;stroke-miterlimit:3}
	]]>
	</style>

	<defs id="Markers">
		<g id="lend4">
			<path d="M 2 1 L 0 0 L 2 -1 L 2 1 " style="stroke:none"/>
		</g>
		<marker id="mrkr4-9" class="st4" v:arrowType="4" v:arrowSize="1" v:setback="9.2" refX="-9.2" orient="auto"
				markerUnits="strokeWidth">
			<use xlink:href="#lend4" transform="scale(-4.6,-4.6) "/>
		</marker>
	</defs>
	<g v:mID="0" v:index="1" v:groupContext="foregroundPage">
		<title>Page-1</title>
		<v:pageProperties v:drawingScale="0.0393701" v:pageScale="0.0393701" v:drawingUnits="24" v:shadowOffsetX="8.50394"
				v:shadowOffsetY="-8.50394"/>
		<g id="shape1-1" v:mID="1" v:groupContext="shape" transform="translate(320.815,-95.5687) scale(-1,1)">
			<title>Sheet.1</title>
			<desc>SP points here before interrupt</desc>
			<v:textBlock v:margins="rect(1,1,1,1)" v:tabSpace="42.5197"/>
			<v:textRect cx="56.7323" cy="103.829" width="113.47" height="11.3386"/>
			<rect x="0" y="98.1599" width="113.465" height="11.3386" class="st1"/>
			<text x="-112.46" y="106.23" transform="scale(-1,1)" class="st2" v:langID="2057"><v:paragraph/><v:tabList/>SP points here before interrupt</text>		</g>
		<g id="shape2-4" v:mID="2" v:groupContext="shape" transform="translate(207.35,117.759) rotate(180)">
			<title>Sheet.2</title>
			<path d="M0 109.5 L6.74 109.5" class="st3"/>
		</g>
		<g id="shape3-10" v:mID="3" v:groupContext="shape" transform="translate(207.35,208.468) rotate(180)">
			<title>Sheet.3</title>
			<path d="M0 109.5 L6.74 109.5" class="st3"/>
		</g>
		<g id="shape4-15" v:mID="4" v:groupContext="shape" transform="translate(196.012,-84.2301) scale(-1,1)">
			<title>Sheet.4</title>
			<desc>xPSR</desc>
			<v:textBlock v:margins="rect(2,2,2,2)" v:tabSpace="42.5197"/>
			<v:textRect cx="42.5197" cy="103.829" width="85.04" height="11.3386"/>
			<rect x="0" y="98.1599" width="85.0394" height="11.3386" class="st5"/>
			<text x="-52.74" y="106.24" transform="scale(-1,1)" class="st6" v:langID="1033"><v:paragraph v:horizAlign="1"/><v:tabList/>x<tspan
						class="st7">PSR</tspan></text>		</g>
		<g id="shape5-19" v:mID="5" v:groupContext="shape" transform="translate(196.012,-72.8915) scale(-1,1)">
			<title>Sheet.5</title>
			<desc>PC</desc>
			<v:textBlock v:margins="rect(2,2,2,2)" v:tabSpace="42.5197"/>
			<v:textRect cx="42.5197" cy="103.829" width="85.04" height="11.3386"/>
			<rect x="0" y="98.1599" width="85.0394" height="11.3386" class="st5"/>
			<text x="-48.07" y="106.23" transform="scale(-1,1)" class="st2" v:langID="1033"><v:paragraph v:horizAlign="1"/><v:tabList/>PC</text>		</g>
		<g id="shape6-22" v:mID="6" v:groupContext="shape" transform="translate(196.012,-61.5529) scale(-1,1)">
			<title>Sheet.6</title>
			<desc>LR</desc>
			<v:textBlock v:margins="rect(2,2,2,2)" v:tabSpace="42.5197"/>
			<v:textRect cx="42.5197" cy="103.829" width="85.04" height="11.3386"/>
			<rect x="0" y="98.1599" width="85.0394" height="11.3386" class="st5"/>
			<text x="-47.63" y="106.23" transform="scale(-1,1)" class="st2" v:langID="1033"><v:paragraph v:horizAlign="1"/><v:tabList/>LR</text>		</g>
		<g id="shape7-25" v:mID="7" v:groupContext="shape" transform="translate(196.012,-50.2143) scale(-1,1)">
			<title>Sheet.7</title>
			<desc>R12</desc>
			<v:textBlock v:margins="rect(2,2,2,2)" v:tabSpace="42.5197"/>
			<v:textRect cx="42.5197" cy="103.829" width="85.04" height="11.3386"/>
			<rect x="0" y="98.1599" width="85.0394" height="11.3386" class="st5"/>
			<text x="-49.85" y="106.23" transform="scale(-1,1)" class="st2" v:langID="2057"><v:paragraph v:horizAlign="1"/><v:tabList/>R<tspan
						class="st8" v:langID="1033">12</tspan></text>		</g>
		<g id="shape8-29" v:mID="8" v:groupContext="shape" transform="translate(196.012,-38.8757) scale(-1,1)">
			<title>Sheet.8</title>
			<desc>R3</desc>
			<v:textBlock v:margins="rect(2,2,2,2)" v:tabSpace="42.5197"/>
			<v:textRect cx="42.5197" cy="103.829" width="85.04" height="11.3386"/>
			<rect x="0" y="98.1599" width="85.0394" height="11.3386" class="st5"/>
			<text x="-47.63" y="106.23" transform="scale(-1,1)" class="st2" v:langID="2057"><v:paragraph v:horizAlign="1"/><v:tabList/>R<tspan
						class="st8" v:langID="1033">3</tspan></text>		</g>
		<g id="shape9-33" v:mID="9" v:groupContext="shape" transform="translate(196.012,-27.5372) scale(-1,1)">
			<title>Sheet.9</title>
			<desc>R2</desc>
			<v:textBlock v:margins="rect(2,2,2,2)" v:tabSpace="42.5197"/>
			<v:textRect cx="42.5197" cy="103.829" width="85.04" height="11.3386"/>
			<rect x="0" y="98.1599" width="85.0394" height="11.3386" class="st5"/>
			<text x="-47.63" y="106.23" transform="scale(-1,1)" class="st2" v:langID="2057"><v:paragraph v:horizAlign="1"/><v:tabList/>R<tspan
						class="st8" v:langID="1033">2</tspan></text>		</g>
		<g id="shape10-37" v:mID="10" v:groupContext="shape" transform="translate(196.012,-16.1986) scale(-1,1)">
			<title>Sheet.10</title>
			<desc>R1</desc>
			<v:textBlock v:margins="rect(2,2,2,2)" v:tabSpace="42.5197"/>
			<v:textRect cx="42.5197" cy="103.829" width="85.04" height="11.3386"/>
			<rect x="0" y="98.1599" width="85.0394" height="11.3386" class="st5"/>
			<text x="-47.63" y="106.23" transform="scale(-1,1)" class="st2" v:langID="2057"><v:paragraph v:horizAlign="1"/><v:tabList/>R<tspan
						class="st8" v:langID="1033">1</tspan></text>		</g>
		<g id="shape11-41" v:mID="11" v:groupContext="shape" transform="translate(196.012,-4.85999) scale(-1,1)">
			<title>Sheet.11</title>
			<desc>R0</desc>
			<v:textBlock v:margins="rect(2,2,2,2)" v:tabSpace="42.5197"/>
			<v:textRect cx="42.5197" cy="103.829" width="85.04" height="11.3386"/>
			<rect x="0" y="98.1599" width="85.0394" height="11.3386" class="st5"/>
			<text x="-47.63" y="106.23" transform="scale(-1,1)" class="st2" v:langID="2057"><v:paragraph v:horizAlign="1"/><v:tabList/>R0</text>		</g>
		<g id="shape12-44" v:mID="12" v:groupContext="shape" transform="translate(196.012,-95.5687) scale(-1,1)">
			<title>Sheet.12</title>
			<desc>&#60;previous&#62;</desc>
			<v:textBlock v:margins="rect(2,2,2,2)" v:tabSpace="42.5197"/>
			<v:textRect cx="42.5197" cy="103.829" width="85.04" height="11.3386"/>
			<rect x="0" y="98.1599" width="85.0394" height="11.3386" class="st5"/>
			<text x="-62.31" y="106.23" transform="scale(-1,1)" class="st2" v:langID="1033"><v:paragraph v:horizAlign="1"/><v:tabList/>&#60;previous&#62;</text>		</g>
		<g id="shape13-47" v:mID="13" v:groupContext="shape" transform="translate(315.146,-4.85999) scale(-1,1)">
			<title>Sheet.13</title>
			<desc>SP points here after interrupt</desc>
			<v:textBlock v:margins="rect(1,1,1,1)" v:tabSpace="42.5197"/>
			<v:textRect cx="53.8976" cy="103.829" width="107.8" height="11.3386"/>
			<rect x="0" y="98.1599" width="107.795" height="11.3386" class="st1"/>
			<text x="-106.8" y="106.23" transform="scale(-1,1)" class="st2" v:langID="2057"><v:paragraph/><v:tabList/>SP points here after interrupt</text>		</g>
		<g id="shape14-50" v:mID="14" v:groupContext="shape" transform="translate(166.77,5.14296) rotate(90)">
			<title>Sheet.14</title>
			<path d="M0 109.5 L94.61 109.5" class="st3"/>
		</g>
		<g id="shape15-55" v:mID="15" v:groupContext="shape" transform="translate(108.295,-89.8994) scale(-1,1)">
			<title>Sheet.15</title>
			<desc>SP + 0x1C</desc>
			<v:textBlock v:margins="rect(1,1,1,1)" v:tabSpace="42.5197"/>
			<v:textRect cx="22.7165" cy="109.499" width="45.44" height="0"/>
			<path d="M0 109.5 L45.43 109.5 L0 109.5 Z" class="st1"/>
			<text x="-44.37" y="111.9" transform="scale(-1,1)" class="st9" v:langID="2057"><v:paragraph v:horizAlign="2"/><v:tabList/>SP + 0x1C</text>		</g>
		<g id="shape16-58" v:mID="16" v:groupContext="shape" transform="translate(108.295,-78.5608) scale(-1,1)">
			<title>Sheet.16</title>
			<desc>SP + 0x18</desc>
			<v:textBlock v:margins="rect(1,1,1,1)" v:tabSpace="42.5197"/>
			<v:textRect cx="22.7165" cy="109.499" width="45.44" height="0"/>
			<path d="M0 109.5 L45.43 109.5 L0 109.5 Z" class="st1"/>
			<text x="-44.37" y="111.9" transform="scale(-1,1)" class="st9" v:langID="2057"><v:paragraph v:horizAlign="2"/><v:tabList/>SP + 0x18</text>		</g>
		<g id="shape17-61" v:mID="17" v:groupContext="shape" transform="translate(108.295,-67.2222) scale(-1,1)">
			<title>Sheet.17</title>
			<desc>SP + 0x14</desc>
			<v:textBlock v:margins="rect(1,1,1,1)" v:tabSpace="42.5197"/>
			<v:textRect cx="22.7165" cy="109.499" width="45.44" height="0"/>
			<path d="M0 109.5 L45.43 109.5 L0 109.5 Z" class="st1"/>
			<text x="-44.37" y="111.9" transform="scale(-1,1)" class="st9" v:langID="2057"><v:paragraph v:horizAlign="2"/><v:tabList/>SP + 0x14</text>		</g>
		<g id="shape18-64" v:mID="18" v:groupContext="shape" transform="translate(108.295,-55.8836) scale(-1,1)">
			<title>Sheet.18</title>
			<desc>SP + 0x10</desc>
			<v:textBlock v:margins="rect(1,1,1,1)" v:tabSpace="42.5197"/>
			<v:textRect cx="22.7165" cy="109.499" width="45.44" height="0"/>
			<path d="M0 109.5 L45.43 109.5 L0 109.5 Z" class="st1"/>
			<text x="-44.37" y="111.9" transform="scale(-1,1)" class="st9" v:langID="2057"><v:paragraph v:horizAlign="2"/><v:tabList/>SP + 0x10</text>		</g>
		<g id="shape19-67" v:mID="19" v:groupContext="shape" transform="translate(108.295,-44.545) scale(-1,1)">
			<title>Sheet.19</title>
			<desc>SP + 0x0C</desc>
			<v:textBlock v:margins="rect(1,1,1,1)" v:tabSpace="42.5197"/>
			<v:textRect cx="22.7165" cy="109.499" width="45.44" height="0"/>
			<path d="M0 109.5 L45.43 109.5 L0 109.5 Z" class="st1"/>
			<text x="-44.37" y="111.9" transform="scale(-1,1)" class="st9" v:langID="2057"><v:paragraph v:horizAlign="2"/><v:tabList/>SP + 0x0C</text>		</g>
		<g id="shape20-70" v:mID="20" v:groupContext="shape" transform="translate(108.295,-33.2064) scale(-1,1)">
			<title>Sheet.20</title>
			<desc>SP + 0x08</desc>
			<v:textBlock v:margins="rect(1,1,1,1)" v:tabSpace="42.5197"/>
			<v:textRect cx="22.7165" cy="109.499" width="45.44" height="0"/>
			<path d="M0 109.5 L45.43 109.5 L0 109.5 Z" class="st1"/>
			<text x="-44.37" y="111.9" transform="scale(-1,1)" class="st9" v:langID="2057"><v:paragraph v:horizAlign="2"/><v:tabList/>SP + 0x08</text>		</g>
		<g id="shape21-73" v:mID="21" v:groupContext="shape" transform="translate(108.295,-21.8679) scale(-1,1)">
			<title>Sheet.21</title>
			<desc>SP + 0x04</desc>
			<v:textBlock v:margins="rect(1,1,1,1)" v:tabSpace="42.5197"/>
			<v:textRect cx="22.7165" cy="109.499" width="45.44" height="0"/>
			<path d="M0 109.5 L45.43 109.5 L0 109.5 Z" class="st1"/>
			<text x="-44.37" y="111.9" transform="scale(-1,1)" class="st9" v:langID="2057"><v:paragraph v:horizAlign="2"/><v:tabList/>SP + 0x04</text>		</g>
		<g id="shape22-76" v:mID="22" v:groupContext="shape" transform="translate(108.295,-10.5293) scale(-1,1)">
			<title>Sheet.22</title>
			<desc>SP + 0x00</desc>
			<v:textBlock v:margins="rect(1,1,1,1)" v:tabSpace="42.5197"/>
			<v:textRect cx="22.7165" cy="109.499" width="45.44" height="0"/>
			<path d="M0 109.5 L45.43 109.5 L0 109.5 Z" class="st1"/>
			<text x="-44.37" y="111.9" transform="scale(-1,1)" class="st9" v:langID="2057"><v:paragraph v:horizAlign="2"/><v:tabList/>SP + 0x00</text>		</g>
		<g id="shape23-79" v:mID="23" v:groupContext="shape" transform="translate(54.3583,-49.08) scale(-1,1)">
			<title>Sheet.23</title>
			<desc>Decreasing memory address</desc>
			<v:textBlock v:margins="rect(1,1,1,1)" v:tabSpace="42.5197"/>
			<v:textRect cx="26.9291" cy="103.829" width="53.86" height="11.3386"/>
			<rect x="0" y="98.1599" width="53.8583" height="11.3386" class="st1"/>
			<text x="-41.47" y="96.63" transform="scale(-1,1)" class="st2" v:langID="2057"><v:paragraph v:horizAlign="2"/><v:tabList/>Decreasing <tspan
						x="-29.9" dy="1.2em" class="st8">memory </tspan><tspan x="-29.47" dy="1.2em" class="st8">address</tspan></text>		</g>
	</g>
</svg>
