<?xml version="1.0" encoding="UTF-8" standalone="no"?>
<!DOCTYPE svg PUBLIC "-//W3C//DTD SVG 1.0//EN" "http://www.w3.org/TR/2001/REC-SVG-20010904/DTD/svg10.dtd">
<!-- Generated by Microsoft Visio 11.0, SVG Export, v1.0 icsr_register_bit_assignments.svg Page-1 -->
<svg xmlns="http://www.w3.org/2000/svg" xmlns:v="http://schemas.microsoft.com/visio/2003/SVGExtensions/" width="5.06159in"
		height="1.94302in" viewBox="0 0 364.435 139.898" xml:space="preserve" color-interpolation-filters="sRGB" class="st8">
	<v:documentProperties v:langID="1033" v:metric="true" v:viewMarkup="false"/>

	<style type="text/css">
	<![CDATA[
		.st1 {fill:none;stroke:#000000;stroke-linecap:butt;stroke-width:0.8}
		.st2 {stroke:#000000;stroke-linecap:butt;stroke-width:0.8}
		.st3 {fill:none;stroke:none;stroke-linecap:butt;stroke-width:0.5}
		.st4 {fill:#000000;font-family:Arial;font-size:0.666664em}
		.st5 {stroke:#000000;stroke-dasharray:0.25,1;stroke-linecap:butt;stroke-width:0.25}
		.st6 {stroke:#000000;stroke-linecap:butt;stroke-width:0.5}
		.st7 {fill:#cc99ff;font-family:Arial;font-size:0.666664em}
		.st8 {fill:none;fill-rule:evenodd;font-size:12;overflow:visible;stroke-linecap:square;stroke-miterlimit:3}
	]]>
	</style>

	<g v:mID="0" v:index="1" v:groupContext="foregroundPage">
		<title>Page-1</title>
		<v:pageProperties v:drawingScale="0.0393701" v:pageScale="0.0393701" v:drawingUnits="24" v:shadowOffsetX="8.50394"
				v:shadowOffsetY="-8.50394"/>
		<g id="shape1-1" v:mID="1" v:groupContext="shape" transform="translate(0.8,-99.7126)">
			<title>Sheet.1</title>
			<rect x="0" y="111.551" width="362.835" height="28.3465" class="st1"/>
		</g>
		<g id="shape2-3" v:mID="2" v:groupContext="shape" transform="translate(152.036,11.8386) rotate(90)">
			<title>Sheet.2</title>
			<path d="M0 139.9 L28.35 139.9" class="st2"/>
		</g>
		<g id="shape3-6" v:mID="3" v:groupContext="shape" transform="translate(0.8,-128.059)">
			<title>Sheet.3</title>
			<desc>31</desc>
			<v:textBlock v:margins="rect(1,0,1,0)" v:tabSpace="42.5197"/>
			<v:textRect cx="5.66929" cy="134.228" width="11.34" height="11.3386"/>
			<rect x="0" y="128.559" width="11.3386" height="11.3386" class="st3"/>
			<text x="1.23" y="136.63" class="st4" v:langID="2057"><v:paragraph v:horizAlign="1"/><v:tabList/>31</text>		</g>
		<g id="shape4-9" v:mID="4" v:groupContext="shape" transform="translate(34.8157,-128.059)">
			<title>Sheet.4</title>
			<desc>28</desc>
			<v:textBlock v:margins="rect(1,0,1,0)" v:tabSpace="42.5197"/>
			<v:textRect cx="5.66929" cy="134.228" width="11.34" height="11.3386"/>
			<rect x="0" y="128.559" width="11.3386" height="11.3386" class="st3"/>
			<text x="1.23" y="136.63" class="st4" v:langID="2057"><v:paragraph v:horizAlign="1"/><v:tabList/>28</text>		</g>
		<g id="shape5-12" v:mID="5" v:groupContext="shape" transform="translate(102.847,-128.059)">
			<title>Sheet.5</title>
			<desc>22</desc>
			<v:textBlock v:margins="rect(1,0,1,0)" v:tabSpace="42.5197"/>
			<v:textRect cx="5.66929" cy="134.228" width="11.34" height="11.3386"/>
			<rect x="0" y="128.559" width="11.3386" height="11.3386" class="st3"/>
			<text x="1.23" y="136.63" class="st4" v:langID="2057"><v:paragraph v:horizAlign="1"/><v:tabList/>22</text>		</g>
		<g id="shape6-15" v:mID="6" v:groupContext="shape" transform="translate(114.186,-128.059)">
			<title>Sheet.6</title>
			<desc>21</desc>
			<v:textBlock v:margins="rect(1,0,1,0)" v:tabSpace="42.5197"/>
			<v:textRect cx="5.66929" cy="134.228" width="11.34" height="11.3386"/>
			<rect x="0" y="128.559" width="11.3386" height="11.3386" class="st3"/>
			<text x="1.23" y="136.63" class="st4" v:langID="2057"><v:paragraph v:horizAlign="1"/><v:tabList/>21</text>		</g>
		<g id="shape7-18" v:mID="7" v:groupContext="shape" transform="translate(352.296,-128.059)">
			<title>Sheet.7</title>
			<desc>0</desc>
			<v:textBlock v:margins="rect(1,0,1,0)" v:tabSpace="42.5197"/>
			<v:textRect cx="5.66929" cy="134.228" width="11.34" height="11.3386"/>
			<rect x="0" y="128.559" width="11.3386" height="11.3386" class="st3"/>
			<text x="3.45" y="136.63" class="st4" v:langID="2057"><v:paragraph v:horizAlign="1"/><v:tabList/>0</text>		</g>
		<g id="shape8-21" v:mID="8" v:groupContext="shape" transform="translate(254.083,11.8386) rotate(90)">
			<title>Sheet.8</title>
			<path d="M0 139.9 L28.35 139.9" class="st2"/>
		</g>
		<g id="shape9-24" v:mID="9" v:groupContext="shape" transform="translate(435.501,11.8386) rotate(90)">
			<title>Sheet.9</title>
			<path d="M0 139.9 L28.35 139.9" class="st2"/>
		</g>
		<g id="shape10-27" v:mID="10" v:groupContext="shape" transform="translate(295.603,-108.217)">
			<title>Sheet.10</title>
			<desc>VECTACTIVE</desc>
			<v:textBlock v:margins="rect(1,1,1,1)" v:tabSpace="42.5197"/>
			<v:textRect cx="34.0157" cy="134.228" width="68.04" height="11.3386"/>
			<rect x="0" y="128.559" width="68.0315" height="11.3386" class="st3"/>
			<text x="8.91" y="136.63" class="st4" v:langID="2057"><v:paragraph v:horizAlign="1"/><v:tabList/>VECTACTIVE</text>		</g>
		<g id="shape11-30" v:mID="11" v:groupContext="shape" transform="translate(12.1386,-128.059)">
			<title>Sheet.11</title>
			<desc>30</desc>
			<v:textBlock v:margins="rect(1,0,1,0)" v:tabSpace="42.5197"/>
			<v:textRect cx="5.66929" cy="134.228" width="11.34" height="11.3386"/>
			<rect x="0" y="128.559" width="11.3386" height="11.3386" class="st3"/>
			<text x="1.23" y="136.63" class="st4" v:langID="2057"><v:paragraph v:horizAlign="1"/><v:tabList/>30</text>		</g>
		<g id="shape12-33" v:mID="12" v:groupContext="shape" transform="translate(23.4772,-128.059)">
			<title>Sheet.12</title>
			<desc>29</desc>
			<v:textBlock v:margins="rect(1,0,1,0)" v:tabSpace="42.5197"/>
			<v:textRect cx="5.66929" cy="134.228" width="11.34" height="11.3386"/>
			<rect x="0" y="128.559" width="11.3386" height="11.3386" class="st3"/>
			<text x="1.23" y="136.63" class="st4" v:langID="2057"><v:paragraph v:horizAlign="1"/><v:tabList/>29</text>		</g>
		<g id="shape13-36" v:mID="13" v:groupContext="shape" transform="translate(174.713,11.8386) rotate(90)">
			<title>Sheet.13</title>
			<path d="M0 139.9 L28.35 139.9" class="st2"/>
		</g>
		<g id="shape14-39" v:mID="14" v:groupContext="shape" transform="translate(458.178,0.5) rotate(90)">
			<title>Time division.118</title>
			<path d="M0 139.9 L11.34 139.9" class="st5"/>
		</g>
		<g id="shape15-42" v:mID="15" v:groupContext="shape" transform="translate(412.824,0.5) rotate(90)">
			<title>Time division.119</title>
			<path d="M0 139.9 L11.34 139.9" class="st5"/>
		</g>
		<g id="shape16-45" v:mID="16" v:groupContext="shape" transform="translate(367.469,0.5) rotate(90)">
			<title>Time division.120</title>
			<path d="M0 139.9 L11.34 139.9" class="st5"/>
		</g>
		<g id="shape17-48" v:mID="17" v:groupContext="shape" transform="translate(322.115,0.5) rotate(90)">
			<title>Time division.121</title>
			<path d="M0 139.9 L11.34 139.9" class="st5"/>
		</g>
		<g id="shape18-51" v:mID="18" v:groupContext="shape" transform="translate(276.761,0.5) rotate(90)">
			<title>Time division.122</title>
			<path d="M0 139.9 L11.34 139.9" class="st5"/>
		</g>
		<g id="shape19-54" v:mID="19" v:groupContext="shape" transform="translate(231.406,0.5) rotate(90)">
			<title>Time division.123</title>
			<path d="M0 139.9 L11.34 139.9" class="st5"/>
		</g>
		<g id="shape20-57" v:mID="20" v:groupContext="shape" transform="translate(186.052,0.5) rotate(90)">
			<title>Time division.124</title>
			<path d="M0 139.9 L11.34 139.9" class="st5"/>
		</g>
		<g id="shape21-60" v:mID="21" v:groupContext="shape" transform="translate(503.532,0.5) rotate(90)">
			<title>Time division.125</title>
			<path d="M0 139.9 L11.34 139.9" class="st5"/>
		</g>
		<g id="shape22-63" v:mID="22" v:groupContext="shape" transform="translate(140.698,0.5) rotate(90)">
			<title>Time division.126</title>
			<path d="M0 139.9 L11.34 139.9" class="st5"/>
		</g>
		<g id="shape23-66" v:mID="23" v:groupContext="shape" transform="translate(186.052,11.8386) rotate(90)">
			<title>Sheet.23</title>
			<path d="M0 139.9 L28.35 139.9" class="st2"/>
		</g>
		<g id="shape24-69" v:mID="24" v:groupContext="shape" transform="translate(46.1543,-128.059)">
			<title>Sheet.24</title>
			<desc>27</desc>
			<v:textBlock v:margins="rect(1,0,1,0)" v:tabSpace="42.5197"/>
			<v:textRect cx="5.66929" cy="134.228" width="11.34" height="11.3386"/>
			<rect x="0" y="128.559" width="11.3386" height="11.3386" class="st3"/>
			<text x="1.23" y="136.63" class="st4" v:langID="2057"><v:paragraph v:horizAlign="1"/><v:tabList/>27</text>		</g>
		<g id="shape25-72" v:mID="25" v:groupContext="shape" transform="translate(57.4929,-128.059)">
			<title>Sheet.25</title>
			<desc>26</desc>
			<v:textBlock v:margins="rect(1,0,1,0)" v:tabSpace="42.5197"/>
			<v:textRect cx="5.66929" cy="134.228" width="11.34" height="11.3386"/>
			<rect x="0" y="128.559" width="11.3386" height="11.3386" class="st3"/>
			<text x="1.23" y="136.63" class="st4" v:langID="2057"><v:paragraph v:horizAlign="1"/><v:tabList/>26</text>		</g>
		<g id="shape26-75" v:mID="26" v:groupContext="shape" transform="translate(197.391,11.8386) rotate(90)">
			<title>Sheet.26</title>
			<path d="M0 139.9 L28.35 139.9" class="st2"/>
		</g>
		<g id="shape27-78" v:mID="27" v:groupContext="shape" transform="translate(242.745,11.8386) rotate(90)">
			<title>Sheet.27</title>
			<path d="M0 139.9 L28.35 139.9" class="st2"/>
		</g>
		<g id="shape28-81" v:mID="28" v:groupContext="shape" transform="translate(91.5087,-128.059)">
			<title>Sheet.28</title>
			<desc>23</desc>
			<v:textBlock v:margins="rect(1,0,1,0)" v:tabSpace="42.5197"/>
			<v:textRect cx="5.66929" cy="134.228" width="11.34" height="11.3386"/>
			<rect x="0" y="128.559" width="11.3386" height="11.3386" class="st3"/>
			<text x="1.23" y="136.63" class="st4" v:langID="2057"><v:paragraph v:horizAlign="1"/><v:tabList/>23</text>		</g>
		<g id="shape29-84" v:mID="29" v:groupContext="shape" transform="translate(80.1701,-128.059)">
			<title>Sheet.29</title>
			<desc>24</desc>
			<v:textBlock v:margins="rect(1,0,1,0)" v:tabSpace="42.5197"/>
			<v:textRect cx="5.66929" cy="134.228" width="11.34" height="11.3386"/>
			<rect x="0" y="128.559" width="11.3386" height="11.3386" class="st3"/>
			<text x="1.23" y="136.63" class="st4" v:langID="2057"><v:paragraph v:horizAlign="1"/><v:tabList/>24</text>		</g>
		<g id="shape30-87" v:mID="30" v:groupContext="shape" transform="translate(216.233,-128.059)">
			<title>Sheet.30</title>
			<desc>12</desc>
			<v:textBlock v:margins="rect(1,0,1,0)" v:tabSpace="42.5197"/>
			<v:textRect cx="5.66929" cy="134.228" width="11.34" height="11.3386"/>
			<rect x="0" y="128.559" width="11.3386" height="11.3386" class="st3"/>
			<text x="1.23" y="136.63" class="st4" v:langID="2057"><v:paragraph v:horizAlign="1"/><v:tabList/>12</text>		</g>
		<g id="shape31-90" v:mID="31" v:groupContext="shape" transform="translate(227.572,-128.059)">
			<title>Sheet.31</title>
			<desc>11</desc>
			<v:textBlock v:margins="rect(1,0,1,0)" v:tabSpace="42.5197"/>
			<v:textRect cx="5.66929" cy="134.228" width="11.34" height="11.3386"/>
			<rect x="0" y="128.559" width="11.3386" height="11.3386" class="st3"/>
			<text x="1.23" y="136.63" class="st4" v:langID="2057"><v:paragraph v:horizAlign="1"/><v:tabList/>11</text>		</g>
		<g id="shape32-93" v:mID="32" v:groupContext="shape" transform="translate(159.54,-108.217)">
			<title>Sheet.32</title>
			<desc>VECTPENDING</desc>
			<v:textBlock v:margins="rect(1,1,1,1)" v:tabSpace="42.5197"/>
			<v:textRect cx="34.0157" cy="134.228" width="68.04" height="11.3386"/>
			<rect x="0" y="128.559" width="68.0315" height="11.3386" class="st3"/>
			<text x="5.13" y="136.63" class="st4" v:langID="2057"><v:paragraph v:horizAlign="1"/><v:tabList/>VECTPENDING</text>		</g>
		<g id="shape33-96" v:mID="33" v:groupContext="shape" transform="translate(119.855,-0.5)">
			<title>Sheet.33</title>
			<desc>NMIPENDSET</desc>
			<v:textBlock v:margins="rect(1,1,1,2)" v:tabSpace="42.5197"/>
			<v:textRect cx="29.7638" cy="134.228" width="59.53" height="11.3386"/>
			<rect x="0" y="128.559" width="59.5276" height="11.3386" class="st3"/>
			<text x="2" y="136.63" class="st4" v:langID="2057"><v:paragraph/><v:tabList/>NMIPENDSET</text>		</g>
		<g id="shape34-99" v:mID="34" v:groupContext="shape" transform="translate(119.855,-23.1772)">
			<title>Sheet.34</title>
			<desc>PENDSVSET</desc>
			<v:textBlock v:margins="rect(1,1,1,2)" v:tabSpace="42.5197"/>
			<v:textRect cx="29.7638" cy="134.228" width="59.53" height="11.3386"/>
			<rect x="0" y="128.559" width="59.5276" height="11.3386" class="st3"/>
			<text x="2" y="136.63" class="st4" v:langID="2057"><v:paragraph/><v:tabList/>PENDSVSET</text>		</g>
		<g id="shape35-102" v:mID="35" v:groupContext="shape" transform="translate(108.517,-85.5394)">
			<title>Sheet.35</title>
			<path d="M0 128.56 L0 139.9 L11.34 139.9" class="st6"/>
		</g>
		<g id="shape36-105" v:mID="36" v:groupContext="shape" transform="translate(119.855,-34.5157)">
			<title>Sheet.36</title>
			<desc>PENDSVCLR</desc>
			<v:textBlock v:margins="rect(1,1,1,2)" v:tabSpace="42.5197"/>
			<v:textRect cx="29.7638" cy="134.228" width="59.53" height="11.3386"/>
			<rect x="0" y="128.559" width="59.5276" height="11.3386" class="st3"/>
			<text x="2" y="136.63" class="st4" v:langID="2057"><v:paragraph/><v:tabList/>PENDSVCLR</text>		</g>
		<g id="shape37-108" v:mID="37" v:groupContext="shape" transform="translate(119.855,-79.8701)">
			<title>Sheet.37</title>
			<desc>ISRPENDING</desc>
			<v:textBlock v:margins="rect(1,1,1,2)" v:tabSpace="42.5197"/>
			<v:textRect cx="29.7638" cy="134.228" width="59.53" height="11.3386"/>
			<rect x="0" y="128.559" width="59.5276" height="11.3386" class="st3"/>
			<text x="2" y="136.63" class="st4" v:langID="2057"><v:paragraph/><v:tabList/>ISRPENDING</text>		</g>
		<g id="shape38-111" v:mID="38" v:groupContext="shape" transform="translate(51.8236,-40.185)">
			<title>Sheet.38</title>
			<path d="M0 83.2 L0 139.9 L68.03 139.9" class="st6"/>
		</g>
		<g id="shape39-114" v:mID="39" v:groupContext="shape" transform="translate(40.485,-28.8465)">
			<title>Sheet.39</title>
			<path d="M0 71.87 L0 139.9 L79.37 139.9" class="st6"/>
		</g>
		<g id="shape40-117" v:mID="40" v:groupContext="shape" transform="translate(6.46929,-6.16929)">
			<title>Sheet.40</title>
			<path d="M0 49.19 L0 139.9 L113.39 139.9" class="st6"/>
		</g>
		<g id="shape41-120" v:mID="41" v:groupContext="shape" transform="translate(367.469,11.8386) rotate(90)">
			<title>Sheet.41</title>
			<path d="M0 139.9 L28.35 139.9" class="st2"/>
		</g>
		<g id="shape42-123" v:mID="42" v:groupContext="shape" transform="translate(227.572,-108.217)">
			<title>Sheet.42</title>
			<desc>Reserved</desc>
			<v:textBlock v:margins="rect(1,1,1,2)" v:tabSpace="42.5197"/>
			<v:textRect cx="34.0157" cy="134.228" width="68.04" height="11.3386"/>
			<rect x="0" y="128.559" width="68.0315" height="11.3386" class="st3"/>
			<text x="17.41" y="136.63" class="st4" v:langID="2057"><v:paragraph v:horizAlign="1"/><v:tabList/>Reserved</text>		</g>
		<g id="shape43-126" v:mID="43" v:groupContext="shape" transform="translate(208.729,11.8386) rotate(90)">
			<title>Sheet.43</title>
			<path d="M0 139.9 L28.35 139.9" class="st2"/>
		</g>
		<g id="shape44-129" v:mID="44" v:groupContext="shape" transform="translate(220.068,11.8386) rotate(90)">
			<title>Sheet.44</title>
			<path d="M0 139.9 L28.35 139.9" class="st2"/>
		</g>
		<g id="shape45-132" v:mID="45" v:groupContext="shape" transform="translate(68.8315,-128.059)">
			<title>Sheet.45</title>
			<desc>25</desc>
			<v:textBlock v:margins="rect(1,0,1,0)" v:tabSpace="42.5197"/>
			<v:textRect cx="5.66929" cy="134.228" width="11.34" height="11.3386"/>
			<rect x="0" y="128.559" width="11.3386" height="11.3386" class="st3"/>
			<text x="1.23" y="136.63" class="st4" v:langID="2057"><v:paragraph v:horizAlign="1"/><v:tabList/>25</text>		</g>
		<g id="shape46-135" v:mID="46" v:groupContext="shape" transform="translate(119.855,-45.8543)">
			<title>Sheet.46</title>
			<desc>PENDSTSET | Reserved</desc>
			<v:textBlock v:margins="rect(1,1,1,2)" v:tabSpace="42.5197"/>
			<v:textRect cx="49.6063" cy="134.228" width="99.22" height="11.3386"/>
			<rect x="0" y="128.559" width="99.2126" height="11.3386" class="st3"/>
			<text x="2" y="136.63" class="st7" v:langID="2057"><v:paragraph/><v:tabList/>PENDSTSET | Reserved</text>		</g>
		<g id="shape47-138" v:mID="47" v:groupContext="shape" transform="translate(62.8079,-51.5236)">
			<title>Sheet.47</title>
			<path d="M0 94.54 L0 139.9 L57.05 139.9" class="st6"/>
		</g>
		<g id="shape48-141" v:mID="48" v:groupContext="shape" transform="translate(119.855,-57.1929)">
			<title>Sheet.48</title>
			<desc>PENDSTCLR | Reserved</desc>
			<v:textBlock v:margins="rect(1,1,1,2)" v:tabSpace="42.5197"/>
			<v:textRect cx="48.189" cy="134.228" width="96.38" height="11.3386"/>
			<rect x="0" y="128.559" width="96.378" height="11.3386" class="st3"/>
			<text x="2" y="136.63" class="st7" v:langID="2057"><v:paragraph/><v:tabList/>PENDSTCLR | Reserved</text>		</g>
		<g id="shape49-144" v:mID="49" v:groupContext="shape" transform="translate(74.5008,-62.8622)">
			<title>Sheet.49</title>
			<path d="M0 105.88 L0 139.9 L45.35 139.9" class="st6"/>
		</g>
		<g id="shape50-147" v:mID="50" v:groupContext="shape" transform="translate(119.855,-68.5315)">
			<title>Sheet.50</title>
			<desc>Reserved</desc>
			<v:textBlock v:margins="rect(1,1,1,2)" v:tabSpace="42.5197"/>
			<v:textRect cx="29.7638" cy="134.228" width="59.53" height="11.3386"/>
			<rect x="0" y="128.559" width="59.5276" height="11.3386" class="st3"/>
			<text x="2" y="136.63" class="st4" v:langID="2057"><v:paragraph/><v:tabList/>Reserved</text>		</g>
		<g id="shape51-150" v:mID="51" v:groupContext="shape" transform="translate(91.5087,-74.2008)">
			<title>Sheet.51</title>
			<path d="M0 117.22 L0 139.9 L28.35 139.9" class="st6"/>
		</g>
		<g id="shape52-153" v:mID="52" v:groupContext="shape" transform="translate(119.855,-11.8386)">
			<title>Sheet.52</title>
			<desc>Reserved</desc>
			<v:textBlock v:margins="rect(1,1,1,2)" v:tabSpace="42.5197"/>
			<v:textRect cx="29.7638" cy="134.228" width="59.53" height="11.3386"/>
			<rect x="0" y="128.559" width="59.5276" height="11.3386" class="st3"/>
			<text x="2" y="136.63" class="st4" v:langID="2057"><v:paragraph/><v:tabList/>Reserved</text>		</g>
		<g id="shape53-156" v:mID="53" v:groupContext="shape" transform="translate(23.4772,-17.5079)">
			<title>Sheet.53</title>
			<path d="M0 60.53 L0 139.9 L96.38 139.9" class="st6"/>
		</g>
		<g id="shape54-159" v:mID="54" v:groupContext="shape" transform="translate(295.603,-128.059)">
			<title>Sheet.54</title>
			<desc>5</desc>
			<v:textBlock v:margins="rect(1,0,1,0)" v:tabSpace="42.5197"/>
			<v:textRect cx="5.66929" cy="134.228" width="11.34" height="11.3386"/>
			<rect x="0" y="128.559" width="11.3386" height="11.3386" class="st3"/>
			<text x="3.45" y="136.63" class="st4" v:langID="2057"><v:paragraph v:horizAlign="1"/><v:tabList/>5</text>		</g>
		<g id="shape55-162" v:mID="55" v:groupContext="shape" transform="translate(284.265,-128.059)">
			<title>Sheet.55</title>
			<desc>6</desc>
			<v:textBlock v:margins="rect(1,0,1,0)" v:tabSpace="42.5197"/>
			<v:textRect cx="5.66929" cy="134.228" width="11.34" height="11.3386"/>
			<rect x="0" y="128.559" width="11.3386" height="11.3386" class="st3"/>
			<text x="3.45" y="136.63" class="st4" v:langID="2057"><v:paragraph v:horizAlign="1"/><v:tabList/>6</text>		</g>
		<g id="shape56-165" v:mID="56" v:groupContext="shape" transform="translate(159.54,-128.059)">
			<title>Sheet.56</title>
			<desc>17</desc>
			<v:textBlock v:margins="rect(1,0,1,0)" v:tabSpace="42.5197"/>
			<v:textRect cx="5.66929" cy="134.228" width="11.34" height="11.3386"/>
			<rect x="0" y="128.559" width="11.3386" height="11.3386" class="st3"/>
			<text x="1.23" y="136.63" class="st4" v:langID="2057"><v:paragraph v:horizAlign="1"/><v:tabList/>17</text>		</g>
		<g id="shape57-168" v:mID="57" v:groupContext="shape" transform="translate(148.202,-128.059)">
			<title>Sheet.57</title>
			<desc>18</desc>
			<v:textBlock v:margins="rect(1,0,1,0)" v:tabSpace="42.5197"/>
			<v:textRect cx="5.66929" cy="134.228" width="11.34" height="11.3386"/>
			<rect x="0" y="128.559" width="11.3386" height="11.3386" class="st3"/>
			<text x="1.23" y="136.63" class="st4" v:langID="2057"><v:paragraph v:horizAlign="1"/><v:tabList/>18</text>		</g>
		<g id="shape58-171" v:mID="58" v:groupContext="shape" transform="translate(299.438,11.8386) rotate(90)">
			<title>Sheet.58</title>
			<path d="M0 139.9 L28.35 139.9" class="st2"/>
		</g>
		<g id="shape59-174" v:mID="59" v:groupContext="shape" transform="translate(114.186,-108.217)">
			<title>Sheet.59</title>
			<desc>Reserved</desc>
			<v:textBlock v:margins="rect(1,1,1,2)" v:tabSpace="42.5197"/>
			<v:textRect cx="22.6772" cy="134.228" width="45.36" height="11.3386"/>
			<rect x="0" y="128.559" width="45.3543" height="11.3386" class="st3"/>
			<text x="6.06" y="136.63" class="st4" v:langID="2057"><v:paragraph v:horizAlign="1"/><v:tabList/>Reserved</text>		</g>
	</g>
</svg>
