<?xml version="1.0" encoding="UTF-8" standalone="no"?>
<!DOCTYPE svg PUBLIC "-//W3C//DTD SVG 1.0//EN" "http://www.w3.org/TR/2001/REC-SVG-20010904/DTD/svg10.dtd">
<!-- Generated by Microsoft Visio 11.0, SVG Export, v1.0 processor_core_register_set.svg Page-1 -->
<svg xmlns="http://www.w3.org/2000/svg" xmlns:v="http://schemas.microsoft.com/visio/2003/SVGExtensions/" width="4.89578in"
		height="3.08476in" viewBox="0 0 352.496 222.102" xml:space="preserve" color-interpolation-filters="sRGB" class="st8">
	<v:documentProperties v:langID="1033" v:metric="true" v:viewMarkup="false"/>

	<style type="text/css">
	<![CDATA[
		.st1 {fill:none;stroke:none;stroke-linecap:butt;stroke-width:0.5}
		.st2 {fill:#000000;font-family:Arial;font-size:0.666664em}
		.st3 {fill:#ffffff;fill-opacity:0.85;stroke:#000000;stroke-linecap:butt;stroke-width:0.5}
		.st4 {fill:#ffffff;stroke:#000000;stroke-linecap:butt;stroke-width:0.5}
		.st5 {font-size:1em}
		.st6 {stroke:#000000;stroke-linecap:butt;stroke-width:0.5}
		.st7 {fill:#ffffff;stroke:none;stroke-linecap:butt;stroke-width:7.2}
		.st8 {fill:none;fill-rule:evenodd;font-size:12;overflow:visible;stroke-linecap:square;stroke-miterlimit:3}
	]]>
	</style>

	<g v:mID="0" v:index="1" v:groupContext="foregroundPage">
		<title>Page-1</title>
		<v:pageProperties v:drawingScale="0.0393701" v:pageScale="0.0393701" v:drawingUnits="24" v:shadowOffsetX="8.50394"
				v:shadowOffsetY="-8.50394"/>
		<g id="shape1-1" v:mID="1" v:groupContext="shape" transform="translate(14.1299,-38.3238)">
			<title>Sheet.1</title>
			<desc>Program Counter</desc>
			<v:textBlock v:margins="rect(1,1,1,1)" v:tabSpace="42.5197"/>
			<v:textRect cx="34.0157" cy="216.433" width="68.04" height="11.3386"/>
			<rect x="0" y="210.764" width="68.0315" height="11.3386" class="st1"/>
			<text x="5.67" y="218.83" class="st2" v:langID="1033"><v:paragraph v:horizAlign="2"/><v:tabList/>Program Counter</text>		</g>
		<g id="shape2-4" v:mID="2" v:groupContext="shape" transform="translate(85.5394,-62.8622)">
			<title>Sheet.2</title>
			<desc>SP (R13)</desc>
			<v:textBlock v:margins="rect(1,4,1,4)" v:tabSpace="42.5197"/>
			<v:textRect cx="39.685" cy="216.433" width="79.38" height="11.3386"/>
			<rect x="0" y="210.764" width="79.3701" height="11.3386" class="st3"/>
			<text x="23.24" y="218.83" class="st2" v:langID="1033"><v:paragraph v:horizAlign="1"/><v:tabList/>SP (R13)</text>		</g>
		<g id="shape3-7" v:mID="3" v:groupContext="shape" transform="translate(85.5394,-51.5236)">
			<title>Sheet.3</title>
			<desc>LR (R14)</desc>
			<v:textBlock v:margins="rect(1,4,1,4)" v:tabSpace="42.5197"/>
			<v:textRect cx="39.685" cy="216.433" width="79.38" height="11.3386"/>
			<rect x="0" y="210.764" width="79.3701" height="11.3386" class="st4"/>
			<text x="23.46" y="218.83" class="st2" v:langID="1033"><v:paragraph v:horizAlign="1"/><v:tabList/>LR (R14)</text>		</g>
		<g id="shape4-10" v:mID="4" v:groupContext="shape" transform="translate(85.5394,-40.185)">
			<title>Sheet.4</title>
			<desc>PC (R15)</desc>
			<v:textBlock v:margins="rect(1,4,1,4)" v:tabSpace="42.5197"/>
			<v:textRect cx="39.685" cy="216.433" width="79.38" height="11.3386"/>
			<rect x="0" y="210.764" width="79.3701" height="11.3386" class="st4"/>
			<text x="23.02" y="218.83" class="st2" v:langID="1033"><v:paragraph v:horizAlign="1"/><v:tabList/>PC (R15)</text>		</g>
		<g id="shape5-13" v:mID="5" v:groupContext="shape" transform="translate(85.5394,-153.571)">
			<title>Sheet.5</title>
			<desc>R5</desc>
			<v:textBlock v:margins="rect(1,4,1,4)" v:tabSpace="42.5197"/>
			<v:textRect cx="39.685" cy="216.433" width="79.38" height="11.3386"/>
			<rect x="0" y="210.764" width="79.3701" height="11.3386" class="st4"/>
			<text x="34.57" y="218.83" class="st2" v:langID="1033"><v:paragraph v:horizAlign="1"/><v:tabList/>R5</text>		</g>
		<g id="shape6-16" v:mID="6" v:groupContext="shape" transform="translate(85.5394,-142.232)">
			<title>Sheet.6</title>
			<desc>R6</desc>
			<v:textBlock v:margins="rect(1,4,1,4)" v:tabSpace="42.5197"/>
			<v:textRect cx="39.685" cy="216.433" width="79.38" height="11.3386"/>
			<rect x="0" y="210.764" width="79.3701" height="11.3386" class="st4"/>
			<text x="34.57" y="218.83" class="st2" v:langID="1033"><v:paragraph v:horizAlign="1"/><v:tabList/>R6</text>		</g>
		<g id="shape7-19" v:mID="7" v:groupContext="shape" transform="translate(85.5394,-130.894)">
			<title>Sheet.7</title>
			<desc>R7</desc>
			<v:textBlock v:margins="rect(1,4,1,4)" v:tabSpace="42.5197"/>
			<v:textRect cx="39.685" cy="216.433" width="79.38" height="11.3386"/>
			<rect x="0" y="210.764" width="79.3701" height="11.3386" class="st4"/>
			<text x="34.57" y="218.83" class="st2" v:langID="1033"><v:paragraph v:horizAlign="1"/><v:tabList/>R7</text>		</g>
		<g id="shape8-22" v:mID="8" v:groupContext="shape" transform="translate(85.5394,-210.264)">
			<title>Sheet.8</title>
			<desc>R0</desc>
			<v:textBlock v:margins="rect(1,4,1,4)" v:tabSpace="42.5197"/>
			<v:textRect cx="39.685" cy="216.433" width="79.38" height="11.3386"/>
			<rect x="0" y="210.764" width="79.3701" height="11.3386" class="st4"/>
			<text x="34.57" y="218.83" class="st2" v:langID="1033"><v:paragraph v:horizAlign="1"/><v:tabList/>R0</text>		</g>
		<g id="shape9-25" v:mID="9" v:groupContext="shape" transform="translate(85.5394,-198.925)">
			<title>Sheet.9</title>
			<desc>R1</desc>
			<v:textBlock v:margins="rect(1,4,1,4)" v:tabSpace="42.5197"/>
			<v:textRect cx="39.685" cy="216.433" width="79.38" height="11.3386"/>
			<rect x="0" y="210.764" width="79.3701" height="11.3386" class="st4"/>
			<text x="34.57" y="218.83" class="st2" v:langID="1033"><v:paragraph v:horizAlign="1"/><v:tabList/>R1</text>		</g>
		<g id="shape10-28" v:mID="10" v:groupContext="shape" transform="translate(85.5394,-176.248)">
			<title>Sheet.10</title>
			<desc>R3</desc>
			<v:textBlock v:margins="rect(1,4,1,4)" v:tabSpace="42.5197"/>
			<v:textRect cx="39.685" cy="216.433" width="79.38" height="11.3386"/>
			<rect x="0" y="210.764" width="79.3701" height="11.3386" class="st4"/>
			<text x="34.57" y="218.83" class="st2" v:langID="1033"><v:paragraph v:horizAlign="1"/><v:tabList/>R3</text>		</g>
		<g id="shape11-31" v:mID="11" v:groupContext="shape" transform="translate(85.5394,-164.909)">
			<title>Sheet.11</title>
			<desc>R4</desc>
			<v:textBlock v:margins="rect(1,4,1,4)" v:tabSpace="42.5197"/>
			<v:textRect cx="39.685" cy="216.433" width="79.38" height="11.3386"/>
			<rect x="0" y="210.764" width="79.3701" height="11.3386" class="st4"/>
			<text x="34.57" y="218.83" class="st2" v:langID="1033"><v:paragraph v:horizAlign="1"/><v:tabList/>R4</text>		</g>
		<g id="shape12-34" v:mID="12" v:groupContext="shape" transform="translate(85.5394,-187.587)">
			<title>Sheet.12</title>
			<desc>R2</desc>
			<v:textBlock v:margins="rect(1,4,1,4)" v:tabSpace="42.5197"/>
			<v:textRect cx="39.685" cy="216.433" width="79.38" height="11.3386"/>
			<rect x="0" y="210.764" width="79.3701" height="11.3386" class="st4"/>
			<text x="34.57" y="218.83" class="st2" v:langID="1033"><v:paragraph v:horizAlign="1"/><v:tabList/>R2</text>		</g>
		<g id="shape13-37" v:mID="13" v:groupContext="shape" transform="translate(85.5394,-96.878)">
			<title>Sheet.13</title>
			<desc>R10</desc>
			<v:textBlock v:margins="rect(1,4,1,4)" v:tabSpace="42.5197"/>
			<v:textRect cx="39.685" cy="216.433" width="79.38" height="11.3386"/>
			<rect x="0" y="210.764" width="79.3701" height="11.3386" class="st4"/>
			<text x="32.35" y="218.83" class="st2" v:langID="1033"><v:paragraph v:horizAlign="1"/><v:tabList/>R10</text>		</g>
		<g id="shape14-40" v:mID="14" v:groupContext="shape" transform="translate(85.5394,-85.5394)">
			<title>Sheet.14</title>
			<desc>R11</desc>
			<v:textBlock v:margins="rect(1,4,1,4)" v:tabSpace="42.5197"/>
			<v:textRect cx="39.685" cy="216.433" width="79.38" height="11.3386"/>
			<rect x="0" y="210.764" width="79.3701" height="11.3386" class="st4"/>
			<text x="32.35" y="218.83" class="st2" v:langID="1033"><v:paragraph v:horizAlign="1"/><v:tabList/>R11</text>		</g>
		<g id="shape15-43" v:mID="15" v:groupContext="shape" transform="translate(85.5394,-74.2008)">
			<title>Sheet.15</title>
			<desc>R12</desc>
			<v:textBlock v:margins="rect(1,4,1,4)" v:tabSpace="42.5197"/>
			<v:textRect cx="39.685" cy="216.433" width="79.38" height="11.3386"/>
			<rect x="0" y="210.764" width="79.3701" height="11.3386" class="st4"/>
			<text x="32.35" y="218.83" class="st2" v:langID="1033"><v:paragraph v:horizAlign="1"/><v:tabList/>R12</text>		</g>
		<g id="shape16-46" v:mID="16" v:groupContext="shape" transform="translate(85.5394,-119.555)">
			<title>Sheet.16</title>
			<desc>R8</desc>
			<v:textBlock v:margins="rect(1,4,1,4)" v:tabSpace="42.5197"/>
			<v:textRect cx="39.685" cy="216.433" width="79.38" height="11.3386"/>
			<rect x="0" y="210.764" width="79.3701" height="11.3386" class="st4"/>
			<text x="34.57" y="218.83" class="st2" v:langID="1033"><v:paragraph v:horizAlign="1"/><v:tabList/>R8</text>		</g>
		<g id="shape17-49" v:mID="17" v:groupContext="shape" transform="translate(85.5394,-108.217)">
			<title>Sheet.17</title>
			<desc>R9</desc>
			<v:textBlock v:margins="rect(1,4,1,4)" v:tabSpace="42.5197"/>
			<v:textRect cx="39.685" cy="216.433" width="79.38" height="11.3386"/>
			<rect x="0" y="210.764" width="79.3701" height="11.3386" class="st4"/>
			<text x="34.57" y="218.83" class="st2" v:langID="1033"><v:paragraph v:horizAlign="1"/><v:tabList/>R9</text>		</g>
		<g id="shape34-52" v:mID="34" v:groupContext="shape" transform="translate(11.8386,-170.579)">
			<title>Sheet.34</title>
			<desc>Low registers</desc>
			<v:textBlock v:margins="rect(1,4,1,4)" v:tabSpace="42.5197"/>
			<v:textRect cx="28.3465" cy="216.433" width="56.7" height="11.3386"/>
			<rect x="0" y="210.764" width="56.6929" height="11.3386" class="st1"/>
			<text x="5.12" y="218.83" class="st2" v:langID="1033"><v:paragraph v:horizAlign="2"/><v:tabList/>Low registers</text>		</g>
		<g id="shape35-55" v:mID="35" v:groupContext="shape" transform="translate(0.5,-96.878)">
			<title>Sheet.35</title>
			<desc>High registers</desc>
			<v:textBlock v:margins="rect(1,4,1,4)" v:tabSpace="42.5197"/>
			<v:textRect cx="33.6614" cy="216.433" width="67.33" height="11.3386"/>
			<rect x="0" y="210.764" width="67.3228" height="11.3386" class="st1"/>
			<text x="13.97" y="218.83" class="st2" v:langID="1033"><v:paragraph v:horizAlign="2"/><v:tabList/>High registers</text>		</g>
		<g id="shape36-58" v:mID="36" v:groupContext="shape" transform="translate(272.626,-62.8622)">
			<title>Sheet.36</title>
			<desc>MSP</desc>
			<v:textBlock v:margins="rect(1,4,1,4)" v:tabSpace="42.5197"/>
			<v:textRect cx="39.685" cy="216.433" width="79.38" height="11.3386"/>
			<rect x="0" y="210.764" width="79.3701" height="11.3386" class="st4"/>
			<text x="31.02" y="218.83" class="st2" v:langID="1033"><v:paragraph v:horizAlign="1"/><v:tabList/>MSP</text>		</g>
		<g id="shape37-61" v:mID="37" v:groupContext="shape" transform="translate(187.587,-62.8622)">
			<title>Sheet.37</title>
			<desc>PSP</desc>
			<v:textBlock v:margins="rect(1,4,1,4)" v:tabSpace="42.5197"/>
			<v:textRect cx="39.685" cy="216.433" width="79.38" height="11.3386"/>
			<rect x="0" y="210.764" width="79.3701" height="11.3386" class="st4"/>
			<text x="31.68" y="218.83" class="st2" v:langID="1033"><v:paragraph v:horizAlign="1"/><v:tabList/>PSP</text>		</g>
		<g id="shape38-64" v:mID="38" v:groupContext="shape" transform="translate(85.5394,-0.5)">
			<title>Sheet.38</title>
			<desc>CONTROL</desc>
			<v:textBlock v:margins="rect(2,4,2,4)" v:tabSpace="42.5197"/>
			<v:textRect cx="39.685" cy="216.433" width="79.38" height="11.3386"/>
			<rect x="0" y="210.764" width="79.3701" height="11.3386" class="st4"/>
			<text x="20.13" y="218.83" class="st2" v:langID="1033"><v:paragraph v:horizAlign="1"/><v:tabList/>C<tspan class="st5"
						v:langID="2057">ONTROL</tspan></text>		</g>
		<g id="shape39-68" v:mID="39" v:groupContext="shape" transform="translate(85.5394,-23.1772)">
			<title>Sheet.39</title>
			<desc>PSR</desc>
			<v:textBlock v:margins="rect(2,4,2,4)" v:tabSpace="42.5197"/>
			<v:textRect cx="39.685" cy="216.433" width="79.38" height="11.3386"/>
			<rect x="0" y="210.764" width="79.3701" height="11.3386" class="st4"/>
			<text x="31.46" y="218.83" class="st2" v:langID="1033"><v:paragraph v:horizAlign="1"/><v:tabList/>PSR</text>		</g>
		<g id="shape40-71" v:mID="40" v:groupContext="shape" transform="translate(15.5472,-49.6624)">
			<title>Sheet.40</title>
			<desc>Link Register</desc>
			<v:textBlock v:margins="rect(1,1,1,1)" v:tabSpace="42.5197"/>
			<v:textRect cx="33.3071" cy="216.433" width="66.62" height="11.3386"/>
			<rect x="0" y="210.764" width="66.6142" height="11.3386" class="st1"/>
			<text x="18.93" y="218.83" class="st2" v:langID="1033"><v:paragraph v:horizAlign="2"/><v:tabList/>Link Register</text>		</g>
		<g id="shape41-74" v:mID="41" v:groupContext="shape" transform="translate(14.1299,-61.001)">
			<title>Sheet.41</title>
			<desc>Stack Pointer</desc>
			<v:textBlock v:margins="rect(1,1,1,1)" v:tabSpace="42.5197"/>
			<v:textRect cx="34.0157" cy="216.433" width="68.04" height="11.3386"/>
			<rect x="0" y="210.764" width="68.0315" height="11.3386" class="st1"/>
			<text x="19.45" y="218.83" class="st2" v:langID="1033"><v:paragraph v:horizAlign="2"/><v:tabList/>Stack Pointer</text>		</g>
		<g id="shape50-77" v:mID="50" v:groupContext="shape" transform="translate(181.917,-142.232)">
			<title>Sheet.50</title>
			<desc>General purpose registers</desc>
			<v:textBlock v:margins="rect(1,4,1,4)" v:tabSpace="42.5197"/>
			<v:textRect cx="52.4409" cy="216.433" width="104.89" height="11.3386"/>
			<rect x="0" y="210.764" width="104.882" height="11.3386" class="st1"/>
			<text x="6.19" y="218.83" class="st2" v:langID="1033"><v:paragraph v:horizAlign="1"/><v:tabList/>General <tspan
						class="st5" v:langID="2057">p</tspan>urpose <tspan class="st5" v:langID="2057">r</tspan>egisters</text>		</g>
		<g id="shape52-82" v:mID="52" v:groupContext="shape" transform="translate(168.051,-23.1772)">
			<title>Sheet.52</title>
			<desc>Program Status Register</desc>
			<v:textBlock v:margins="rect(1,1,1,1)" v:tabSpace="42.5197"/>
			<v:textRect cx="47.622" cy="216.433" width="95.25" height="11.3386"/>
			<rect x="0" y="210.764" width="95.2441" height="11.3386" class="st1"/>
			<text x="1" y="218.83" class="st2" v:langID="1033"><v:paragraph/><v:tabList/>Program Status Register</text>		</g>
		<g id="shape53-85" v:mID="53" v:groupContext="shape" transform="translate(168.051,-0.5)">
			<title>Sheet.53</title>
			<desc>Control Register</desc>
			<v:textBlock v:margins="rect(1,1,1,1)" v:tabSpace="42.5197"/>
			<v:textRect cx="30.3307" cy="216.433" width="60.67" height="11.3386"/>
			<rect x="0" y="210.764" width="60.6614" height="11.3386" class="st1"/>
			<text x="1" y="218.83" class="st2" v:langID="1033"><v:paragraph/><v:tabList/>Control Register</text>		</g>
		<g id="shape54-88" v:mID="54" v:groupContext="shape" transform="translate(258.453,-3.33465)">
			<title>Brace 1</title>
			<desc>Special registers</desc>
			<v:textBlock v:margins="rect(1,1,1,1)" v:tabSpace="42.5197"/>
			<v:textRect cx="43.937" cy="206.512" width="65.2" height="8.50394"/>
			<path d="M-0 190.92 L5.67 190.92 L8.5 193.76 L8.5 203.68 L11.34 206.51 L8.5 209.35 L8.5 219.27 L5.67 222.1 L-0 222.1"
					class="st6"/>
			<rect v:rectContext="textBkgnd" x="14.3686" y="201.712" width="59.1367" height="9.59985" class="st7"/>
			<text x="14.37" y="208.91" class="st2" v:langID="2057"><v:paragraph v:horizAlign="1"/><v:tabList/>Special registers</text>		</g>
		<g id="shape43-93" v:mID="43" v:groupContext="shape" transform="translate(170.579,-74.2008)">
			<title>Brace 1.43</title>
			<path d="M-0 74.7 L5.67 74.7 L8.5 77.54 L8.5 145.57 L11.34 148.4 L8.5 151.24 L8.5 219.27 L5.67 222.1 L-0 222.1"
					class="st6"/>
		</g>
		<g id="shape44-96" v:mID="44" v:groupContext="shape" transform="translate(79.8701,-130.894) scale(-1,1)">
			<title>Brace 1.44</title>
			<path d="M-0 131.39 L5.67 131.39 L8.5 134.23 L8.5 173.91 L11.34 176.75 L8.5 179.58 L8.5 219.27 L5.67 222.1 L-0 222.1"
					class="st6"/>
		</g>
		<g id="shape18-99" v:mID="18" v:groupContext="shape" transform="translate(79.8701,-74.2008) scale(-1,1)">
			<title>Brace 1.18</title>
			<path d="M-0 165.41 L5.67 165.41 L8.5 168.24 L8.5 190.92 L11.34 193.76 L8.5 196.59 L8.5 219.27 L5.67 222.1 L-0 222.1"
					class="st6"/>
		</g>
		<g id="shape55-102" v:mID="55" v:groupContext="shape" transform="translate(85.5394,-11.8386)">
			<title>Sheet.55</title>
			<desc>PRIMASK</desc>
			<v:textBlock v:margins="rect(2,4,2,4)" v:tabSpace="42.5197"/>
			<v:textRect cx="39.685" cy="216.433" width="79.38" height="11.3386"/>
			<rect x="0" y="210.764" width="79.3701" height="11.3386" class="st4"/>
			<text x="21.68" y="218.83" class="st2" v:langID="2057"><v:paragraph v:horizAlign="1"/><v:tabList/>PRIMASK</text>		</g>
		<g id="shape56-105" v:mID="56" v:groupContext="shape" transform="translate(168.051,-11.8386)">
			<title>Sheet.56</title>
			<desc>Interrupt mask register</desc>
			<v:textBlock v:margins="rect(1,1,1,1)" v:tabSpace="42.5197"/>
			<v:textRect cx="42.3661" cy="216.433" width="84.74" height="11.3386"/>
			<rect x="0" y="210.764" width="84.7323" height="11.3386" class="st1"/>
			<text x="1" y="218.83" class="st2" v:langID="2057"><v:paragraph/><v:tabList/>Interrupt mask register</text>		</g>
	</g>
</svg>
