<?xml version="1.0" encoding="UTF-8" standalone="no"?>
<!DOCTYPE svg PUBLIC "-//W3C//DTD SVG 1.0//EN" "http://www.w3.org/TR/2001/REC-SVG-20010904/DTD/svg10.dtd">
<!-- Generated by Microsoft Visio 11.0, SVG Export, v1.0 system_handler_priority_register_3.svg Page-1 -->
<svg xmlns="http://www.w3.org/2000/svg" xmlns:v="http://schemas.microsoft.com/visio/2003/SVGExtensions/" width="5.06651in"
		height="0.583965in" viewBox="0 0 364.789 42.0454" xml:space="preserve" color-interpolation-filters="sRGB" class="st7">
	<v:documentProperties v:langID="1033" v:metric="true" v:viewMarkup="false"/>

	<style type="text/css">
	<![CDATA[
		.st1 {fill:none;stroke:#000000;stroke-linecap:butt;stroke-width:0.8}
		.st2 {fill:none;stroke:none;stroke-linecap:butt;stroke-width:0.8}
		.st3 {fill:#ffffff;stroke:none;stroke-linecap:butt;stroke-width:7.2}
		.st4 {fill:#000000;font-family:Arial;font-size:0.666664em}
		.st5 {stroke:#000000;stroke-linecap:butt;stroke-width:0.8}
		.st6 {stroke:#000000;stroke-dasharray:0.25,1;stroke-linecap:butt;stroke-width:0.25}
		.st7 {fill:none;fill-rule:evenodd;font-size:12;overflow:visible;stroke-linecap:square;stroke-miterlimit:3}
	]]>
	</style>

	<g v:mID="0" v:index="1" v:groupContext="foregroundPage">
		<title>Page-1</title>
		<v:pageProperties v:drawingScale="0.0393701" v:pageScale="0.0393701" v:drawingUnits="24" v:shadowOffsetX="8.50394"
				v:shadowOffsetY="-8.50394"/>
		<g id="shape1-1" v:mID="1" v:groupContext="shape" transform="translate(1.15433,-1.5604)">
			<title>Sheet.1</title>
			<rect x="0" y="13.699" width="362.835" height="28.3465" class="st1"/>
		</g>
		<g id="shape3-3" v:mID="3" v:groupContext="shape" transform="translate(0.8,-0.8)">
			<title>Sheet.3</title>
			<desc>PRI_15</desc>
			<v:textBlock v:margins="rect(1,0,1,0)" v:tabSpace="42.5197"/>
			<v:textRect cx="45.5315" cy="27.8722" width="91.07" height="28.3465"/>
			<rect x="0" y="13.699" width="91.063" height="28.3465" class="st2"/>
			<rect v:rectContext="textBkgnd" x="31.8834" y="23.0722" width="26.6833" height="9.59985" class="st3"/>
			<text x="32.18" y="30.27" class="st4" v:langID="1033"><v:paragraph v:horizAlign="1" v:bulletSize="0.166667"/><v:tabList/>PRI_15</text>		</g>
		<g id="shape5-7" v:mID="5" v:groupContext="shape" transform="translate(133.908,12.1386) rotate(90)">
			<title>Sheet.5</title>
			<path d="M0 42.05 L28.35 42.05" class="st5"/>
		</g>
		<g id="group12-10" transform="translate(1.15433,-29.9069)" v:mID="12" v:groupContext="group">
			<title>Sheet.12</title>
			<g id="shape13-11" v:mID="13" v:groupContext="shape">
				<title>Sheet.13</title>
				<desc>31</desc>
				<v:textBlock v:margins="rect(1,0,1,0)" v:tabSpace="42.5197"/>
				<v:textRect cx="5.66929" cy="36.3762" width="11.34" height="11.3386"/>
				<rect x="0" y="30.7069" width="11.3386" height="11.3386" class="st2"/>
				<rect v:rectContext="textBkgnd" x="0.925873" y="31.5762" width="8.89838" height="9.59985" class="st3"/>
				<text x="1.23" y="38.78" class="st4" v:langID="1033"><v:paragraph v:horizAlign="1"/><v:tabList/>31</text>			</g>
			<g id="shape14-15" v:mID="14" v:groupContext="shape" transform="translate(181.063,-1.13687E-013)">
				<title>Sheet.14</title>
				<desc>15</desc>
				<v:textBlock v:margins="rect(1,0,1,0)" v:tabSpace="42.5197"/>
				<v:textRect cx="5.66929" cy="36.3762" width="11.34" height="11.3386"/>
				<rect x="0" y="30.7069" width="11.3386" height="11.3386" class="st2"/>
				<rect v:rectContext="textBkgnd" x="0.925873" y="31.5762" width="8.89838" height="9.59985" class="st3"/>
				<text x="1.23" y="38.78" class="st4" v:langID="2057"><v:paragraph v:horizAlign="1"/><v:tabList/>15</text>			</g>
			<g id="shape15-19" v:mID="15" v:groupContext="shape" transform="translate(351.496,-1.27898E-013)">
				<title>Sheet.15</title>
				<desc>0</desc>
				<v:textBlock v:margins="rect(1,0,1,0)" v:tabSpace="42.5197"/>
				<v:textRect cx="5.66929" cy="36.3762" width="11.34" height="11.3386"/>
				<rect x="0" y="30.7069" width="11.3386" height="11.3386" class="st2"/>
				<rect v:rectContext="textBkgnd" x="3.15033" y="31.5762" width="4.44919" height="9.59985" class="st3"/>
				<text x="3.45" y="38.78" class="st4" v:langID="1033"><v:paragraph v:horizAlign="1"/><v:tabList/>0</text>			</g>
			<g id="shape16-23" v:mID="16" v:groupContext="shape" transform="translate(169.724,-1.13687E-013)">
				<title>Sheet.16</title>
				<desc>16</desc>
				<v:textBlock v:margins="rect(1,0,1,0)" v:tabSpace="42.5197"/>
				<v:textRect cx="5.66929" cy="36.3762" width="11.34" height="11.3386"/>
				<rect x="0" y="30.7069" width="11.3386" height="11.3386" class="st2"/>
				<rect v:rectContext="textBkgnd" x="0.925873" y="31.5762" width="8.89838" height="9.59985" class="st3"/>
				<text x="1.23" y="38.78" class="st4" v:langID="2057"><v:paragraph v:horizAlign="1"/><v:tabList/>16</text>			</g>
			<g id="shape17-27" v:mID="17" v:groupContext="shape" transform="translate(359.526,30.7069) rotate(90)">
				<title>Time division.54</title>
				<path d="M0 42.05 L11.34 42.05" class="st6"/>
			</g>
			<g id="shape18-30" v:mID="18" v:groupContext="shape" transform="translate(314.171,30.7069) rotate(90)">
				<title>Sheet.18</title>
				<path d="M0 42.05 L11.34 42.05" class="st6"/>
			</g>
			<g id="shape19-33" v:mID="19" v:groupContext="shape" transform="translate(268.817,30.7069) rotate(90)">
				<title>Time division.56</title>
				<path d="M0 42.05 L11.34 42.05" class="st6"/>
			</g>
			<g id="shape20-36" v:mID="20" v:groupContext="shape" transform="translate(223.463,30.7069) rotate(90)">
				<title>Time division.57</title>
				<path d="M0 42.05 L11.34 42.05" class="st6"/>
			</g>
			<g id="shape21-39" v:mID="21" v:groupContext="shape" transform="translate(178.108,30.7069) rotate(90)">
				<title>Time division.58</title>
				<path d="M0 42.05 L11.34 42.05" class="st6"/>
			</g>
			<g id="shape22-42" v:mID="22" v:groupContext="shape" transform="translate(132.754,30.7069) rotate(90)">
				<title>Time division.60</title>
				<path d="M0 42.05 L11.34 42.05" class="st6"/>
			</g>
			<g id="shape23-45" v:mID="23" v:groupContext="shape" transform="translate(87.3998,30.7069) rotate(90)">
				<title>Time division.62</title>
				<path d="M0 42.05 L11.34 42.05" class="st6"/>
			</g>
			<g id="shape24-48" v:mID="24" v:groupContext="shape" transform="translate(404.88,30.7069) rotate(90)">
				<title>Time division.63</title>
				<path d="M0 42.05 L11.34 42.05" class="st6"/>
			</g>
			<g id="shape25-51" v:mID="25" v:groupContext="shape" transform="translate(42.0454,30.7069) rotate(90)">
				<title>Time division.64</title>
				<path d="M0 42.05 L11.34 42.05" class="st6"/>
			</g>
			<g id="shape28-54" v:mID="28" v:groupContext="shape" transform="translate(79.0157,-1.13687E-013)">
				<title>Sheet.28</title>
				<desc>24</desc>
				<v:textBlock v:margins="rect(1,0,1,0)" v:tabSpace="42.5197"/>
				<v:textRect cx="5.66929" cy="36.3762" width="11.34" height="11.3386"/>
				<rect x="0" y="30.7069" width="11.3386" height="11.3386" class="st2"/>
				<rect v:rectContext="textBkgnd" x="0.925873" y="31.5762" width="8.89838" height="9.59985" class="st3"/>
				<text x="1.23" y="38.78" class="st4" v:langID="2057"><v:paragraph v:horizAlign="1"/><v:tabList/>24</text>			</g>
			<g id="shape29-58" v:mID="29" v:groupContext="shape" transform="translate(90.3543,-1.13687E-013)">
				<title>Sheet.29</title>
				<desc>23</desc>
				<v:textBlock v:margins="rect(1,0,1,0)" v:tabSpace="42.5197"/>
				<v:textRect cx="5.66929" cy="36.3762" width="11.34" height="11.3386"/>
				<rect x="0" y="30.7069" width="11.3386" height="11.3386" class="st2"/>
				<rect v:rectContext="textBkgnd" x="0.925873" y="31.5762" width="8.89838" height="9.59985" class="st3"/>
				<text x="1.23" y="38.78" class="st4" v:langID="2057"><v:paragraph v:horizAlign="1"/><v:tabList/>23</text>			</g>
		</g>
		<g id="shape30-62" v:mID="30" v:groupContext="shape" transform="translate(91.5087,-0.8)">
			<title>Sheet.30</title>
			<desc>PRI_14</desc>
			<v:textBlock v:margins="rect(1,0,1,0)" v:tabSpace="42.5197"/>
			<v:textRect cx="45.5315" cy="27.8722" width="91.07" height="28.3465"/>
			<rect x="0" y="13.699" width="91.063" height="28.3465" class="st2"/>
			<rect v:rectContext="textBkgnd" x="31.8834" y="23.0722" width="26.6833" height="9.59985" class="st3"/>
			<text x="32.18" y="30.27" class="st4" v:langID="2057"><v:paragraph v:horizAlign="1"/><v:tabList/>PRI_14</text>		</g>
		<g id="shape31-66" v:mID="31" v:groupContext="shape" transform="translate(182.217,-0.8)">
			<title>Sheet.31</title>
			<desc>Reserved</desc>
			<v:textBlock v:margins="rect(1,0,1,0)" v:tabSpace="42.5197"/>
			<v:textRect cx="90.7087" cy="27.8722" width="181.42" height="28.3465"/>
			<rect x="0" y="13.699" width="181.417" height="28.3465" class="st2"/>
			<rect v:rectContext="textBkgnd" x="73.2807" y="23.0722" width="34.2386" height="9.59985" class="st3"/>
			<text x="73.58" y="30.27" class="st4" v:langID="2057"><v:paragraph v:horizAlign="1"/><v:tabList/>Reserved</text>		</g>
		<g id="shape6-70" v:mID="6" v:groupContext="shape" transform="translate(224.263,12.1386) rotate(90)">
			<title>Sheet.6</title>
			<path d="M0 42.05 L28.35 42.05" class="st5"/>
		</g>
	</g>
</svg>
