<?xml version="1.0" encoding="UTF-8" standalone="no"?>
<!DOCTYPE svg PUBLIC "-//W3C//DTD SVG 1.0//EN" "http://www.w3.org/TR/2001/REC-SVG-20010904/DTD/svg10.dtd">
<!-- Generated by Microsoft Visio 11.0, SVG Export, v1.0 val_register_bit_assignments.svg Page-1 -->
<svg xmlns="http://www.w3.org/2000/svg" xmlns:v="http://schemas.microsoft.com/visio/2003/SVGExtensions/" width="5.06714in"
		height="0.586125in" viewBox="0 0 364.834 42.201" xml:space="preserve" color-interpolation-filters="sRGB" class="st9">
	<v:documentProperties v:langID="1033" v:metric="true" v:viewMarkup="false"/>

	<style type="text/css">
	<![CDATA[
		.st1 {fill:none;stroke:#000000;stroke-linecap:butt;stroke-width:0.8}
		.st2 {fill:none;stroke:none;stroke-linecap:butt;stroke-width:0.5}
		.st3 {fill:#ffffff;stroke:none;stroke-linecap:butt;stroke-width:7.2}
		.st4 {fill:#000000;font-family:Arial;font-size:0.666664em}
		.st5 {fill:none;stroke:none;stroke-width:1}
		.st6 {fill:none}
		.st7 {stroke:#000000;stroke-linecap:butt;stroke-width:0.8}
		.st8 {stroke:#000000;stroke-dasharray:0.25,1;stroke-linecap:butt;stroke-width:0.25}
		.st9 {fill:none;fill-rule:evenodd;font-size:12;overflow:visible;stroke-linecap:square;stroke-miterlimit:3}
	]]>
	</style>

	<g v:mID="0" v:index="1" v:groupContext="foregroundPage">
		<title>Page-1</title>
		<v:pageProperties v:drawingScale="0.0393701" v:pageScale="0.0393701" v:drawingUnits="24" v:shadowOffsetX="8.50394"
				v:shadowOffsetY="-8.50394"/>
		<g id="shape1-1" v:mID="1" v:groupContext="shape" transform="translate(0.9917,-1.0035)">
			<title>Sheet.1</title>
			<rect x="0" y="13.8545" width="362.835" height="28.3465" class="st1"/>
		</g>
		<g id="shape2-3" v:mID="2" v:groupContext="shape" transform="translate(0.9917,-29.3504)">
			<title>Sheet.2</title>
			<desc>31</desc>
			<v:userDefs/>
			<v:textBlock v:margins="rect(1,0,1,0)" v:tabSpace="42.5197"/>
			<v:textRect cx="5.66928" cy="36.5313" width="11.35" height="11.3386"/>
			<rect x="0" y="30.8624" width="11.3386" height="11.3386" class="st2"/>
			<rect v:rectContext="textBkgnd" x="0.92515" y="31.7313" width="8.89838" height="9.59985" class="st3"/>
			<text x="1.23" y="38.93" class="st4" v:langID="1033"><v:paragraph v:horizAlign="1"/><v:tabList/>31</text>		</g>
		<g id="shape3-7" v:mID="3" v:groupContext="shape" transform="translate(352.488,-30.3624)">
			<title>Sheet.3</title>
			<desc>0</desc>
			<v:userDefs/>
			<v:textBlock v:margins="rect(1,0,1,0)" v:tabSpace="42.5197"/>
			<v:textRect cx="5.66928" cy="36.5313" width="11.35" height="11.3386"/>
			<rect x="0" y="30.8624" width="11.3386" height="11.3386" class="st2"/>
			<rect v:rectContext="textBkgnd" x="3.14961" y="31.7313" width="4.44919" height="9.59985" class="st3"/>
			<text x="3.45" y="38.93" class="st4" v:langID="1033"><v:paragraph v:horizAlign="1"/><v:tabList/>0</text>		</g>
		<g id="shape4-11" v:mID="4" v:groupContext="shape" transform="translate(91.7079,-1.25799)">
			<title>Sheet.4</title>
			<desc>Reserved</desc>
			<v:userDefs/>
			<v:textBlock v:margins="rect(1,0,1,0)" v:tabSpace="42.5197"/>
			<v:textRect cx="136.063" cy="28.0268" width="272.13" height="28.3465"/>
			<rect x="0" y="13.8546" width="272.126" height="28.3465" class="st2"/>
			<rect v:rectContext="textBkgnd" x="116.219" y="23.2268" width="39.1097" height="9.59985" class="st3"/>
			<text x="116.52" y="30.43" class="st4" v:langID="2057"><v:paragraph v:horizAlign="1"/><v:tabList/>CURRENT</text>		</g>
		<g id="shape5-15" v:mID="5" v:groupContext="shape" transform="translate(0.540935,-1.25799)">
			<title>Sheet.5</title>
			<desc>Reserved</desc>
			<v:userDefs/>
			<v:textBlock v:margins="rect(1,0,1,0)" v:tabSpace="42.5197"/>
			<v:textRect cx="45.5836" cy="28.0268" width="91.18" height="28.3465"/>
			<rect x="0" y="13.8546" width="91.167" height="28.3465" class="st2"/>
			<rect v:rectContext="textBkgnd" x="28.1537" y="23.2268" width="34.2386" height="9.59985" class="st3"/>
			<text x="28.45" y="30.43" class="st4" v:langID="2057"><v:paragraph v:horizAlign="1"/><v:tabList/>Reserved</text>		</g>
		<g id="shape6-19" v:mID="6" v:groupContext="shape" transform="translate(93.1256,-29.3504)">
			<title>Sheet.6</title>
			<desc>16</desc>
			<v:userDefs/>
			<v:textBlock v:margins="rect(1,0,1,0)" v:tabSpace="42.5197"/>
			<v:textRect cx="5.66928" cy="36.5313" width="11.35" height="11.3386"/>
			<rect x="0" y="30.8624" width="11.3386" height="11.3386" class="st2"/>
			<rect v:rectContext="textBkgnd" x="0.92515" y="31.7313" width="8.89838" height="9.59985" class="st3"/>
			<text x="1.23" y="38.93" class="st4" v:langID="2057"><v:paragraph v:horizAlign="1"/><v:tabList/>23</text>		</g>
		<g id="shape7-23" v:mID="7" v:groupContext="shape" transform="translate(78.9524,-29.3504)">
			<title>Sheet.7</title>
			<desc>17</desc>
			<v:userDefs/>
			<v:textBlock v:margins="rect(1,0,1,0)" v:tabSpace="42.5197"/>
			<v:textRect cx="5.66928" cy="36.5313" width="11.35" height="11.3386"/>
			<rect x="0" y="30.8624" width="11.3386" height="11.3386" class="st2"/>
			<rect v:rectContext="textBkgnd" x="0.92515" y="31.7313" width="8.89838" height="9.59985" class="st3"/>
			<text x="1.23" y="38.93" class="st4" v:langID="2057"><v:paragraph v:horizAlign="1"/><v:tabList/>24</text>		</g>
		<g id="group8-27" transform="translate(133.909,12.851) rotate(90)" v:mID="8" v:groupContext="group">
			<title>Sheet.8</title>
			<g id="shape9-28" v:mID="9" v:groupContext="shape">
				<title>Sheet.9</title>
				<path d="M0 42.2 L28.35 42.2 L0 42.2 Z" class="st5"/>
			</g>
			<g id="shape10-30" v:mID="10" v:groupContext="shape">
				<title>Sheet.10</title>
				<path d="M0 42.2 L28.35 42.2 L0 42.2 Z" class="st6"/>
				<path d="M0 42.2 L28.35 42.2" class="st7"/>
			</g>
		</g>
		<g id="group11-33" transform="translate(360.681,1.512) rotate(90)" v:mID="11" v:groupContext="group">
			<title>Time division.36</title>
			<g id="shape12-34" v:mID="12" v:groupContext="shape">
				<title>Sheet.12</title>
				<path d="M0 42.2 L11.34 42.2 L0 42.2 Z" class="st5"/>
			</g>
			<g id="shape13-36" v:mID="13" v:groupContext="shape">
				<title>Sheet.13</title>
				<path d="M0 42.2 L11.34 42.2 L0 42.2 Z" class="st6"/>
				<path d="M0 42.2 L11.34 42.2" class="st8"/>
			</g>
		</g>
		<g id="group14-39" transform="translate(315.327,1.512) rotate(90)" v:mID="14" v:groupContext="group">
			<title>Time division.103</title>
			<g id="shape15-40" v:mID="15" v:groupContext="shape">
				<title>Sheet.15</title>
				<path d="M0 42.2 L11.34 42.2 L0 42.2 Z" class="st5"/>
			</g>
			<g id="shape16-42" v:mID="16" v:groupContext="shape">
				<title>Sheet.16</title>
				<path d="M0 42.2 L11.34 42.2 L0 42.2 Z" class="st6"/>
				<path d="M0 42.2 L11.34 42.2" class="st8"/>
			</g>
		</g>
		<g id="group17-45" transform="translate(269.972,1.512) rotate(90)" v:mID="17" v:groupContext="group">
			<title>Time division.104</title>
			<g id="shape18-46" v:mID="18" v:groupContext="shape">
				<title>Sheet.18</title>
				<path d="M0 42.2 L11.34 42.2 L0 42.2 Z" class="st5"/>
			</g>
			<g id="shape19-48" v:mID="19" v:groupContext="shape">
				<title>Sheet.19</title>
				<path d="M0 42.2 L11.34 42.2 L0 42.2 Z" class="st6"/>
				<path d="M0 42.2 L11.34 42.2" class="st8"/>
			</g>
		</g>
		<g id="group20-51" transform="translate(224.618,1.512) rotate(90)" v:mID="20" v:groupContext="group">
			<title>Time division.105</title>
			<g id="shape21-52" v:mID="21" v:groupContext="shape">
				<title>Sheet.21</title>
				<path d="M0 42.2 L11.34 42.2 L0 42.2 Z" class="st5"/>
			</g>
			<g id="shape22-54" v:mID="22" v:groupContext="shape">
				<title>Sheet.22</title>
				<path d="M0 42.2 L11.34 42.2 L0 42.2 Z" class="st6"/>
				<path d="M0 42.2 L11.34 42.2" class="st8"/>
			</g>
		</g>
		<g id="group23-57" transform="translate(179.264,1.512) rotate(90)" v:mID="23" v:groupContext="group">
			<title>Time division.106</title>
			<g id="shape24-58" v:mID="24" v:groupContext="shape">
				<title>Sheet.24</title>
				<path d="M0 42.2 L11.34 42.2 L0 42.2 Z" class="st5"/>
			</g>
			<g id="shape25-60" v:mID="25" v:groupContext="shape">
				<title>Sheet.25</title>
				<path d="M0 42.2 L11.34 42.2 L0 42.2 Z" class="st6"/>
				<path d="M0 42.2 L11.34 42.2" class="st8"/>
			</g>
		</g>
		<g id="group26-63" transform="translate(133.909,1.512) rotate(90)" v:mID="26" v:groupContext="group">
			<title>Time division.107</title>
			<g id="shape27-64" v:mID="27" v:groupContext="shape">
				<title>Sheet.27</title>
				<path d="M0 42.2 L11.34 42.2 L0 42.2 Z" class="st5"/>
			</g>
			<g id="shape28-66" v:mID="28" v:groupContext="shape">
				<title>Sheet.28</title>
				<path d="M0 42.2 L11.34 42.2 L0 42.2 Z" class="st6"/>
				<path d="M0 42.2 L11.34 42.2" class="st8"/>
			</g>
		</g>
		<g id="group29-69" transform="translate(88.5547,1.512) rotate(90)" v:mID="29" v:groupContext="group">
			<title>Time division.108</title>
			<g id="shape30-70" v:mID="30" v:groupContext="shape">
				<title>Sheet.30</title>
				<path d="M0 42.2 L11.34 42.2 L0 42.2 Z" class="st5"/>
			</g>
			<g id="shape31-72" v:mID="31" v:groupContext="shape">
				<title>Sheet.31</title>
				<path d="M0 42.2 L11.34 42.2 L0 42.2 Z" class="st6"/>
				<path d="M0 42.2 L11.34 42.2" class="st8"/>
			</g>
		</g>
		<g id="group32-75" transform="translate(406.035,1.512) rotate(90)" v:mID="32" v:groupContext="group">
			<title>Time division.5</title>
			<g id="shape33-76" v:mID="33" v:groupContext="shape">
				<title>Sheet.33</title>
				<path d="M0 42.2 L11.34 42.2 L0 42.2 Z" class="st5"/>
			</g>
			<g id="shape34-78" v:mID="34" v:groupContext="shape">
				<title>Sheet.34</title>
				<path d="M0 42.2 L11.34 42.2 L0 42.2 Z" class="st6"/>
				<path d="M0 42.2 L11.34 42.2" class="st8"/>
			</g>
		</g>
		<g id="group35-81" transform="translate(43.201,1.512) rotate(90)" v:mID="35" v:groupContext="group">
			<title>Time division.109</title>
			<g id="shape36-82" v:mID="36" v:groupContext="shape">
				<title>Sheet.36</title>
				<path d="M0 42.2 L11.34 42.2 L0 42.2 Z" class="st5"/>
			</g>
			<g id="shape37-84" v:mID="37" v:groupContext="shape">
				<title>Sheet.37</title>
				<path d="M0 42.2 L11.34 42.2 L0 42.2 Z" class="st6"/>
				<path d="M0 42.2 L11.34 42.2" class="st8"/>
			</g>
		</g>
	</g>
</svg>
