<?xml version="1.0" encoding="UTF-8" standalone="no"?>
<!DOCTYPE svg PUBLIC "-//W3C//DTD SVG 1.0//EN" "http://www.w3.org/TR/2001/REC-SVG-20010904/DTD/svg10.dtd">
<!-- Generated by Microsoft Visio 11.0, SVG Export, v1.0 vector_table.svg Page-1 -->
<svg xmlns="http://www.w3.org/2000/svg" xmlns:v="http://schemas.microsoft.com/visio/2003/SVGExtensions/" width="3.5572in"
		height="4.86021in" viewBox="0 0 256.118 349.935" xml:space="preserve" color-interpolation-filters="sRGB" class="st11">
	<v:documentProperties v:langID="1033" v:metric="true" v:viewMarkup="false"/>

	<style type="text/css">
	<![CDATA[
		.st1 {fill:#ffffff;stroke:#000000;stroke-linecap:round;stroke-linejoin:round;stroke-width:0.24}
		.st2 {fill:#000000;font-family:Arial;font-size:0.666664em}
		.st3 {fill:none;stroke:none;stroke-linecap:butt;stroke-width:0.5}
		.st4 {fill:#000000;font-family:Lucida Sans Typewriter;font-size:0.666664em}
		.st5 {fill:#cc99ff;font-family:Arial;font-size:0.666664em}
		.st6 {font-size:1em}
		.st7 {fill:#0000ff;font-family:Arial;font-size:0.666664em}
		.st8 {fill:#0000ff;font-family:Lucida Sans Typewriter;font-size:0.666664em}
		.st9 {fill:#ffffff;stroke:none;stroke-linecap:butt;stroke-width:0.5}
		.st10 {stroke:#000000;stroke-linecap:butt;stroke-width:0.5}
		.st11 {fill:none;fill-rule:evenodd;font-size:12;overflow:visible;stroke-linecap:square;stroke-miterlimit:3}
	]]>
	</style>

	<g v:mID="0" v:index="1" v:groupContext="foregroundPage">
		<title>Page-1</title>
		<v:pageProperties v:drawingScale="0.0393701" v:pageScale="0.0393701" v:drawingUnits="24" v:shadowOffsetX="8.50394"
				v:shadowOffsetY="-8.50394"/>
		<g id="shape1-1" v:mID="1" v:groupContext="shape" transform="translate(116.72,-6.16929)">
			<title>Sheet.1</title>
			<desc>Initial SP value</desc>
			<v:textBlock v:margins="rect(4,4,4,4)" v:tabSpace="42.5197"/>
			<v:textRect cx="52.4409" cy="342.849" width="104.89" height="14.1732"/>
			<rect x="0" y="335.762" width="104.882" height="14.1732" class="st1"/>
			<text x="25.98" y="345.25" class="st2" v:langID="2057"><v:paragraph v:horizAlign="1"/><v:tabList/>Initial SP value</text>		</g>
		<g id="shape2-4" v:mID="2" v:groupContext="shape" transform="translate(116.72,-20.3425)">
			<title>Sheet.2</title>
			<desc>Reset</desc>
			<v:textBlock v:margins="rect(4,4,4,4)" v:tabSpace="42.5197"/>
			<v:textRect cx="52.4409" cy="342.849" width="104.89" height="14.1732"/>
			<rect x="0" y="335.762" width="104.882" height="14.1732" class="st1"/>
			<text x="41.99" y="345.25" class="st2" v:langID="2057"><v:paragraph v:horizAlign="1"/><v:tabList/>Reset</text>		</g>
		<g id="shape3-7" v:mID="3" v:groupContext="shape" transform="translate(116.72,-48.689)">
			<title>Sheet.3</title>
			<desc>HardFault</desc>
			<v:textBlock v:margins="rect(4,4,4,4)" v:tabSpace="42.5197"/>
			<v:textRect cx="52.4409" cy="342.849" width="104.89" height="14.1732"/>
			<rect x="0" y="335.762" width="104.882" height="14.1732" class="st1"/>
			<text x="34.88" y="345.25" class="st2" v:langID="2057"><v:paragraph v:horizAlign="1"/><v:tabList/>HardFault</text>		</g>
		<g id="shape4-10" v:mID="4" v:groupContext="shape" transform="translate(116.72,-34.5157)">
			<title>Sheet.4</title>
			<desc>NMI</desc>
			<v:textBlock v:margins="rect(4,4,4,4)" v:tabSpace="42.5197"/>
			<v:textRect cx="52.4409" cy="342.849" width="104.89" height="14.1732"/>
			<rect x="0" y="335.762" width="104.882" height="14.1732" class="st1"/>
			<text x="45.11" y="345.25" class="st2" v:langID="2057"><v:paragraph v:horizAlign="1"/><v:tabList/>NMI</text>		</g>
		<g id="shape5-13" v:mID="5" v:groupContext="shape" transform="translate(221.602,-0.5)">
			<title>Sheet.5</title>
			<desc>0x00</desc>
			<v:textBlock v:margins="rect(4,3,4,0)" v:tabSpace="42.5197"/>
			<v:textRect cx="15.5906" cy="344.266" width="31.19" height="11.3386"/>
			<rect x="0" y="338.597" width="31.1811" height="11.3386" class="st3"/>
			<text x="4.45" y="346.67" class="st4" v:langID="2057"><v:paragraph v:horizAlign="1"/><v:tabList/>0x00</text>		</g>
		<g id="shape6-16" v:mID="6" v:groupContext="shape" transform="translate(221.602,-14.6732)">
			<title>Sheet.6</title>
			<desc>0x04</desc>
			<v:textBlock v:margins="rect(4,3,4,0)" v:tabSpace="42.5197"/>
			<v:textRect cx="15.5906" cy="344.266" width="31.19" height="11.3386"/>
			<rect x="0" y="338.597" width="31.1811" height="11.3386" class="st3"/>
			<text x="4.45" y="346.67" class="st4" v:langID="2057"><v:paragraph v:horizAlign="1"/><v:tabList/>0x04</text>		</g>
		<g id="shape7-19" v:mID="7" v:groupContext="shape" transform="translate(221.602,-28.8465)">
			<title>Sheet.7</title>
			<desc>0x08</desc>
			<v:textBlock v:margins="rect(4,3,4,0)" v:tabSpace="42.5197"/>
			<v:textRect cx="15.5906" cy="344.266" width="31.19" height="11.3386"/>
			<rect x="0" y="338.597" width="31.1811" height="11.3386" class="st3"/>
			<text x="4.45" y="346.67" class="st4" v:langID="2057"><v:paragraph v:horizAlign="1"/><v:tabList/>0x08</text>		</g>
		<g id="shape8-22" v:mID="8" v:groupContext="shape" transform="translate(221.602,-43.0197)">
			<title>Sheet.8</title>
			<desc>0x0C</desc>
			<v:textBlock v:margins="rect(4,3,4,0)" v:tabSpace="42.5197"/>
			<v:textRect cx="15.5906" cy="344.266" width="31.19" height="11.3386"/>
			<rect x="0" y="338.597" width="31.1811" height="11.3386" class="st3"/>
			<text x="4.45" y="346.67" class="st4" v:langID="2057"><v:paragraph v:horizAlign="1"/><v:tabList/>0x0C</text>		</g>
		<g id="shape9-25" v:mID="9" v:groupContext="shape" transform="translate(221.602,-57.1929)">
			<title>Sheet.9</title>
			<desc>0x10</desc>
			<v:textBlock v:margins="rect(4,3,4,0)" v:tabSpace="42.5197"/>
			<v:textRect cx="15.5906" cy="344.266" width="31.19" height="11.3386"/>
			<rect x="0" y="338.597" width="31.1811" height="11.3386" class="st3"/>
			<text x="4.45" y="346.67" class="st4" v:langID="2057"><v:paragraph v:horizAlign="1"/><v:tabList/>0x10</text>		</g>
		<g id="shape10-28" v:mID="10" v:groupContext="shape" transform="translate(116.72,-62.8622)">
			<title>Sheet.10</title>
			<desc>Reserved</desc>
			<v:textBlock v:margins="rect(4,4,4,4)" v:tabSpace="42.5197"/>
			<v:textRect cx="52.4409" cy="300.329" width="104.89" height="99.2126"/>
			<rect x="0" y="250.723" width="104.882" height="99.2126" class="st1"/>
			<text x="35.32" y="302.73" class="st2" v:langID="2057"><v:paragraph v:horizAlign="1"/><v:tabList/>Reserved</text>		</g>
		<g id="shape11-31" v:mID="11" v:groupContext="shape" transform="translate(116.72,-162.075)">
			<title>Sheet.11</title>
			<desc>SVCall</desc>
			<v:textBlock v:margins="rect(4,4,4,4)" v:tabSpace="42.5197"/>
			<v:textRect cx="52.4409" cy="342.849" width="104.89" height="14.1732"/>
			<rect x="0" y="335.762" width="104.882" height="14.1732" class="st1"/>
			<text x="40.21" y="345.25" class="st2" v:langID="2057"><v:paragraph v:horizAlign="1"/><v:tabList/>SVCall</text>		</g>
		<g id="shape12-34" v:mID="12" v:groupContext="shape" transform="translate(116.72,-204.594)">
			<title>Sheet.12</title>
			<desc>PendSV</desc>
			<v:textBlock v:margins="rect(4,4,4,4)" v:tabSpace="42.5197"/>
			<v:textRect cx="52.4409" cy="342.849" width="104.89" height="14.1732"/>
			<rect x="0" y="335.762" width="104.882" height="14.1732" class="st1"/>
			<text x="37.76" y="345.25" class="st2" v:langID="2057"><v:paragraph v:horizAlign="1"/><v:tabList/>PendSV</text>		</g>
		<g id="shape13-37" v:mID="13" v:groupContext="shape" transform="translate(116.72,-218.768)">
			<title>Sheet.13</title>
			<desc>SysTick | Reserved</desc>
			<v:textBlock v:margins="rect(4,4,4,4)" v:tabSpace="42.5197"/>
			<v:textRect cx="52.4409" cy="342.849" width="104.89" height="14.1732"/>
			<rect x="0" y="335.762" width="104.882" height="14.1732" class="st1"/>
			<text x="18.06" y="345.25" class="st5" v:langID="2057"><v:paragraph v:horizAlign="1"/><v:tabList/>SysTick | Reserved</text>		</g>
		<g id="shape14-40" v:mID="14" v:groupContext="shape" transform="translate(116.72,-232.941)">
			<title>Sheet.14</title>
			<desc>IRQ0</desc>
			<v:textBlock v:margins="rect(4,4,4,4)" v:tabSpace="42.5197"/>
			<v:textRect cx="52.4409" cy="342.849" width="104.89" height="14.1732"/>
			<rect x="0" y="335.762" width="104.882" height="14.1732" class="st1"/>
			<text x="43.11" y="345.25" class="st2" v:langID="2057"><v:paragraph v:horizAlign="1"/><v:tabList/>IRQ0</text>		</g>
		<g id="shape15-43" v:mID="15" v:groupContext="shape" transform="translate(116.72,-176.248)">
			<title>Sheet.15</title>
			<desc>Reserved</desc>
			<v:textBlock v:margins="rect(4,4,4,4)" v:tabSpace="42.5197"/>
			<v:textRect cx="52.4409" cy="335.762" width="104.89" height="28.3465"/>
			<rect x="0" y="321.589" width="104.882" height="28.3465" class="st1"/>
			<text x="35.32" y="338.16" class="st2" v:langID="2057"><v:paragraph v:horizAlign="1"/><v:tabList/>Reserved</text>		</g>
		<g id="shape16-46" v:mID="16" v:groupContext="shape" transform="translate(221.602,-156.406)">
			<title>Sheet.16</title>
			<desc>0x2C</desc>
			<v:textBlock v:margins="rect(4,3,4,0)" v:tabSpace="42.5197"/>
			<v:textRect cx="15.5906" cy="344.266" width="31.19" height="11.3386"/>
			<rect x="0" y="338.597" width="31.1811" height="11.3386" class="st3"/>
			<text x="4.45" y="346.67" class="st4" v:langID="2057"><v:paragraph v:horizAlign="1"/><v:tabList/>0x2C</text>		</g>
		<g id="shape17-49" v:mID="17" v:groupContext="shape" transform="translate(221.602,-198.925)">
			<title>Sheet.17</title>
			<desc>0x38</desc>
			<v:textBlock v:margins="rect(4,3,4,0)" v:tabSpace="42.5197"/>
			<v:textRect cx="15.5906" cy="344.266" width="31.19" height="11.3386"/>
			<rect x="0" y="338.597" width="31.1811" height="11.3386" class="st3"/>
			<text x="4.45" y="346.67" class="st4" v:langID="2057"><v:paragraph v:horizAlign="1"/><v:tabList/>0x38</text>		</g>
		<g id="shape18-52" v:mID="18" v:groupContext="shape" transform="translate(221.602,-213.098)">
			<title>Sheet.18</title>
			<desc>0x3C</desc>
			<v:textBlock v:margins="rect(4,3,4,0)" v:tabSpace="42.5197"/>
			<v:textRect cx="15.5906" cy="344.266" width="31.19" height="11.3386"/>
			<rect x="0" y="338.597" width="31.1811" height="11.3386" class="st3"/>
			<text x="4.45" y="346.67" class="st4" v:langID="2057"><v:paragraph v:horizAlign="1"/><v:tabList/>0x3C</text>		</g>
		<g id="shape19-55" v:mID="19" v:groupContext="shape" transform="translate(221.602,-227.272)">
			<title>Sheet.19</title>
			<desc>0x40</desc>
			<v:textBlock v:margins="rect(4,3,4,0)" v:tabSpace="42.5197"/>
			<v:textRect cx="15.5906" cy="344.266" width="31.19" height="11.3386"/>
			<rect x="0" y="338.597" width="31.1811" height="11.3386" class="st3"/>
			<text x="4.45" y="346.67" class="st4" v:langID="2057"><v:paragraph v:horizAlign="1"/><v:tabList/>0x40</text>		</g>
		<g id="shape20-58" v:mID="20" v:groupContext="shape" transform="translate(221.602,-337.823)">
			<title>Sheet.20</title>
			<desc>Offset</desc>
			<v:textBlock v:margins="rect(4,4,4,4)" v:tabSpace="42.5197"/>
			<v:textRect cx="15.5906" cy="344.266" width="31.19" height="11.3386"/>
			<rect x="0" y="338.597" width="31.1811" height="11.3386" class="st3"/>
			<text x="4.92" y="346.67" class="st2" v:langID="2057"><v:paragraph v:horizAlign="1"/><v:tabList/>Offset</text>		</g>
		<g id="shape21-61" v:mID="21" v:groupContext="shape" transform="translate(0.5,-337.823)">
			<title>Sheet.21</title>
			<desc>Exception number</desc>
			<v:textBlock v:margins="rect(4,1,4,1)" v:tabSpace="42.5197"/>
			<v:textRect cx="34.0157" cy="344.266" width="68.04" height="11.3386"/>
			<rect x="0" y="338.597" width="68.0315" height="11.3386" class="st3"/>
			<text x="1.78" y="346.67" class="st2" v:langID="2057"><v:paragraph v:horizAlign="1"/><v:tabList/>Exception number</text>		</g>
		<g id="shape22-64" v:mID="22" v:groupContext="shape" transform="translate(20.3425,-35.9331)">
			<title>Sheet.22</title>
			<desc>2</desc>
			<v:textBlock v:margins="rect(4,4,4,4)" v:tabSpace="42.5197"/>
			<v:textRect cx="14.1732" cy="344.266" width="28.35" height="11.3386"/>
			<rect x="0" y="338.597" width="28.3465" height="11.3386" class="st3"/>
			<text x="11.95" y="346.67" class="st2" v:langID="2057"><v:paragraph v:horizAlign="1"/><v:tabList/>2</text>		</g>
		<g id="shape23-67" v:mID="23" v:groupContext="shape" transform="translate(20.3425,-50.1063)">
			<title>Sheet.23</title>
			<desc>3</desc>
			<v:textBlock v:margins="rect(4,4,4,4)" v:tabSpace="42.5197"/>
			<v:textRect cx="14.1732" cy="344.266" width="28.35" height="11.3386"/>
			<rect x="0" y="338.597" width="28.3465" height="11.3386" class="st3"/>
			<text x="11.95" y="346.67" class="st2" v:langID="2057"><v:paragraph v:horizAlign="1"/><v:tabList/>3</text>		</g>
		<g id="shape24-70" v:mID="24" v:groupContext="shape" transform="translate(20.3425,-64.2795)">
			<title>Sheet.24</title>
			<desc>4</desc>
			<v:textBlock v:margins="rect(4,4,4,4)" v:tabSpace="42.5197"/>
			<v:textRect cx="14.1732" cy="344.266" width="28.35" height="11.3386"/>
			<rect x="0" y="338.597" width="28.3465" height="11.3386" class="st3"/>
			<text x="11.95" y="346.67" class="st2" v:langID="2057"><v:paragraph v:horizAlign="1"/><v:tabList/>4</text>		</g>
		<g id="shape25-73" v:mID="25" v:groupContext="shape" transform="translate(20.3425,-78.4528)">
			<title>Sheet.25</title>
			<desc>5</desc>
			<v:textBlock v:margins="rect(4,4,4,4)" v:tabSpace="42.5197"/>
			<v:textRect cx="14.1732" cy="344.266" width="28.35" height="11.3386"/>
			<rect x="0" y="338.597" width="28.3465" height="11.3386" class="st3"/>
			<text x="11.95" y="346.67" class="st2" v:langID="2057"><v:paragraph v:horizAlign="1"/><v:tabList/>5</text>		</g>
		<g id="shape26-76" v:mID="26" v:groupContext="shape" transform="translate(20.3425,-92.626)">
			<title>Sheet.26</title>
			<desc>6</desc>
			<v:textBlock v:margins="rect(4,4,4,4)" v:tabSpace="42.5197"/>
			<v:textRect cx="14.1732" cy="344.266" width="28.35" height="11.3386"/>
			<rect x="0" y="338.597" width="28.3465" height="11.3386" class="st3"/>
			<text x="11.95" y="346.67" class="st2" v:langID="2057"><v:paragraph v:horizAlign="1"/><v:tabList/>6</text>		</g>
		<g id="shape27-79" v:mID="27" v:groupContext="shape" transform="translate(20.3425,-163.492)">
			<title>Sheet.27</title>
			<desc>11</desc>
			<v:textBlock v:margins="rect(4,4,4,4)" v:tabSpace="42.5197"/>
			<v:textRect cx="14.1732" cy="344.266" width="28.35" height="11.3386"/>
			<rect x="0" y="338.597" width="28.3465" height="11.3386" class="st3"/>
			<text x="9.72" y="346.67" class="st2" v:langID="2057"><v:paragraph v:horizAlign="1"/><v:tabList/>11</text>		</g>
		<g id="shape28-82" v:mID="28" v:groupContext="shape" transform="translate(20.3425,-177.665)">
			<title>Sheet.28</title>
			<desc>12</desc>
			<v:textBlock v:margins="rect(4,4,4,4)" v:tabSpace="42.5197"/>
			<v:textRect cx="14.1732" cy="344.266" width="28.35" height="11.3386"/>
			<rect x="0" y="338.597" width="28.3465" height="11.3386" class="st3"/>
			<text x="9.72" y="346.67" class="st2" v:langID="2057"><v:paragraph v:horizAlign="1"/><v:tabList/>12</text>		</g>
		<g id="shape29-85" v:mID="29" v:groupContext="shape" transform="translate(20.3425,-206.012)">
			<title>Sheet.29</title>
			<desc>14</desc>
			<v:textBlock v:margins="rect(4,4,4,4)" v:tabSpace="42.5197"/>
			<v:textRect cx="14.1732" cy="344.266" width="28.35" height="11.3386"/>
			<rect x="0" y="338.597" width="28.3465" height="11.3386" class="st3"/>
			<text x="9.72" y="346.67" class="st2" v:langID="2057"><v:paragraph v:horizAlign="1"/><v:tabList/>14</text>		</g>
		<g id="shape30-88" v:mID="30" v:groupContext="shape" transform="translate(20.3425,-220.185)">
			<title>Sheet.30</title>
			<desc>15</desc>
			<v:textBlock v:margins="rect(4,4,4,4)" v:tabSpace="42.5197"/>
			<v:textRect cx="14.1732" cy="344.266" width="28.35" height="11.3386"/>
			<rect x="0" y="338.597" width="28.3465" height="11.3386" class="st3"/>
			<text x="9.72" y="346.67" class="st2" v:langID="2057"><v:paragraph v:horizAlign="1"/><v:tabList/>15</text>		</g>
		<g id="shape31-91" v:mID="31" v:groupContext="shape" transform="translate(20.3425,-234.358)">
			<title>Sheet.31</title>
			<desc>16</desc>
			<v:textBlock v:margins="rect(4,4,4,4)" v:tabSpace="42.5197"/>
			<v:textRect cx="14.1732" cy="344.266" width="28.35" height="11.3386"/>
			<rect x="0" y="338.597" width="28.3465" height="11.3386" class="st3"/>
			<text x="9.72" y="346.67" class="st2" v:langID="2057"><v:paragraph v:horizAlign="1"/><v:tabList/>16</text>		</g>
		<g id="shape32-94" v:mID="32" v:groupContext="shape" transform="translate(20.3425,-262.705)">
			<title>Sheet.32</title>
			<desc>18</desc>
			<v:textBlock v:margins="rect(4,4,4,4)" v:tabSpace="42.5197"/>
			<v:textRect cx="14.1732" cy="344.266" width="28.35" height="11.3386"/>
			<rect x="0" y="338.597" width="28.3465" height="11.3386" class="st3"/>
			<text x="9.72" y="346.67" class="st2" v:langID="2057"><v:paragraph v:horizAlign="1"/><v:tabList/>18</text>		</g>
		<g id="shape33-97" v:mID="33" v:groupContext="shape" transform="translate(20.3425,-191.839)">
			<title>Sheet.33</title>
			<desc>13</desc>
			<v:textBlock v:margins="rect(4,4,4,4)" v:tabSpace="42.5197"/>
			<v:textRect cx="14.1732" cy="344.266" width="28.35" height="11.3386"/>
			<rect x="0" y="338.597" width="28.3465" height="11.3386" class="st3"/>
			<text x="9.72" y="346.67" class="st2" v:langID="2057"><v:paragraph v:horizAlign="1"/><v:tabList/>13</text>		</g>
		<g id="shape34-100" v:mID="34" v:groupContext="shape" transform="translate(20.3425,-106.799)">
			<title>Sheet.34</title>
			<desc>7</desc>
			<v:textBlock v:margins="rect(4,4,4,4)" v:tabSpace="42.5197"/>
			<v:textRect cx="14.1732" cy="344.266" width="28.35" height="11.3386"/>
			<rect x="0" y="338.597" width="28.3465" height="11.3386" class="st3"/>
			<text x="11.95" y="346.67" class="st2" v:langID="2057"><v:paragraph v:horizAlign="1"/><v:tabList/>7</text>		</g>
		<g id="shape35-103" v:mID="35" v:groupContext="shape" transform="translate(20.3425,-149.319)">
			<title>Sheet.35</title>
			<desc>10</desc>
			<v:textBlock v:margins="rect(4,4,4,4)" v:tabSpace="42.5197"/>
			<v:textRect cx="14.1732" cy="344.266" width="28.35" height="11.3386"/>
			<rect x="0" y="338.597" width="28.3465" height="11.3386" class="st3"/>
			<text x="9.72" y="346.67" class="st2" v:langID="2057"><v:paragraph v:horizAlign="1"/><v:tabList/>10</text>		</g>
		<g id="shape36-106" v:mID="36" v:groupContext="shape" transform="translate(20.3425,-21.7598)">
			<title>Sheet.36</title>
			<desc>1</desc>
			<v:textBlock v:margins="rect(4,4,4,4)" v:tabSpace="42.5197"/>
			<v:textRect cx="14.1732" cy="344.266" width="28.35" height="11.3386"/>
			<rect x="0" y="338.597" width="28.3465" height="11.3386" class="st3"/>
			<text x="11.95" y="346.67" class="st2" v:langID="2057"><v:paragraph v:horizAlign="1"/><v:tabList/>1</text>		</g>
		<g id="shape37-109" v:mID="37" v:groupContext="shape" transform="translate(116.72,-337.823)">
			<title>Sheet.37</title>
			<desc>Vector</desc>
			<v:textBlock v:margins="rect(4,4,4,4)" v:tabSpace="42.5197"/>
			<v:textRect cx="52.4409" cy="344.266" width="104.89" height="11.3386"/>
			<rect x="0" y="338.597" width="104.882" height="11.3386" class="st3"/>
			<text x="40.88" y="346.67" class="st2" v:langID="2057"><v:paragraph v:horizAlign="1"/><v:tabList/>Vector</text>		</g>
		<g id="shape38-112" v:mID="38" v:groupContext="shape" transform="translate(20.3425,-288.217)">
			<title>Sheet.38</title>
			<desc>. . .</desc>
			<v:textBlock v:margins="rect(4,4,4,4)" v:tabSpace="42.5197"/>
			<v:textRect cx="14.1732" cy="341.431" width="28.35" height="17.0079"/>
			<rect x="0" y="332.928" width="28.3465" height="17.0079" class="st3"/>
			<text x="13.06" y="334.23" class="st2" v:langID="2057"><v:paragraph v:horizAlign="1"/><v:tabList/>.<v:newlineChar/><tspan
						x="13.06" dy="1.2em" class="st6">.<v:newlineChar/></tspan><tspan x="13.06" dy="1.2em" class="st6">.</tspan></text>		</g>
		<g id="shape39-117" v:mID="39" v:groupContext="shape" transform="translate(20.3425,-120.972)">
			<title>Sheet.39</title>
			<desc>8</desc>
			<v:textBlock v:margins="rect(4,4,4,4)" v:tabSpace="42.5197"/>
			<v:textRect cx="14.1732" cy="344.266" width="28.35" height="11.3386"/>
			<rect x="0" y="338.597" width="28.3465" height="11.3386" class="st3"/>
			<text x="11.95" y="346.67" class="st2" v:langID="2057"><v:paragraph v:horizAlign="1"/><v:tabList/>8</text>		</g>
		<g id="shape40-120" v:mID="40" v:groupContext="shape" transform="translate(20.3425,-135.146)">
			<title>Sheet.40</title>
			<desc>9</desc>
			<v:textBlock v:margins="rect(4,4,4,4)" v:tabSpace="42.5197"/>
			<v:textRect cx="14.1732" cy="344.266" width="28.35" height="11.3386"/>
			<rect x="0" y="338.597" width="28.3465" height="11.3386" class="st3"/>
			<text x="11.95" y="346.67" class="st2" v:langID="2057"><v:paragraph v:horizAlign="1"/><v:tabList/>9</text>		</g>
		<g id="shape41-123" v:mID="41" v:groupContext="shape" transform="translate(116.72,-247.114)">
			<title>Sheet.41</title>
			<desc>IRQ1</desc>
			<v:textBlock v:margins="rect(4,4,4,4)" v:tabSpace="42.5197"/>
			<v:textRect cx="52.4409" cy="342.849" width="104.89" height="14.1732"/>
			<rect x="0" y="335.762" width="104.882" height="14.1732" class="st1"/>
			<text x="43.11" y="345.25" class="st2" v:langID="2057"><v:paragraph v:horizAlign="1"/><v:tabList/>IRQ1</text>		</g>
		<g id="shape42-126" v:mID="42" v:groupContext="shape" transform="translate(116.72,-261.287)">
			<title>Sheet.42</title>
			<desc>IRQ2</desc>
			<v:textBlock v:margins="rect(4,4,4,4)" v:tabSpace="42.5197"/>
			<v:textRect cx="52.4409" cy="342.849" width="104.89" height="14.1732"/>
			<rect x="0" y="335.762" width="104.882" height="14.1732" class="st1"/>
			<text x="43.11" y="345.25" class="st2" v:langID="2057"><v:paragraph v:horizAlign="1"/><v:tabList/>IRQ2</text>		</g>
		<g id="shape43-129" v:mID="43" v:groupContext="shape" transform="translate(221.602,-241.445)">
			<title>Sheet.43</title>
			<desc>0x44</desc>
			<v:textBlock v:margins="rect(4,3,4,0)" v:tabSpace="42.5197"/>
			<v:textRect cx="15.5906" cy="344.266" width="31.19" height="11.3386"/>
			<rect x="0" y="338.597" width="31.1811" height="11.3386" class="st3"/>
			<text x="4.45" y="346.67" class="st4" v:langID="2057"><v:paragraph v:horizAlign="1"/><v:tabList/>0x44</text>		</g>
		<g id="shape44-132" v:mID="44" v:groupContext="shape" transform="translate(116.72,-275.461)">
			<title>Sheet.44</title>
			<rect x="0" y="307.416" width="104.882" height="42.5197" class="st1"/>
		</g>
		<g id="shape45-134" v:mID="45" v:groupContext="shape" transform="translate(116.72,-317.98)">
			<title>Sheet.45</title>
			<desc>IRQ31</desc>
			<v:textBlock v:margins="rect(4,4,4,4)" v:tabSpace="42.5197"/>
			<v:textRect cx="52.4409" cy="342.849" width="104.89" height="14.1732"/>
			<rect x="0" y="335.762" width="104.882" height="14.1732" class="st1"/>
			<text x="40.88" y="345.25" class="st7" v:langID="2057"><v:paragraph v:horizAlign="1"/><v:tabList/>IRQ31</text>		</g>
		<g id="shape46-137" v:mID="46" v:groupContext="shape" transform="translate(20.3425,-248.531)">
			<title>Sheet.46</title>
			<desc>17</desc>
			<v:textBlock v:margins="rect(4,4,4,4)" v:tabSpace="42.5197"/>
			<v:textRect cx="14.1732" cy="344.266" width="28.35" height="11.3386"/>
			<rect x="0" y="338.597" width="28.3465" height="11.3386" class="st3"/>
			<text x="9.72" y="346.67" class="st2" v:langID="2057"><v:paragraph v:horizAlign="1"/><v:tabList/>17</text>		</g>
		<g id="shape47-140" v:mID="47" v:groupContext="shape" transform="translate(221.602,-255.618)">
			<title>Sheet.47</title>
			<desc>0x48</desc>
			<v:textBlock v:margins="rect(4,3,4,0)" v:tabSpace="42.5197"/>
			<v:textRect cx="15.5906" cy="344.266" width="31.19" height="11.3386"/>
			<rect x="0" y="338.597" width="31.1811" height="11.3386" class="st3"/>
			<text x="4.45" y="346.67" class="st4" v:langID="2057"><v:paragraph v:horizAlign="1"/><v:tabList/>0x48</text>		</g>
		<g id="shape48-143" v:mID="48" v:groupContext="shape" transform="translate(20.3425,-319.398)">
			<title>Sheet.48</title>
			<desc>47</desc>
			<v:textBlock v:margins="rect(4,4,4,4)" v:tabSpace="42.5197"/>
			<v:textRect cx="14.1732" cy="344.266" width="28.35" height="11.3386"/>
			<rect x="0" y="338.597" width="28.3465" height="11.3386" class="st3"/>
			<text x="9.72" y="346.67" class="st7" v:langID="2057"><v:paragraph v:horizAlign="1"/><v:tabList/>47</text>		</g>
		<g id="shape49-146" v:mID="49" v:groupContext="shape" transform="translate(221.602,-288.217)">
			<title>Sheet.49</title>
			<desc>. . .</desc>
			<v:textBlock v:margins="rect(4,4,4,4)" v:tabSpace="42.5197"/>
			<v:textRect cx="14.1732" cy="341.431" width="28.35" height="17.0079"/>
			<rect x="0" y="332.928" width="28.3465" height="17.0079" class="st3"/>
			<text x="11.76" y="334.23" class="st4" v:langID="2057"><v:paragraph v:horizAlign="1"/><v:tabList/>.<v:newlineChar/><tspan
						x="11.76" dy="1.2em" class="st6">.<v:newlineChar/></tspan><tspan x="11.76" dy="1.2em" class="st6">.</tspan></text>		</g>
		<g id="shape50-151" v:mID="50" v:groupContext="shape" transform="translate(154.988,-288.217)">
			<title>Sheet.50</title>
			<desc>. . .</desc>
			<v:textBlock v:margins="rect(4,4,4,4)" v:tabSpace="42.5197"/>
			<v:textRect cx="14.1732" cy="341.431" width="28.35" height="17.0079"/>
			<rect x="0" y="332.928" width="28.3465" height="17.0079" class="st3"/>
			<text x="13.06" y="334.23" class="st2" v:langID="2057"><v:paragraph v:horizAlign="1"/><v:tabList/>.<v:newlineChar/><tspan
						x="13.06" dy="1.2em" class="st6">.<v:newlineChar/></tspan><tspan x="13.06" dy="1.2em" class="st6">.</tspan></text>		</g>
		<g id="shape51-156" v:mID="51" v:groupContext="shape" transform="translate(221.602,-312.311)">
			<title>Sheet.51</title>
			<desc>0xBC</desc>
			<v:textBlock v:margins="rect(4,3,4,0)" v:tabSpace="42.5197"/>
			<v:textRect cx="15.5906" cy="344.266" width="31.19" height="11.3386"/>
			<rect x="0" y="338.597" width="31.1811" height="11.3386" class="st3"/>
			<text x="4.45" y="346.67" class="st8" v:langID="2057"><v:paragraph v:horizAlign="1"/><v:tabList/>0xBC</text>		</g>
		<g id="group52-159" transform="translate(568.703,51.7976) rotate(90)" v:mID="52" v:groupContext="group">
			<title>Disconnect</title>
			<g id="shape53-160" v:mID="53" v:groupContext="shape" transform="translate(0.566929,0)">
				<title>Sheet.53</title>
				<rect x="0" y="344.266" width="1.88976" height="5.66929" class="st9"/>
			</g>
			<g id="shape54-162" v:mID="54" v:groupContext="shape" transform="translate(347.603,401.728) rotate(99.4623)">
				<title>Sheet.54</title>
				<path d="M0 349.52 C0.15 349.73 0.72 349.9 1.15 349.93 C1.58 349.96 1.86 349.86 2.34 349.62 C2.63 349.48 2.98 349.29
							 3.29 349.17 C4.56 348.67 5.03 349.22 5.75 349.52" class="st10"/>
			</g>
			<g id="shape55-165" v:mID="55" v:groupContext="shape" transform="translate(345.713,401.728) rotate(99.4623)">
				<title>Sheet.55</title>
				<path d="M0 349.52 C0.15 349.73 0.72 349.9 1.15 349.93 C1.58 349.96 1.86 349.86 2.34 349.62 C2.63 349.48 2.98 349.29
							 3.29 349.17 C4.56 348.67 5.03 349.22 5.75 349.52" class="st10"/>
			</g>
		</g>
		<g id="group56-168" transform="translate(599.884,51.7976) rotate(90)" v:mID="56" v:groupContext="group">
			<title>Disconnect.63</title>
			<g id="shape57-169" v:mID="57" v:groupContext="shape" transform="translate(0.566929,0)">
				<title>Sheet.57</title>
				<rect x="0" y="344.266" width="1.88976" height="5.66929" class="st9"/>
			</g>
			<g id="shape58-171" v:mID="58" v:groupContext="shape" transform="translate(347.603,401.728) rotate(99.4623)">
				<title>Sheet.58</title>
				<path d="M0 349.52 C0.15 349.73 0.72 349.9 1.15 349.93 C1.58 349.96 1.86 349.86 2.34 349.62 C2.63 349.48 2.98 349.29
							 3.29 349.17 C4.56 348.67 5.03 349.22 5.75 349.52" class="st10"/>
			</g>
			<g id="shape59-174" v:mID="59" v:groupContext="shape" transform="translate(345.713,401.728) rotate(99.4623)">
				<title>Sheet.59</title>
				<path d="M0 349.52 C0.15 349.73 0.72 349.9 1.15 349.93 C1.58 349.96 1.86 349.86 2.34 349.62 C2.63 349.48 2.98 349.29
							 3.29 349.17 C4.56 348.67 5.03 349.22 5.75 349.52" class="st10"/>
			</g>
		</g>
		<g id="shape60-177" v:mID="60" v:groupContext="shape" transform="translate(68.5315,-337.823)">
			<title>Sheet.60</title>
			<desc>IRQ number</desc>
			<v:textBlock v:margins="rect(4,1,4,1)" v:tabSpace="42.5197"/>
			<v:textRect cx="25.5118" cy="344.266" width="51.03" height="11.3386"/>
			<rect x="0" y="338.597" width="51.0236" height="11.3386" class="st3"/>
			<text x="3.73" y="346.67" class="st2" v:langID="2057"><v:paragraph v:horizAlign="1"/><v:tabList/>IRQ number</text>		</g>
		<g id="shape61-180" v:mID="61" v:groupContext="shape" transform="translate(79.8701,-35.9331)">
			<title>Sheet.61</title>
			<desc>-14</desc>
			<v:textBlock v:margins="rect(4,4,4,4)" v:tabSpace="42.5197"/>
			<v:textRect cx="14.1732" cy="344.266" width="28.35" height="11.3386"/>
			<rect x="0" y="338.597" width="28.3465" height="11.3386" class="st3"/>
			<text x="8.39" y="346.67" class="st2" v:langID="2057"><v:paragraph v:horizAlign="1"/><v:tabList/>-14</text>		</g>
		<g id="shape62-183" v:mID="62" v:groupContext="shape" transform="translate(79.8701,-50.1063)">
			<title>Sheet.62</title>
			<desc>-13</desc>
			<v:textBlock v:margins="rect(4,4,4,4)" v:tabSpace="42.5197"/>
			<v:textRect cx="14.1732" cy="344.266" width="28.35" height="11.3386"/>
			<rect x="0" y="338.597" width="28.3465" height="11.3386" class="st3"/>
			<text x="8.39" y="346.67" class="st2" v:langID="2057"><v:paragraph v:horizAlign="1"/><v:tabList/>-13</text>		</g>
		<g id="shape63-186" v:mID="63" v:groupContext="shape" transform="translate(79.8701,-163.492)">
			<title>Sheet.63</title>
			<desc>-5</desc>
			<v:textBlock v:margins="rect(4,4,4,4)" v:tabSpace="42.5197"/>
			<v:textRect cx="14.1732" cy="344.266" width="28.35" height="11.3386"/>
			<rect x="0" y="338.597" width="28.3465" height="11.3386" class="st3"/>
			<text x="10.62" y="346.67" class="st2" v:langID="2057"><v:paragraph v:horizAlign="1"/><v:tabList/>-5</text>		</g>
		<g id="shape64-189" v:mID="64" v:groupContext="shape" transform="translate(79.8701,-206.012)">
			<title>Sheet.64</title>
			<desc>-2</desc>
			<v:textBlock v:margins="rect(4,4,4,4)" v:tabSpace="42.5197"/>
			<v:textRect cx="14.1732" cy="344.266" width="28.35" height="11.3386"/>
			<rect x="0" y="338.597" width="28.3465" height="11.3386" class="st3"/>
			<text x="10.62" y="346.67" class="st2" v:langID="2057"><v:paragraph v:horizAlign="1"/><v:tabList/>-2</text>		</g>
		<g id="shape65-192" v:mID="65" v:groupContext="shape" transform="translate(79.8701,-220.185)">
			<title>Sheet.65</title>
			<desc>-1</desc>
			<v:textBlock v:margins="rect(4,4,4,4)" v:tabSpace="42.5197"/>
			<v:textRect cx="14.1732" cy="344.266" width="28.35" height="11.3386"/>
			<rect x="0" y="338.597" width="28.3465" height="11.3386" class="st3"/>
			<text x="10.62" y="346.67" class="st5" v:langID="2057"><v:paragraph v:horizAlign="1"/><v:tabList/>-1</text>		</g>
		<g id="shape66-195" v:mID="66" v:groupContext="shape" transform="translate(79.8701,-234.358)">
			<title>Sheet.66</title>
			<desc>0</desc>
			<v:textBlock v:margins="rect(4,4,4,4)" v:tabSpace="42.5197"/>
			<v:textRect cx="14.1732" cy="344.266" width="28.35" height="11.3386"/>
			<rect x="0" y="338.597" width="28.3465" height="11.3386" class="st3"/>
			<text x="11.95" y="346.67" class="st2" v:langID="2057"><v:paragraph v:horizAlign="1"/><v:tabList/>0</text>		</g>
		<g id="shape67-198" v:mID="67" v:groupContext="shape" transform="translate(79.8701,-262.705)">
			<title>Sheet.67</title>
			<desc>2</desc>
			<v:textBlock v:margins="rect(4,4,4,4)" v:tabSpace="42.5197"/>
			<v:textRect cx="14.1732" cy="344.266" width="28.35" height="11.3386"/>
			<rect x="0" y="338.597" width="28.3465" height="11.3386" class="st3"/>
			<text x="11.95" y="346.67" class="st2" v:langID="2057"><v:paragraph v:horizAlign="1"/><v:tabList/>2</text>		</g>
		<g id="shape68-201" v:mID="68" v:groupContext="shape" transform="translate(79.8701,-248.531)">
			<title>Sheet.68</title>
			<desc>1</desc>
			<v:textBlock v:margins="rect(4,4,4,4)" v:tabSpace="42.5197"/>
			<v:textRect cx="14.1732" cy="344.266" width="28.35" height="11.3386"/>
			<rect x="0" y="338.597" width="28.3465" height="11.3386" class="st3"/>
			<text x="11.95" y="346.67" class="st2" v:langID="2057"><v:paragraph v:horizAlign="1"/><v:tabList/>1</text>		</g>
		<g id="shape69-204" v:mID="69" v:groupContext="shape" transform="translate(79.8701,-319.398)">
			<title>Sheet.69</title>
			<desc>31</desc>
			<v:textBlock v:margins="rect(4,4,4,4)" v:tabSpace="42.5197"/>
			<v:textRect cx="14.1732" cy="344.266" width="28.35" height="11.3386"/>
			<rect x="0" y="338.597" width="28.3465" height="11.3386" class="st3"/>
			<text x="9.72" y="346.67" class="st7" v:langID="2057"><v:paragraph v:horizAlign="1"/><v:tabList/>31</text>		</g>
		<g id="group70-207" transform="translate(463.821,51.7976) rotate(90)" v:mID="70" v:groupContext="group">
			<title>Disconnect.89</title>
			<g id="shape71-208" v:mID="71" v:groupContext="shape" transform="translate(0.566929,0)">
				<title>Sheet.71</title>
				<rect x="0" y="344.266" width="1.88976" height="5.66929" class="st9"/>
			</g>
			<g id="shape72-210" v:mID="72" v:groupContext="shape" transform="translate(347.603,401.728) rotate(99.4623)">
				<title>Sheet.72</title>
				<path d="M0 349.52 C0.15 349.73 0.72 349.9 1.15 349.93 C1.58 349.96 1.86 349.86 2.34 349.62 C2.63 349.48 2.98 349.29
							 3.29 349.17 C4.56 348.67 5.03 349.22 5.75 349.52" class="st10"/>
			</g>
			<g id="shape73-213" v:mID="73" v:groupContext="shape" transform="translate(345.713,401.728) rotate(99.4623)">
				<title>Sheet.73</title>
				<path d="M0 349.52 C0.15 349.73 0.72 349.9 1.15 349.93 C1.58 349.96 1.86 349.86 2.34 349.62 C2.63 349.48 2.98 349.29
							 3.29 349.17 C4.56 348.67 5.03 349.22 5.75 349.52" class="st10"/>
			</g>
		</g>
	</g>
</svg>
